<svg width="40" height="24" viewBox="0 0 40 24" fill="none" xmlns="http://www.w3.org/2000/svg">
<g clip-path="url(#clip0_6509_78271)">
<path d="M33.0236 3.69294C30.8392 3.69294 28.9639 5.08395 28.2104 7.0371C28.1723 7.13558 28.0368 7.55001 28.0368 7.55001L24.9973 20.3071H31.978C34.3782 20.3071 36.406 18.6288 36.9817 16.3679L40 3.68884H33.0236V3.69294Z" fill="#0DB04B"/>
<path d="M21.3991 0C19.0624 0 17.0897 1.53462 16.4758 3.62729C16.4293 3.78321 16.3912 3.94324 16.3615 4.10737L11.6245 24H18.6009C20.9927 24 23.0035 22.3956 23.5623 20.2291L28.384 0H21.3991Z" fill="#F26F21"/>
<path d="M8.02625 3.69294C5.76569 3.69294 3.82686 5.18653 3.13261 7.25047C3.11568 7.2956 3.10298 7.34484 3.08604 7.38998L2.96751 7.83313L0 20.303H7.14997C9.28353 20.303 11.1208 18.9284 11.832 17.0039L12.1156 15.8181L15.0027 3.68883H8.02202L8.02625 3.69294Z" fill="#0066B2"/>
<path d="M6.71814 7.83313V7.84544H6.60808C6.10855 7.84544 5.63866 8.01778 5.2111 8.35835C4.79625 8.68661 4.52532 9.08463 4.43218 9.41289L2.83201 16.1546H2.92091C3.42467 16.1546 3.8988 15.9781 4.33482 15.6375C4.76661 15.297 5.04601 14.8743 5.1603 14.3901L5.51166 12.9253H8.69507C9.1946 12.9253 9.67296 12.7447 10.109 12.4083C10.5408 12.0677 10.8202 11.6533 10.9302 11.1691L10.9514 11.0829H5.95616L6.29058 9.68781H10.617C11.1165 9.6837 11.5864 9.51137 12.0139 9.1749C12.4415 8.83843 12.7082 8.41169 12.831 7.93161L12.8521 7.84134L6.73084 7.83313H6.71814Z" fill="white"/>
<path d="M24.3835 8.24346C24.1084 7.97674 23.7485 7.84134 23.3168 7.84134L17.2124 7.83313L15.2397 16.1422V16.1546H15.3286C15.8324 16.1546 16.3065 15.9822 16.7383 15.6375C17.1743 15.297 17.4495 14.8743 17.5638 14.3901L17.9194 12.9089H22.1484C22.6437 12.9089 23.0882 12.8555 23.52 12.5191C23.9475 12.1826 24.2523 11.6492 24.3751 11.1609L24.7476 9.62215C24.773 9.49906 24.7899 9.37185 24.7942 9.24465C24.8026 8.84664 24.6672 8.51017 24.392 8.24346M22.487 11.0706H18.3681L18.7025 9.6755H22.8215L22.487 11.0706Z" fill="white"/>
<path d="M36.804 8.24758C36.533 7.98087 36.1774 7.84546 35.7414 7.84546H29.2984L29.2857 7.9029C29.2561 8.03421 29.2391 8.1532 29.2391 8.2681C29.2307 8.67432 29.3661 9.01489 29.6371 9.2816C29.908 9.54831 30.2678 9.68372 30.6996 9.68372H32.0458L30.5091 16.1464H30.598C31.1018 16.1464 31.5759 15.9699 32.0077 15.6294C32.4437 15.2888 32.7189 14.8661 32.8332 14.382L33.9592 9.67962H37.1384L37.1511 9.62217C37.1765 9.49907 37.1934 9.37187 37.1934 9.24467C37.2019 8.84666 37.0664 8.50608 36.7955 8.23937" fill="white"/>
</g>
<defs>
<clipPath id="clip0_6509_78271">
<rect width="40" height="24" fill="white"/>
</clipPath>
</defs>
</svg>
