<svg width="233" height="24" viewBox="0 0 233 24" fill="none" xmlns="http://www.w3.org/2000/svg">
<path d="M51.0046 9.08984C50.9549 8.62464 50.7454 8.26243 50.3761 8.0032C50.0103 7.74396 49.5344 7.61435 48.9485 7.61435C48.5366 7.61435 48.1832 7.67649 47.8885 7.80078C47.5938 7.92507 47.3683 8.09375 47.212 8.30682C47.0558 8.51989 46.9759 8.76314 46.9723 9.03658C46.9723 9.26385 47.0238 9.46094 47.1268 9.62784C47.2333 9.79474 47.3771 9.93679 47.5582 10.054C47.7393 10.1676 47.94 10.2635 48.1602 10.3416C48.3803 10.4197 48.6023 10.4854 48.826 10.5387L49.8487 10.7944C50.2607 10.8903 50.6566 11.0199 51.0366 11.1832C51.4201 11.3466 51.7628 11.5526 52.0646 11.8011C52.37 12.0497 52.6115 12.3498 52.7891 12.7013C52.9666 13.0529 53.0554 13.4648 53.0554 13.9371C53.0554 14.5763 52.892 15.1392 52.5653 15.6257C52.2386 16.1087 51.7663 16.4869 51.1484 16.7603C50.5341 17.0302 49.7901 17.1651 48.9165 17.1651C48.0678 17.1651 47.331 17.0337 46.706 16.771C46.0845 16.5082 45.598 16.1246 45.2464 15.6204C44.8984 15.1161 44.7102 14.5018 44.6818 13.7773H46.6261C46.6545 14.1573 46.7717 14.4734 46.9776 14.7255C47.1836 14.9776 47.4517 15.1658 47.782 15.2901C48.1158 15.4144 48.4886 15.4766 48.9006 15.4766C49.3303 15.4766 49.7067 15.4126 50.0298 15.2848C50.3565 15.1534 50.6122 14.9723 50.7969 14.7415C50.9815 14.5071 51.0756 14.2337 51.0792 13.9212C51.0756 13.6371 50.9922 13.4027 50.8288 13.218C50.6655 13.0298 50.4364 12.8736 50.1417 12.7493C49.8505 12.6214 49.5096 12.5078 49.119 12.4084L47.8778 12.0888C46.9794 11.858 46.2692 11.5082 45.7472 11.0394C45.2287 10.5671 44.9695 9.94034 44.9695 9.15909C44.9695 8.51633 45.1435 7.95348 45.4915 7.47053C45.843 6.98757 46.3207 6.61293 46.9244 6.34659C47.5281 6.0767 48.2116 5.94176 48.9751 5.94176C49.7493 5.94176 50.4276 6.0767 51.0099 6.34659C51.5959 6.61293 52.0558 6.98402 52.3896 7.45987C52.7234 7.93217 52.8956 8.4755 52.9062 9.08984H51.0046ZM58.8176 8.81818V10.3097H54.1141V8.81818H58.8176ZM55.2753 6.85795H57.2036V14.5391C57.2036 14.7983 57.2426 14.9972 57.3208 15.1357C57.4024 15.2706 57.509 15.3629 57.6404 15.4126C57.7718 15.4624 57.9173 15.4872 58.0771 15.4872C58.1979 15.4872 58.308 15.4783 58.4074 15.4606C58.5104 15.4428 58.5885 15.4268 58.6418 15.4126L58.9667 16.9201C58.8637 16.9556 58.7164 16.9947 58.5246 17.0373C58.3364 17.0799 58.1056 17.1048 57.8321 17.1119C57.3492 17.1261 56.9142 17.0533 56.5271 16.8935C56.14 16.7301 55.8328 16.478 55.6056 16.1371C55.3818 15.7962 55.2718 15.37 55.2753 14.8587V6.85795ZM65.6451 13.5589V8.81818H67.5733V17H65.7037V15.5458H65.6184C65.4338 16.0039 65.1301 16.3786 64.7076 16.6697C64.2885 16.9609 63.7718 17.1065 63.1575 17.1065C62.6213 17.1065 62.1472 16.9876 61.7353 16.7496C61.3269 16.5082 61.0073 16.1584 60.7765 15.7003C60.5456 15.2386 60.4302 14.6811 60.4302 14.0277V8.81818H62.3585V13.7294C62.3585 14.2479 62.5005 14.6598 62.7846 14.9652C63.0687 15.2706 63.4416 15.4233 63.9032 15.4233C64.1873 15.4233 64.4625 15.354 64.7289 15.2156C64.9952 15.0771 65.2136 14.8711 65.3841 14.5977C65.5581 14.3207 65.6451 13.9744 65.6451 13.5589ZM72.5924 17.1438C71.9497 17.1438 71.3744 16.9787 70.8666 16.6484C70.3588 16.3182 69.9575 15.8388 69.6627 15.2102C69.368 14.5817 69.2206 13.8182 69.2206 12.9197C69.2206 12.0107 69.3698 11.2436 69.6681 10.6186C69.9699 9.99006 70.3765 9.51598 70.8879 9.19638C71.3992 8.87322 71.9692 8.71165 72.5977 8.71165C73.0771 8.71165 73.4713 8.79332 73.7803 8.95668C74.0892 9.11648 74.3343 9.31001 74.5154 9.53729C74.6965 9.76101 74.8367 9.9723 74.9362 10.1712H75.0161V6.09091H76.9497V17H75.0534V15.7109H74.9362C74.8367 15.9098 74.6929 16.1211 74.5047 16.3448C74.3165 16.565 74.0679 16.7532 73.759 16.9094C73.45 17.0657 73.0612 17.1438 72.5924 17.1438ZM73.1304 15.5618C73.5388 15.5618 73.8868 15.4517 74.1744 15.2315C74.4621 15.0078 74.6805 14.6971 74.8296 14.2994C74.9788 13.9016 75.0534 13.4382 75.0534 12.9091C75.0534 12.38 74.9788 11.9201 74.8296 11.5295C74.684 11.1388 74.4674 10.8352 74.1798 10.6186C73.8957 10.402 73.5459 10.2937 73.1304 10.2937C72.7007 10.2937 72.3421 10.4055 72.0544 10.6293C71.7668 10.853 71.5502 11.1619 71.4046 11.5561C71.259 11.9503 71.1862 12.4013 71.1862 12.9091C71.1862 13.4205 71.259 13.8768 71.4046 14.2781C71.5537 14.6758 71.7721 14.9901 72.0597 15.2209C72.3509 15.4482 72.7078 15.5618 73.1304 15.5618ZM82.6266 17.1598C81.8063 17.1598 81.0978 16.9893 80.5012 16.6484C79.9082 16.304 79.4519 15.8175 79.1323 15.1889C78.8127 14.5568 78.6529 13.8129 78.6529 12.957C78.6529 12.1154 78.8127 11.3768 79.1323 10.7411C79.4554 10.1019 79.9064 9.60476 80.4853 9.24964C81.0641 8.89098 81.7441 8.71165 82.5254 8.71165C83.0297 8.71165 83.5055 8.79332 83.9529 8.95668C84.4039 9.11648 84.8017 9.36506 85.1461 9.70241C85.4941 10.0398 85.7676 10.4695 85.9664 10.9915C86.1653 11.5099 86.2647 12.1278 86.2647 12.8452V13.4364H79.5584V12.1367H84.4164C84.4128 11.7674 84.3329 11.4389 84.1767 11.1513C84.0204 10.8601 83.802 10.631 83.5215 10.4641C83.2445 10.2972 82.9213 10.2138 82.552 10.2138C82.1578 10.2138 81.8116 10.3097 81.5133 10.5014C81.215 10.6896 80.9824 10.9382 80.8155 11.2472C80.6522 11.5526 80.5687 11.8881 80.5652 12.2539V13.3885C80.5652 13.8643 80.6522 14.2727 80.8262 14.6136C81.0002 14.951 81.2434 15.2102 81.5559 15.3913C81.8684 15.5689 82.2342 15.6577 82.6532 15.6577C82.9338 15.6577 83.1877 15.6186 83.415 15.5405C83.6422 15.4588 83.8393 15.3398 84.0062 15.1836C84.1731 15.0273 84.2992 14.8338 84.3844 14.603L86.1848 14.8054C86.0712 15.2812 85.8546 15.6967 85.535 16.0518C85.2189 16.4034 84.8141 16.6768 84.3205 16.8722C83.8269 17.0639 83.2623 17.1598 82.6266 17.1598ZM89.8243 12.206V17H87.896V8.81818H89.7391V10.2085H89.835C90.0232 9.75035 90.3232 9.38636 90.7352 9.11648C91.1507 8.84659 91.6638 8.71165 92.2746 8.71165C92.8392 8.71165 93.3311 8.83239 93.7501 9.07386C94.1727 9.31534 94.4994 9.66513 94.7302 10.1232C94.9646 10.5813 95.08 11.1371 95.0764 11.7905V17H93.1482V12.0888C93.1482 11.5419 93.0061 11.114 92.722 10.805C92.4415 10.4961 92.0526 10.3416 91.5555 10.3416C91.2181 10.3416 90.9181 10.4162 90.6553 10.5653C90.396 10.7109 90.1919 10.9222 90.0427 11.1992C89.8971 11.4762 89.8243 11.8118 89.8243 12.206ZM101.122 8.81818V10.3097H96.4188V8.81818H101.122ZM97.58 6.85795H99.5083V14.5391C99.5083 14.7983 99.5473 14.9972 99.6254 15.1357C99.7071 15.2706 99.8137 15.3629 99.945 15.4126C100.076 15.4624 100.222 15.4872 100.382 15.4872C100.503 15.4872 100.613 15.4783 100.712 15.4606C100.815 15.4428 100.893 15.4268 100.946 15.4126L101.271 16.9201C101.168 16.9556 101.021 16.9947 100.829 17.0373C100.641 17.0799 100.41 17.1048 100.137 17.1119C99.6539 17.1261 99.2188 17.0533 98.8318 16.8935C98.4447 16.7301 98.1375 16.478 97.9102 16.1371C97.6865 15.7962 97.5764 15.37 97.58 14.8587V6.85795ZM115.879 9.77166H113.886C113.83 9.44496 113.725 9.15554 113.572 8.90341C113.419 8.64773 113.229 8.43111 113.002 8.25355C112.775 8.07599 112.516 7.94283 112.224 7.85405C111.937 7.76172 111.626 7.71555 111.292 7.71555C110.699 7.71555 110.174 7.8647 109.716 8.163C109.257 8.45774 108.899 8.89098 108.64 9.46271C108.38 10.0309 108.251 10.7251 108.251 11.5455C108.251 12.38 108.38 13.0831 108.64 13.6548C108.902 14.223 109.261 14.6527 109.716 14.9439C110.174 15.2315 110.697 15.3754 111.287 15.3754C111.614 15.3754 111.919 15.3327 112.203 15.2475C112.491 15.1587 112.748 15.0291 112.975 14.8587C113.206 14.6882 113.4 14.4787 113.556 14.2301C113.716 13.9815 113.826 13.6974 113.886 13.3778L115.879 13.3885C115.804 13.907 115.642 14.3935 115.394 14.848C115.149 15.3026 114.827 15.7038 114.43 16.0518C114.032 16.3963 113.567 16.6662 113.034 16.8615C112.501 17.0533 111.91 17.1491 111.26 17.1491C110.301 17.1491 109.446 16.9272 108.693 16.4833C107.94 16.0394 107.347 15.3984 106.914 14.5604C106.48 13.7223 106.264 12.7173 106.264 11.5455C106.264 10.37 106.482 9.36506 106.919 8.53054C107.356 7.69247 107.951 7.05149 108.703 6.6076C109.456 6.16371 110.309 5.94176 111.26 5.94176C111.868 5.94176 112.432 6.02699 112.954 6.19744C113.476 6.3679 113.941 6.61825 114.35 6.94851C114.758 7.27521 115.094 7.67649 115.357 8.15234C115.623 8.62464 115.797 9.16442 115.879 9.77166ZM119.957 17.1651C119.439 17.1651 118.972 17.0728 118.557 16.8881C118.145 16.6999 117.818 16.4229 117.576 16.0572C117.339 15.6914 117.22 15.2404 117.22 14.7042C117.22 14.2425 117.305 13.8608 117.475 13.5589C117.646 13.2571 117.878 13.0156 118.173 12.8345C118.468 12.6534 118.8 12.5167 119.169 12.4244C119.542 12.3285 119.927 12.2592 120.325 12.2166C120.804 12.1669 121.193 12.1225 121.492 12.0835C121.79 12.0408 122.006 11.9769 122.141 11.8917C122.28 11.8029 122.349 11.6662 122.349 11.4815V11.4496C122.349 11.0483 122.23 10.7376 121.992 10.5174C121.754 10.2972 121.412 10.1871 120.964 10.1871C120.492 10.1871 120.117 10.2901 119.84 10.4961C119.567 10.7021 119.382 10.9453 119.286 11.2259L117.486 10.9702C117.628 10.473 117.862 10.0575 118.189 9.72372C118.516 9.38636 118.915 9.13423 119.388 8.96733C119.86 8.79688 120.382 8.71165 120.954 8.71165C121.348 8.71165 121.74 8.75781 122.131 8.85014C122.521 8.94247 122.878 9.09517 123.201 9.30824C123.525 9.51776 123.784 9.80362 123.979 10.1658C124.178 10.5281 124.277 10.9808 124.277 11.5241V17H122.424V15.8761H122.36C122.243 16.1033 122.078 16.3164 121.864 16.5153C121.655 16.7106 121.39 16.8686 121.071 16.9893C120.755 17.1065 120.384 17.1651 119.957 17.1651ZM120.458 15.7482C120.845 15.7482 121.181 15.6719 121.465 15.5192C121.749 15.3629 121.967 15.157 122.12 14.9013C122.276 14.6456 122.354 14.3668 122.354 14.065V13.1009C122.294 13.1506 122.191 13.1967 122.046 13.2393C121.903 13.282 121.744 13.3192 121.566 13.3512C121.389 13.3832 121.213 13.4116 121.039 13.4364C120.865 13.4613 120.714 13.4826 120.586 13.5004C120.298 13.5394 120.041 13.6033 119.814 13.6921C119.586 13.7809 119.407 13.9052 119.276 14.065C119.144 14.2212 119.079 14.4237 119.079 14.6722C119.079 15.0273 119.208 15.2955 119.467 15.4766C119.727 15.6577 120.057 15.7482 120.458 15.7482ZM126.216 17V8.81818H128.086V10.1818H128.171C128.32 9.70952 128.576 9.34553 128.938 9.08984C129.304 8.83061 129.721 8.70099 130.19 8.70099C130.297 8.70099 130.416 8.70632 130.547 8.71697C130.682 8.72408 130.794 8.73651 130.883 8.75426V10.5281C130.801 10.4996 130.671 10.4748 130.494 10.4535C130.32 10.4286 130.151 10.4162 129.988 10.4162C129.636 10.4162 129.32 10.4925 129.04 10.6452C128.763 10.7944 128.544 11.0021 128.384 11.2685C128.225 11.5348 128.145 11.842 128.145 12.19V17H126.216ZM135.449 17.1598C134.629 17.1598 133.92 16.9893 133.324 16.6484C132.73 16.304 132.274 15.8175 131.955 15.1889C131.635 14.5568 131.475 13.8129 131.475 12.957C131.475 12.1154 131.635 11.3768 131.955 10.7411C132.278 10.1019 132.729 9.60476 133.308 9.24964C133.886 8.89098 134.566 8.71165 135.348 8.71165C135.852 8.71165 136.328 8.79332 136.775 8.95668C137.226 9.11648 137.624 9.36506 137.968 9.70241C138.316 10.0398 138.59 10.4695 138.789 10.9915C138.988 11.5099 139.087 12.1278 139.087 12.8452V13.4364H132.381V12.1367H137.239C137.235 11.7674 137.155 11.4389 136.999 11.1513C136.843 10.8601 136.624 10.631 136.344 10.4641C136.067 10.2972 135.744 10.2138 135.374 10.2138C134.98 10.2138 134.634 10.3097 134.336 10.5014C134.037 10.6896 133.805 10.9382 133.638 11.2472C133.474 11.5526 133.391 11.8881 133.387 12.2539V13.3885C133.387 13.8643 133.474 14.2727 133.648 14.6136C133.822 14.951 134.066 15.2102 134.378 15.3913C134.691 15.5689 135.056 15.6577 135.475 15.6577C135.756 15.6577 136.01 15.6186 136.237 15.5405C136.464 15.4588 136.662 15.3398 136.828 15.1836C136.995 15.0273 137.121 14.8338 137.207 14.603L139.007 14.8054C138.893 15.2812 138.677 15.6967 138.357 16.0518C138.041 16.4034 137.636 16.6768 137.143 16.8722C136.649 17.0639 136.085 17.1598 135.449 17.1598ZM150.453 9.08984C150.403 8.62464 150.194 8.26243 149.824 8.0032C149.459 7.74396 148.983 7.61435 148.397 7.61435C147.985 7.61435 147.631 7.67649 147.337 7.80078C147.042 7.92507 146.816 8.09375 146.66 8.30682C146.504 8.51989 146.424 8.76314 146.421 9.03658C146.421 9.26385 146.472 9.46094 146.575 9.62784C146.682 9.79474 146.825 9.93679 147.006 10.054C147.188 10.1676 147.388 10.2635 147.608 10.3416C147.829 10.4197 148.051 10.4854 148.274 10.5387L149.297 10.7944C149.709 10.8903 150.105 11.0199 150.485 11.1832C150.868 11.3466 151.211 11.5526 151.513 11.8011C151.818 12.0497 152.06 12.3498 152.237 12.7013C152.415 13.0529 152.504 13.4648 152.504 13.9371C152.504 14.5763 152.34 15.1392 152.014 15.6257C151.687 16.1087 151.215 16.4869 150.597 16.7603C149.982 17.0302 149.238 17.1651 148.365 17.1651C147.516 17.1651 146.779 17.0337 146.154 16.771C145.533 16.5082 145.046 16.1246 144.695 15.6204C144.347 15.1161 144.158 14.5018 144.13 13.7773H146.074C146.103 14.1573 146.22 14.4734 146.426 14.7255C146.632 14.9776 146.9 15.1658 147.23 15.2901C147.564 15.4144 147.937 15.4766 148.349 15.4766C148.778 15.4766 149.155 15.4126 149.478 15.2848C149.805 15.1534 150.06 14.9723 150.245 14.7415C150.43 14.5071 150.524 14.2337 150.527 13.9212C150.524 13.6371 150.44 13.4027 150.277 13.218C150.114 13.0298 149.885 12.8736 149.59 12.7493C149.299 12.6214 148.958 12.5078 148.567 12.4084L147.326 12.0888C146.428 11.858 145.717 11.5082 145.195 11.0394C144.677 10.5671 144.418 9.94034 144.418 9.15909C144.418 8.51633 144.592 7.95348 144.94 7.47053C145.291 6.98757 145.769 6.61293 146.373 6.34659C146.976 6.0767 147.66 5.94176 148.423 5.94176C149.198 5.94176 149.876 6.0767 150.458 6.34659C151.044 6.61293 151.504 6.98402 151.838 7.45987C152.172 7.93217 152.344 8.4755 152.354 9.08984H150.453ZM155.379 20.0682C155.116 20.0682 154.873 20.0469 154.649 20.0043C154.429 19.9652 154.253 19.919 154.122 19.8658L154.569 18.3636C154.85 18.4453 155.1 18.4844 155.32 18.4808C155.54 18.4773 155.734 18.408 155.901 18.2731C156.071 18.1417 156.215 17.9215 156.332 17.6126L156.497 17.1705L153.53 8.81818H155.576L157.461 14.9972H157.547L159.438 8.81818H161.488L158.213 17.9908C158.06 18.424 157.857 18.7951 157.605 19.104C157.353 19.4165 157.044 19.6545 156.678 19.8178C156.316 19.9847 155.883 20.0682 155.379 20.0682ZM169.289 10.9808L167.532 11.1726C167.482 10.995 167.395 10.8281 167.271 10.6719C167.15 10.5156 166.987 10.3896 166.781 10.2937C166.575 10.1978 166.322 10.1499 166.024 10.1499C165.623 10.1499 165.286 10.2369 165.012 10.4109C164.742 10.5849 164.609 10.8104 164.613 11.0874C164.609 11.3253 164.696 11.5188 164.874 11.668C165.055 11.8171 165.353 11.9396 165.768 12.0355L167.164 12.3338C167.938 12.5007 168.513 12.7653 168.89 13.1275C169.27 13.4897 169.462 13.9638 169.465 14.5497C169.462 15.0646 169.311 15.5192 169.012 15.9134C168.718 16.304 168.308 16.6094 167.782 16.8295C167.256 17.0497 166.653 17.1598 165.971 17.1598C164.969 17.1598 164.163 16.9503 163.553 16.5312C162.942 16.1087 162.578 15.521 162.461 14.7681L164.341 14.587C164.426 14.9563 164.607 15.2351 164.884 15.4233C165.161 15.6115 165.522 15.7056 165.966 15.7056C166.424 15.7056 166.791 15.6115 167.068 15.4233C167.349 15.2351 167.489 15.0025 167.489 14.7255C167.489 14.4911 167.398 14.2976 167.217 14.1449C167.04 13.9922 166.763 13.875 166.386 13.7933L164.991 13.5004C164.206 13.337 163.625 13.0618 163.249 12.6747C162.873 12.2841 162.686 11.7905 162.69 11.1939C162.686 10.6896 162.823 10.2528 163.1 9.88352C163.38 9.51065 163.769 9.22301 164.266 9.0206C164.767 8.81463 165.344 8.71165 165.998 8.71165C166.956 8.71165 167.711 8.91584 168.261 9.32422C168.815 9.7326 169.158 10.2848 169.289 10.9808ZM175.141 8.81818V10.3097H170.437V8.81818H175.141ZM171.599 6.85795H173.527V14.5391C173.527 14.7983 173.566 14.9972 173.644 15.1357C173.726 15.2706 173.832 15.3629 173.964 15.4126C174.095 15.4624 174.241 15.4872 174.4 15.4872C174.521 15.4872 174.631 15.4783 174.731 15.4606C174.834 15.4428 174.912 15.4268 174.965 15.4126L175.29 16.9201C175.187 16.9556 175.04 16.9947 174.848 17.0373C174.66 17.0799 174.429 17.1048 174.155 17.1119C173.672 17.1261 173.237 17.0533 172.85 16.8935C172.463 16.7301 172.156 16.478 171.929 16.1371C171.705 15.7962 171.595 15.37 171.599 14.8587V6.85795ZM180.288 17.1598C179.467 17.1598 178.759 16.9893 178.162 16.6484C177.569 16.304 177.113 15.8175 176.793 15.1889C176.474 14.5568 176.314 13.8129 176.314 12.957C176.314 12.1154 176.474 11.3768 176.793 10.7411C177.117 10.1019 177.568 9.60476 178.146 9.24964C178.725 8.89098 179.405 8.71165 180.187 8.71165C180.691 8.71165 181.167 8.79332 181.614 8.95668C182.065 9.11648 182.463 9.36506 182.807 9.70241C183.155 10.0398 183.429 10.4695 183.628 10.9915C183.826 11.5099 183.926 12.1278 183.926 12.8452V13.4364H177.22V12.1367H182.078C182.074 11.7674 181.994 11.4389 181.838 11.1513C181.682 10.8601 181.463 10.631 181.183 10.4641C180.906 10.2972 180.582 10.2138 180.213 10.2138C179.819 10.2138 179.473 10.3097 179.174 10.5014C178.876 10.6896 178.644 10.9382 178.477 11.2472C178.313 11.5526 178.23 11.8881 178.226 12.2539V13.3885C178.226 13.8643 178.313 14.2727 178.487 14.6136C178.661 14.951 178.905 15.2102 179.217 15.3913C179.53 15.5689 179.895 15.6577 180.314 15.6577C180.595 15.6577 180.849 15.6186 181.076 15.5405C181.303 15.4588 181.5 15.3398 181.667 15.1836C181.834 15.0273 181.96 14.8338 182.046 14.603L183.846 14.8054C183.732 15.2812 183.516 15.6967 183.196 16.0518C182.88 16.4034 182.475 16.6768 181.982 16.8722C181.488 17.0639 180.923 17.1598 180.288 17.1598ZM185.557 17V8.81818H187.4V10.2085H187.496C187.667 9.7397 187.949 9.37393 188.343 9.11115C188.737 8.84482 189.208 8.71165 189.755 8.71165C190.309 8.71165 190.776 8.84659 191.156 9.11648C191.539 9.38281 191.809 9.7468 191.965 10.2085H192.05C192.232 9.75391 192.537 9.39169 192.967 9.1218C193.4 8.84837 193.913 8.71165 194.506 8.71165C195.259 8.71165 195.873 8.94957 196.349 9.42543C196.825 9.90128 197.063 10.5955 197.063 11.5082V17H195.129V11.8065C195.129 11.2987 194.994 10.9276 194.724 10.6932C194.455 10.4553 194.124 10.3363 193.734 10.3363C193.268 10.3363 192.904 10.4819 192.642 10.7731C192.382 11.0607 192.253 11.4354 192.253 11.897V17H190.362V11.7266C190.362 11.304 190.234 10.9666 189.978 10.7145C189.726 10.4624 189.396 10.3363 188.988 10.3363C188.711 10.3363 188.458 10.4073 188.231 10.5494C188.004 10.6879 187.823 10.8849 187.688 11.1406C187.553 11.3928 187.485 11.6875 187.485 12.0249V17H185.557ZM202.825 17V6.09091H209.814V7.74751H204.801V10.7092H209.334V12.3658H204.801V17H202.825ZM211.614 17V6.09091H215.705C216.543 6.09091 217.246 6.24716 217.814 6.55966C218.386 6.87216 218.818 7.30185 219.109 7.84872C219.403 8.39205 219.551 9.00994 219.551 9.70241C219.551 10.402 219.403 11.0234 219.109 11.5668C218.814 12.1101 218.379 12.538 217.804 12.8505C217.228 13.1594 216.52 13.3139 215.678 13.3139H212.967V11.6893H215.412C215.902 11.6893 216.303 11.604 216.616 11.4336C216.928 11.2631 217.159 11.0288 217.308 10.7305C217.461 10.4322 217.537 10.0895 217.537 9.70241C217.537 9.31534 217.461 8.97443 217.308 8.67969C217.159 8.38494 216.927 8.15589 216.611 7.99254C216.298 7.82564 215.895 7.74219 215.401 7.74219H213.59V17H211.614ZM220.788 7.74751V6.09091H229.492V7.74751H226.12V17H224.16V7.74751H220.788Z" fill="currentColor"/>
<path d="M33.0236 3.69294C30.8392 3.69294 28.9639 5.08395 28.2104 7.0371C28.1723 7.13558 28.0368 7.55001 28.0368 7.55001L24.9973 20.3071H31.978C34.3782 20.3071 36.406 18.6288 36.9817 16.3679L40 3.68884H33.0236V3.69294Z" fill="#0DB04B"/>
<path d="M21.3991 0C19.0624 0 17.0897 1.53462 16.4758 3.62729C16.4293 3.78321 16.3912 3.94324 16.3615 4.10737L11.6245 24H18.6009C20.9927 24 23.0035 22.3956 23.5623 20.2291L28.384 0H21.3991Z" fill="#F26F21"/>
<path d="M8.02625 3.69294C5.76569 3.69294 3.82686 5.18653 3.13261 7.25047C3.11568 7.2956 3.10298 7.34484 3.08604 7.38998L2.96751 7.83313L0 20.303H7.14997C9.28353 20.303 11.1208 18.9284 11.832 17.0039L12.1156 15.8181L15.0027 3.68883H8.02202L8.02625 3.69294Z" fill="#0066B2"/>
<path d="M6.71814 7.83313V7.84544H6.60808C6.10855 7.84544 5.63866 8.01778 5.2111 8.35835C4.79625 8.68661 4.52532 9.08463 4.43218 9.41289L2.83201 16.1546H2.92091C3.42467 16.1546 3.8988 15.9781 4.33482 15.6375C4.76661 15.297 5.04601 14.8743 5.1603 14.3901L5.51166 12.9253H8.69507C9.1946 12.9253 9.67296 12.7447 10.109 12.4083C10.5408 12.0677 10.8202 11.6533 10.9302 11.1691L10.9514 11.0829H5.95616L6.29058 9.68781H10.617C11.1165 9.6837 11.5864 9.51137 12.0139 9.1749C12.4415 8.83843 12.7082 8.41169 12.831 7.93161L12.8521 7.84134L6.73084 7.83313H6.71814Z" fill="white"/>
<path d="M24.3835 8.24346C24.1084 7.97674 23.7485 7.84134 23.3168 7.84134L17.2124 7.83313L15.2397 16.1422V16.1546H15.3286C15.8324 16.1546 16.3065 15.9822 16.7383 15.6375C17.1743 15.297 17.4495 14.8743 17.5638 14.3901L17.9194 12.9089H22.1484C22.6437 12.9089 23.0882 12.8555 23.52 12.5191C23.9475 12.1826 24.2523 11.6492 24.3751 11.1609L24.7476 9.62215C24.773 9.49906 24.7899 9.37185 24.7942 9.24465C24.8026 8.84664 24.6672 8.51017 24.392 8.24346M22.487 11.0706H18.3681L18.7025 9.6755H22.8215L22.487 11.0706Z" fill="white"/>
<path d="M36.804 8.24758C36.533 7.98087 36.1774 7.84546 35.7414 7.84546H29.2984L29.2857 7.9029C29.2561 8.03421 29.2391 8.1532 29.2391 8.2681C29.2307 8.67432 29.3661 9.01489 29.6371 9.2816C29.908 9.54831 30.2678 9.68372 30.6996 9.68372H32.0458L30.5091 16.1464H30.598C31.1018 16.1464 31.5759 15.9699 32.0077 15.6294C32.4437 15.2888 32.7189 14.8661 32.8332 14.382L33.9592 9.67962H37.1384L37.1511 9.62217C37.1765 9.49907 37.1934 9.37187 37.1934 9.24467C37.2019 8.84666 37.0664 8.50608 36.7955 8.23937" fill="white"/>
</svg>
