<svg width="24" height="24" viewBox="0 0 24 24" fill="none" xmlns="http://www.w3.org/2000/svg">
<path fill-rule="evenodd" clip-rule="evenodd" d="M14.7859 3.07751C15.1683 3.07751 15.4782 3.38747 15.4782 3.76982V5.56005C15.4782 5.94239 15.1683 6.25235 14.7859 6.25235C14.4036 6.25235 14.0936 5.94239 14.0936 5.56005V3.76982C14.0936 3.38747 14.4036 3.07751 14.7859 3.07751Z" fill="currentColor"/>
<path fill-rule="evenodd" clip-rule="evenodd" d="M7.83579 3.07751C8.21814 3.07751 8.5281 3.38747 8.5281 3.76982V5.56005C8.5281 5.94239 8.21814 6.25235 7.83579 6.25235C7.45344 6.25235 7.14348 5.94239 7.14348 5.56005V3.76982C7.14348 3.38747 7.45344 3.07751 7.83579 3.07751Z" fill="currentColor"/>
<path fill-rule="evenodd" clip-rule="evenodd" d="M7.33348 4.87038L15.296 4.86959C16.593 4.86959 17.7333 5.23098 18.552 6.01122C19.3759 6.7965 19.7841 7.92022 19.7804 9.25975V16.5257C19.7804 17.8653 19.3703 18.9901 18.5464 19.7766C17.7273 20.5585 16.5872 20.9222 15.2892 20.9222L7.33355 20.923C6.03528 20.923 4.89415 20.5514 4.07509 19.7575C3.2526 18.9604 2.84225 17.8221 2.84225 16.4662V9.25917C2.84225 7.91886 3.25473 6.7958 4.07995 6.01139C4.89979 5.23208 6.03939 4.87039 7.33348 4.87038ZM15.296 6.2542L7.33355 6.25499C6.28874 6.25499 5.52877 6.54454 5.0339 7.01495C4.54437 7.48027 4.22686 8.20546 4.22686 9.25917V16.4662C4.22686 17.5421 4.54651 18.2861 5.03875 18.7633C5.53442 19.2437 6.29279 19.5384 7.33341 19.5384L15.2891 19.5376C16.3369 19.5376 17.0963 19.2466 17.5902 18.7751C18.0793 18.3082 18.3958 17.5808 18.3958 16.5257V9.25638C18.3989 8.20217 18.0839 7.47788 17.5967 7.01353C17.1041 6.54405 16.3448 6.25421 15.296 6.2542Z" fill="currentColor"/>
<path fill-rule="evenodd" clip-rule="evenodd" d="M9.04047 10.5081C9.04047 10.1258 9.35042 9.8158 9.73278 9.8158H12.8501C13.0765 9.8158 13.2884 9.92636 13.4179 10.1119C13.5474 10.2975 13.5781 10.5345 13.5 10.7469L11.6834 15.6899C11.5515 16.0487 11.1537 16.2328 10.7948 16.1009C10.4359 15.9689 10.2519 15.5711 10.3838 15.2122L11.8582 11.2004H9.73278C9.35042 11.2004 9.04047 10.8905 9.04047 10.5081Z" fill="currentColor"/>
</svg>
