<svg width="24" height="24" viewBox="0 0 24 24" fill="none" xmlns="http://www.w3.org/2000/svg">
<path stroke-width="1.5" fill-rule="evenodd" clip-rule="evenodd" d="M15.1914 15.7302L14.981 16.1533L14.9803 16.1548C14.8494 16.4166 14.5976 16.6057 14.298 16.6499L14.2965 16.6502L13.836 16.7171L14.1722 17.0405C14.383 17.248 14.4818 17.5473 14.4307 17.8432L14.4304 17.8454L14.3504 18.3L14.7703 18.0805C15.0367 17.9384 15.3561 17.9385 15.6225 18.0807L16.0349 18.2967L15.9564 17.8504C15.901 17.5511 16.0007 17.2444 16.2207 17.0347L16.5484 16.7178L16.0893 16.6513C15.7906 16.6093 15.5337 16.4212 15.4018 16.1534L15.1914 15.7302ZM17.5224 16.8589C17.5193 16.8585 17.5161 16.8581 17.513 16.8576L17.5224 16.8589ZM17.2514 16.0378C17.2538 16.0356 17.2562 16.0333 17.2586 16.0311L17.2514 16.0378ZM14.9034 13.8025C15.1319 13.7265 15.3801 13.7445 15.5942 13.8499L15.6027 13.8541C15.7704 13.9396 15.9136 14.0768 16.0043 14.255L16.0074 14.2611L16.532 15.3163L17.7032 15.4862C17.9484 15.5193 18.1599 15.6495 18.3012 15.8326L18.3027 15.8346C18.5819 16.1989 18.5453 16.7191 18.2079 17.0391L17.3633 17.856L17.5665 19.0128C17.5677 19.0196 17.5688 19.0265 17.5698 19.0334C17.6407 19.5234 17.3066 19.9791 16.8198 20.0602L16.8087 20.0621C16.6265 20.0894 16.4318 20.0634 16.2546 19.9748L16.243 19.9688L15.196 19.4203L14.1345 19.9752C13.6938 20.2005 13.1565 20.0343 12.9183 19.604L12.9095 19.5877C12.8199 19.415 12.7878 19.2184 12.817 19.0267L12.8195 19.0111L13.0227 17.856L12.1706 17.0363L12.161 17.0269C11.8069 16.6729 11.8069 16.0976 12.161 15.7436C12.1689 15.7356 12.1771 15.7278 12.1854 15.7203C12.3136 15.6041 12.4758 15.5215 12.6548 15.4901C12.6615 15.4889 12.6682 15.4879 12.6749 15.4868L13.8511 15.3158L14.3754 14.2611L14.3762 14.2597C14.4798 14.0525 14.6646 13.8811 14.9034 13.8025ZM17.317 17.5936C17.3176 17.5966 17.3181 17.5997 17.3187 17.6027L17.317 17.5936Z" fill="currentColor"/>
<path stroke-width="1.5" fill-rule="evenodd" clip-rule="evenodd" d="M6.83875 16.6041C6.08739 17.2849 5.78726 18.1507 5.78726 18.9128C5.78726 19.2952 5.4773 19.6051 5.09495 19.6051C4.7126 19.6051 4.40264 19.2952 4.40264 18.9128C4.40264 17.7906 4.8459 16.5413 5.90912 15.578C6.97405 14.6132 8.59814 13.9903 10.8666 13.9903C11.2489 13.9903 11.5589 14.3003 11.5589 14.6827C11.5589 15.0651 11.2489 15.375 10.8666 15.375C8.85014 15.375 7.58843 15.925 6.83875 16.6041Z" fill="currentColor"/>
<path stroke-width="1.5" fill-rule="evenodd" clip-rule="evenodd" d="M10.8658 5.3077C9.21233 5.3077 7.87139 6.64802 7.87139 8.30213C7.87139 9.95554 9.21242 11.2965 10.8658 11.2965C12.5192 11.2965 13.8603 9.95554 13.8603 8.30213C13.8603 6.64802 12.5193 5.3077 10.8658 5.3077ZM6.48678 8.30213C6.48678 5.88311 8.44782 3.92308 10.8658 3.92308C13.2838 3.92308 15.2449 5.88311 15.2449 8.30213C15.2449 10.7203 13.2839 12.6811 10.8658 12.6811C8.44772 12.6811 6.48678 10.7203 6.48678 8.30213Z" fill="currentColor"/>
</svg>
