<svg width="24" height="24" viewBox="0 0 24 24" fill="none" xmlns="http://www.w3.org/2000/svg">
<path d="M11.9089 21.0112C11.7361 21.0112 11.5536 20.9824 11.3808 20.9248C10.68 20.6944 10.2193 20.0704 10.2193 19.3312V14.4928H5.67844C5.04484 14.4928 4.47845 14.1376 4.19045 13.5808C3.90245 13.0144 3.96007 12.352 4.32487 11.8336L10.7473 2.98246C11.1793 2.38726 11.9185 2.14726 12.6193 2.37766C13.3201 2.60806 13.7808 3.23206 13.7808 3.97126V8.80966H18.3217C18.9553 8.80966 19.5313 9.16486 19.8097 9.72163C20.0977 10.288 20.0401 10.9504 19.6753 11.4688L13.2529 20.32C12.9265 20.7712 12.4369 21.0112 11.9089 21.0112ZM12.1008 3.73126C12.0432 3.73126 11.976 3.75046 11.9184 3.82726L5.49604 12.6784C5.41924 12.784 5.44808 12.88 5.47688 12.928C5.50568 12.976 5.56325 13.0528 5.68805 13.0528H10.9489C11.3425 13.0528 11.6689 13.3792 11.6689 13.7728V19.3312C11.6689 19.4752 11.7553 19.5328 11.8321 19.552C11.9089 19.5712 12.0145 19.5808 12.0913 19.4656L18.5232 10.6144C18.6 10.5088 18.5713 10.4128 18.5425 10.3648C18.5137 10.3168 18.4561 10.24 18.3313 10.24H13.0705C12.6769 10.24 12.3505 9.91363 12.3505 9.52006V3.96166C12.3505 3.81766 12.2641 3.76006 12.1873 3.74086C12.1585 3.74086 12.1296 3.73126 12.1008 3.73126Z" fill="currentColor"/>
</svg>
