<svg width="24" height="24" viewBox="0 0 24 24" fill="none" xmlns="http://www.w3.org/2000/svg">
<path fill-rule="evenodd" clip-rule="evenodd" d="M3.47983 5.71891C4.25795 4.88414 5.36352 4.42067 6.65986 4.42067H15.9555C17.2545 4.42067 18.3604 4.88387 19.1381 5.71923C19.9107 6.54898 20.3077 7.68963 20.3077 8.95967V12.1821C20.3077 12.5645 19.9977 12.8744 19.6154 12.8744C19.233 12.8744 18.9231 12.5645 18.9231 12.1821V8.95967C18.9231 7.9754 18.6182 7.19271 18.1248 6.66269C17.6366 6.13828 16.9125 5.80528 15.9555 5.80528H6.65986C5.70638 5.80528 4.98203 6.13801 4.49267 6.66301C3.99826 7.19341 3.69229 7.97621 3.69229 8.95967V15.04C3.69229 16.0242 3.99717 16.8069 4.4906 17.337C4.97881 17.8614 5.70282 18.1944 6.65986 18.1944H10.1203C10.5027 18.1944 10.8126 18.5044 10.8126 18.8867C10.8126 19.269 10.5027 19.579 10.1203 19.579H6.65986C5.3608 19.579 4.25487 19.1158 3.47718 18.2804C2.70468 17.4507 2.30768 16.31 2.30768 15.04V8.95967C2.30768 7.68881 2.70674 6.54828 3.47983 5.71891Z" fill="currentColor"/>
<path fill-rule="evenodd" clip-rule="evenodd" d="M2.30768 9.9988C2.30768 9.61645 2.61764 9.30649 2.99999 9.30649H19.6154C19.9977 9.30649 20.3077 9.61645 20.3077 9.9988C20.3077 10.3811 19.9977 10.6911 19.6154 10.6911H2.99999C2.61764 10.6911 2.30768 10.3811 2.30768 9.9988Z" fill="currentColor"/>
<path fill-rule="evenodd" clip-rule="evenodd" d="M12.5535 16.5866C12.5535 16.2042 12.8634 15.8943 13.2458 15.8943H19.354C19.7363 15.8943 20.0463 16.2042 20.0463 16.5866C20.0463 16.9689 19.7363 17.2789 19.354 17.2789H13.2458C12.8634 17.2789 12.5535 16.9689 12.5535 16.5866Z" fill="currentColor"/>
<path fill-rule="evenodd" clip-rule="evenodd" d="M16.7071 13.9454C16.9769 13.6745 17.4153 13.6735 17.6862 13.9434L19.8436 16.0916C19.974 16.2216 20.0474 16.3982 20.0473 16.5822C20.0473 16.7664 19.9739 16.943 19.8435 17.0729L17.6861 19.2203C17.4151 19.49 16.9768 19.489 16.707 19.2181C16.4373 18.9471 16.4383 18.5087 16.7092 18.239L18.3737 16.5822L16.7092 14.9245C16.4382 14.6547 16.4373 14.2163 16.7071 13.9454Z" fill="currentColor"/>
</svg>
