<svg width="24" height="24" viewBox="0 0 24 24" fill="none" xmlns="http://www.w3.org/2000/svg">
<path fill-rule="evenodd" clip-rule="evenodd" d="M3.68325 4.52065C4.592 3.5457 5.88616 3 7.41429 3H15.2002C16.7319 3 18.0266 3.54539 18.935 4.52091C19.8381 5.49084 20.3077 6.82974 20.3077 8.33204V15.6679C20.3077 17.1702 19.8381 18.5092 18.9348 19.4791C18.0263 20.4546 16.7313 21 15.1993 21H7.41429C5.88257 21 4.58803 20.4546 3.6799 19.479C2.77699 18.5091 2.30768 17.1702 2.30768 15.6679V8.33204C2.30768 6.82898 2.77953 5.49019 3.68325 4.52065ZM4.69609 5.46473C4.07098 6.13538 3.69229 7.11647 3.69229 8.33204V15.6679C3.69229 16.8844 4.06947 17.8653 4.69338 18.5356C5.31206 19.2003 6.22467 19.6154 7.41429 19.6154H15.1993C16.3894 19.6154 17.3025 19.2002 17.9215 18.5355C18.5457 17.8652 18.9231 16.8843 18.9231 15.6679V8.33204C18.9231 7.1157 18.5457 6.13474 17.9216 5.46447C17.3027 4.79977 16.3898 4.38462 15.2002 4.38462H7.41429C6.22917 4.38462 5.31618 4.79947 4.69609 5.46473Z" fill="currentColor"/>
<path d="M7.20987 7.92871C6.82752 7.92871 6.51756 8.23867 6.51756 8.62102C6.51756 9.00337 6.82752 9.31333 7.20987 9.31333H10.0857C10.468 9.31333 10.778 9.00337 10.778 8.62102C10.778 8.23867 10.468 7.92871 10.0857 7.92871H7.20987Z" fill="currentColor"/>
</svg>
