<svg width="24" height="24" viewBox="0 0 24 24" fill="none" xmlns="http://www.w3.org/2000/svg">
<path d="M13.788 10.2068C13.647 9.85168 13.8205 9.44963 14.1756 9.30901L16.1935 8.50853C16.5491 8.36791 16.9512 8.54098 17.0918 8.89615C17.2328 9.25132 17.0594 9.65336 16.7042 9.79579L14.6872 10.5944C14.3316 10.7369 13.929 10.562 13.788 10.2068Z" fill="currentColor"/>
<path d="M13.788 14.3571C13.647 14.002 13.8205 13.5999 14.1756 13.4593L16.1935 12.6588C16.5491 12.5181 16.9512 12.6912 17.0918 13.0464C17.2328 13.4016 17.0594 13.8036 16.7042 13.946L14.6872 14.7465C14.3316 14.8871 13.929 14.7123 13.788 14.3571Z" fill="currentColor"/>
<path d="M8.65385 10.2032C8.51277 10.5584 8.11027 10.7333 7.75466 10.5927L5.73768 9.79219C5.38251 9.64976 5.20899 9.24771 5.34916 8.89255C5.43885 8.66719 5.63357 8.51574 5.85487 8.47066C5.98243 8.44543 6.11854 8.45445 6.24835 8.50492L8.26532 9.3054C8.6205 9.44603 8.79492 9.84807 8.65385 10.2032Z" fill="currentColor"/>
<path d="M8.65385 14.3553C8.51277 14.7104 8.11028 14.8835 7.75466 14.7429L5.73768 13.9424C5.62139 13.8955 5.52494 13.8216 5.45238 13.7315C5.30274 13.544 5.25496 13.2844 5.34916 13.0445C5.49068 12.6894 5.89273 12.5145 6.24835 12.6552L8.26532 13.4557C8.6205 13.5963 8.79492 14.0001 8.65385 14.3553Z" fill="currentColor"/>
<path fill-rule="evenodd" clip-rule="evenodd" d="M9.88791 20.1768C8.8071 19.5494 7.00241 18.7074 4.95793 18.5614C3.4958 18.4551 2.30769 17.2759 2.30769 15.767V6.22066C2.30769 4.53137 3.7829 3.25132 5.44156 3.43161C7.61629 3.67139 9.47548 4.55481 10.5829 5.19663C11.0336 5.45805 11.5818 5.45805 12.0333 5.19663C13.1399 4.55481 14.9991 3.67139 17.1738 3.43161C18.8316 3.25132 20.3077 4.53137 20.3077 6.22066V15.767C20.3077 17.2759 19.1196 18.4551 17.6574 18.5614C15.613 18.7074 13.8083 19.5494 12.7275 20.1768C11.8468 20.687 10.7686 20.687 9.88791 20.1768ZM12 6.69122V18.9959C12.0113 18.9905 12.0221 18.9851 12.0333 18.9779C13.203 18.3 15.2168 17.3481 17.5588 17.1804C18.3407 17.1227 18.9231 16.5061 18.9231 15.767V6.22066C18.9231 5.37692 18.183 4.71526 17.3244 4.80901C16.2859 4.92259 15.3191 5.20745 14.4889 5.53738C13.7925 5.81502 13.1926 6.12332 12.7275 6.39555C12.4962 6.52896 12.2515 6.62812 12 6.69122ZM10.6154 6.69122C10.3638 6.62812 10.1191 6.52716 9.88791 6.39374C8.86794 5.8024 7.19982 5.01814 5.29101 4.80901C4.43149 4.71526 3.69231 5.37692 3.69231 6.22066V15.767C3.69231 16.5061 4.27464 17.1227 5.05754 17.1804C6.60893 17.2922 8.01653 17.7465 9.1298 18.2387C9.69683 18.4893 10.1872 18.7489 10.5821 18.9779C10.5933 18.9851 10.6041 18.9905 10.6154 18.9959V6.69122Z" fill="currentColor"/>
</svg>
