<svg width="24" height="24" viewBox="0 0 24 24" fill="none" xmlns="http://www.w3.org/2000/svg">
<path fill-rule="evenodd" clip-rule="evenodd" d="M3.37816 9.84375C3.37816 9.4614 3.68811 9.15144 4.07047 9.15144H18.8779C19.2603 9.15144 19.5703 9.4614 19.5703 9.84375C19.5703 10.2261 19.2603 10.5361 18.8779 10.5361H4.07047C3.68811 10.5361 3.37816 10.2261 3.37816 9.84375Z" fill="currentColor"/>
<path fill-rule="evenodd" clip-rule="evenodd" d="M14.829 3C15.2113 3 15.5213 3.30996 15.5213 3.69231V6.42622C15.5213 6.80857 15.2113 7.11853 14.829 7.11853C14.4466 7.11853 14.1367 6.80857 14.1367 6.42622V3.69231C14.1367 3.30996 14.4466 3 14.829 3Z" fill="currentColor"/>
<path fill-rule="evenodd" clip-rule="evenodd" d="M8.1175 3C8.49985 3 8.80981 3.30996 8.80981 3.69231V6.42622C8.80981 6.80857 8.49985 7.11853 8.1175 7.11853C7.73514 7.11853 7.42519 6.80857 7.42519 6.42622V3.69231C7.42519 3.30996 7.73514 3 8.1175 3Z" fill="currentColor"/>
<path fill-rule="evenodd" clip-rule="evenodd" d="M4.58306 5.49468C5.43139 4.68829 6.61209 4.3125 7.95686 4.3125H14.9911C16.3388 4.3125 17.5202 4.68799 18.3673 5.4953C19.2196 6.30764 19.6435 7.47139 19.6396 8.86276V16.4434C19.6396 17.835 19.2138 18.9998 18.3614 19.8135C17.5139 20.6225 16.3327 21.0004 14.9839 21.0004H7.95686C6.60794 21.0004 5.42573 20.6143 4.57821 19.7929C3.72725 18.9681 3.30109 17.7892 3.30109 16.3806V8.86139C3.30109 7.46923 3.72938 6.30616 4.58306 5.49468ZM5.53702 6.49824C5.01902 6.99062 4.6857 7.75583 4.6857 8.86139V16.3806C4.6857 17.5092 5.02116 18.294 5.54187 18.7986C6.06602 19.3067 6.86555 19.6158 7.95686 19.6158H14.9839C16.0824 19.6158 16.8829 19.3106 17.4053 18.8119C17.9227 18.318 18.255 17.5505 18.255 16.4434V8.8594C18.2582 7.75334 17.9276 6.98902 17.412 6.49761C16.891 6.00106 16.0906 5.69712 14.9911 5.69712H7.95686C6.86139 5.69712 6.06037 6.00077 5.53702 6.49824Z" fill="currentColor"/>
</svg>
