<svg width="24" height="24" viewBox="0 0 24 24" fill="none" xmlns="http://www.w3.org/2000/svg">
<path fill-rule="evenodd" clip-rule="evenodd" d="M2.99459 9.84375C2.99459 9.4614 3.30455 9.15144 3.6869 9.15144H18.6349C19.0172 9.15144 19.3272 9.4614 19.3272 9.84375C19.3272 10.2261 19.0172 10.5361 18.6349 10.5361H3.6869C3.30455 10.5361 2.99459 10.2261 2.99459 9.84375Z" fill="currentColor"/>
<path fill-rule="evenodd" clip-rule="evenodd" d="M14.5182 3C14.9005 3 15.2105 3.30996 15.2105 3.69231V6.42613C15.2105 6.80848 14.9005 7.11844 14.5182 7.11844C14.1358 7.11844 13.8258 6.80848 13.8258 6.42613V3.69231C13.8258 3.30996 14.1358 3 14.5182 3Z" fill="currentColor"/>
<path fill-rule="evenodd" clip-rule="evenodd" d="M7.80558 3C8.18794 3 8.49789 3.30996 8.49789 3.69231V6.42613C8.49789 6.80848 8.18794 7.11844 7.80558 7.11844C7.42324 7.11844 7.11328 6.80848 7.11328 6.42613V3.69231C7.11328 3.30996 7.42324 3 7.80558 3Z" fill="currentColor"/>
<path fill-rule="evenodd" clip-rule="evenodd" d="M4.27108 5.49299C5.11939 4.68648 6.30009 4.3107 7.64481 4.3107H14.6788C16.0265 4.3107 17.2079 4.68618 18.0549 5.49362C18.9073 6.30607 19.3311 7.47001 19.3272 8.86172V11.6526C19.3272 12.0349 19.0172 12.3449 18.6349 12.3449C18.2526 12.3449 17.9426 12.0349 17.9426 11.6526V8.85836C17.9457 7.75182 17.6152 6.98731 17.0995 6.49585C16.5786 5.99924 15.7783 5.69531 14.6788 5.69531H7.64481C6.5494 5.69531 5.74842 5.99895 5.22511 6.49648C4.70715 6.98892 4.3738 7.75432 4.3738 8.86035V16.3783C4.3738 17.5069 4.70923 18.2917 5.22992 18.7963C5.75406 19.3044 6.55355 19.6134 7.64481 19.6134H9.69249C10.0748 19.6134 10.3848 19.9234 10.3848 20.3058C10.3848 20.6881 10.0748 20.9981 9.69249 20.9981H7.64481C6.29594 20.9981 5.11377 20.612 4.26627 19.7906C3.41533 18.9658 2.98918 17.787 2.98918 16.3783V8.86035C2.98918 7.46786 3.41742 6.30459 4.27108 5.49299Z" fill="currentColor"/>
<path fill-rule="evenodd" clip-rule="evenodd" d="M17.1784 14.6392L13.9878 18.1221C13.8408 18.2874 13.749 18.4947 13.7251 18.7146L13.6434 19.4716C13.6342 19.5579 13.7094 19.6275 13.7926 19.6136L14.5258 19.4907C14.7663 19.4501 14.9844 19.3298 15.1444 19.1504L15.1506 19.1433L18.3111 15.6947L18.3134 15.6922C18.4325 15.5635 18.4236 15.3653 18.2971 15.2486L18.2961 15.2477L17.6221 14.6229C17.4953 14.5058 17.2968 14.5126 17.1784 14.6392ZM16.1621 13.6988C16.7998 13.011 17.8742 12.9699 18.5624 13.6066L19.2363 14.2312C19.9261 14.8685 19.9665 15.9428 19.3309 16.6313L16.1744 20.0757C15.8031 20.4905 15.3021 20.764 14.7559 20.856L14.0216 20.9791C13.0325 21.1448 12.1593 20.32 12.2668 19.3232L12.3486 18.566C12.4036 18.058 12.6163 17.5782 12.9583 17.1961L12.9637 17.1901L16.1621 13.6988Z" fill="currentColor"/>
<path fill-rule="evenodd" clip-rule="evenodd" d="M15.4075 14.5148C15.6779 14.2446 16.1163 14.2446 16.3866 14.5151L18.4576 16.587C18.7279 16.8574 18.7278 17.2958 18.4574 17.5661C18.1869 17.8363 17.7486 17.8362 17.4783 17.5659L15.4073 15.4939C15.137 15.2235 15.1371 14.7852 15.4075 14.5148Z" fill="currentColor"/>
<path fill-rule="evenodd" clip-rule="evenodd" d="M6.88251 13.1836C6.88251 12.8012 7.19247 12.4913 7.57482 12.4913C7.95717 12.4913 8.2677 12.8012 8.2677 13.1836C8.2677 13.5659 7.95775 13.8759 7.5754 13.8759C7.19305 13.8759 6.88251 13.5659 6.88251 13.1836Z" fill="currentColor"/>
<path fill-rule="evenodd" clip-rule="evenodd" d="M10.2774 13.1836C10.2774 12.8012 10.5873 12.4913 10.9697 12.4913C11.352 12.4913 11.6625 12.8012 11.6625 13.1836C11.6625 13.5659 11.3526 13.8759 10.9702 13.8759C10.5879 13.8759 10.2774 13.5659 10.2774 13.1836Z" fill="currentColor"/>
<path fill-rule="evenodd" clip-rule="evenodd" d="M6.88251 16.3134C6.88251 15.931 7.19247 15.6211 7.57482 15.6211C7.95717 15.6211 8.2677 15.931 8.2677 16.3134C8.2677 16.6958 7.95775 17.0058 7.5754 17.0058C7.19305 17.0058 6.88251 16.6958 6.88251 16.3134Z" fill="currentColor"/>
</svg>
