<svg width="24" height="24" viewBox="0 0 24 24" fill="none" xmlns="http://www.w3.org/2000/svg">
<path fill-rule="evenodd" clip-rule="evenodd" d="M3.14739 9.84375C3.14739 9.4614 3.45734 9.15144 3.8397 9.15144H18.6472C19.0295 9.15144 19.3395 9.4614 19.3395 9.84375C19.3395 10.2261 19.0295 10.5361 18.6472 10.5361H3.8397C3.45734 10.5361 3.14739 10.2261 3.14739 9.84375Z" fill="currentColor"/>
<path fill-rule="evenodd" clip-rule="evenodd" d="M14.598 3C14.9803 3 15.2903 3.30996 15.2903 3.69231V6.42622C15.2903 6.80857 14.9803 7.11853 14.598 7.11853C14.2156 7.11853 13.9057 6.80857 13.9057 6.42622V3.69231C13.9057 3.30996 14.2156 3 14.598 3Z" fill="currentColor"/>
<path fill-rule="evenodd" clip-rule="evenodd" d="M7.88672 3C8.26907 3 8.57903 3.30996 8.57903 3.69231V6.42622C8.57903 6.80857 8.26907 7.11853 7.88672 7.11853C7.50437 7.11853 7.19442 6.80857 7.19442 6.42622V3.69231C7.19442 3.30996 7.50437 3 7.88672 3Z" fill="currentColor"/>
<path fill-rule="evenodd" clip-rule="evenodd" d="M4.35229 5.49468C5.20062 4.68829 6.38132 4.3125 7.72608 4.3125H14.7603C16.1081 4.3125 17.2894 4.68799 18.1365 5.4953C18.9888 6.30764 19.4127 7.47139 19.4088 8.86276V16.4434C19.4088 17.835 18.983 18.9998 18.1306 19.8135C17.2831 20.6225 16.1019 21.0004 14.7531 21.0004H7.72608C6.37716 21.0004 5.19496 20.6143 4.34744 19.7929C3.49648 18.9681 3.07031 17.7892 3.07031 16.3806V8.86139C3.07031 7.46923 3.49861 6.30616 4.35229 5.49468ZM5.30624 6.49824C4.78825 6.99062 4.45493 7.75583 4.45493 8.86139V16.3806C4.45493 17.5092 4.79038 18.294 5.31109 18.7986C5.83524 19.3067 6.63477 19.6158 7.72608 19.6158H14.7531C15.8516 19.6158 16.6521 19.3106 17.1745 18.8119C17.692 18.318 18.0242 17.5505 18.0242 16.4434V8.8594C18.0274 7.75334 17.6969 6.98902 17.1812 6.49761C16.6602 6.00106 15.8598 5.69712 14.7603 5.69712H7.72608C6.63062 5.69712 5.82959 6.00077 5.30624 6.49824Z" fill="currentColor"/>
<path fill-rule="evenodd" clip-rule="evenodd" d="M10.5514 13.2702C10.5514 12.8878 10.8614 12.5778 11.2437 12.5778C11.6262 12.5778 11.9366 12.8878 11.9366 13.2702C11.9366 13.6525 11.6267 13.9625 11.2443 13.9625C10.8619 13.9625 10.5514 13.6525 10.5514 13.2702Z" fill="currentColor"/>
<path fill-rule="evenodd" clip-rule="evenodd" d="M10.5514 16.4792C10.5514 16.0969 10.8614 15.7869 11.2437 15.7869C11.6262 15.7869 11.9366 16.0969 11.9366 16.4792C11.9366 16.8617 11.6267 17.1715 11.2443 17.1715C10.8619 17.1715 10.5514 16.8617 10.5514 16.4792Z" fill="currentColor"/>
<path fill-rule="evenodd" clip-rule="evenodd" d="M6.84104 13.2702C6.84104 12.8878 7.151 12.5778 7.53335 12.5778C7.91571 12.5778 8.22629 12.8878 8.22629 13.2702C8.22629 13.6525 7.91634 13.9625 7.53398 13.9625C7.15163 13.9625 6.84104 13.6525 6.84104 13.2702Z" fill="currentColor"/>
<path fill-rule="evenodd" clip-rule="evenodd" d="M6.84104 16.4792C6.84104 16.0969 7.151 15.7869 7.53335 15.7869C7.91571 15.7869 8.22629 16.0969 8.22629 16.4792C8.22629 16.8617 7.91634 17.1715 7.53398 17.1715C7.15163 17.1715 6.84104 16.8617 6.84104 16.4792Z" fill="currentColor"/>
<path fill-rule="evenodd" clip-rule="evenodd" d="M14.2527 13.2702C14.2527 12.8878 14.5626 12.5778 14.945 12.5778C15.3273 12.5778 15.6379 12.8878 15.6379 13.2702C15.6379 13.6525 15.328 13.9625 14.9456 13.9625C14.5633 13.9625 14.2527 13.6525 14.2527 13.2702Z" fill="currentColor"/>
<path fill-rule="evenodd" clip-rule="evenodd" d="M14.2527 16.4792C14.2527 16.0969 14.5626 15.7869 14.945 15.7869C15.3273 15.7869 15.6379 16.0969 15.6379 16.4792C15.6379 16.8617 15.328 17.1715 14.9456 17.1715C14.5633 17.1715 14.2527 16.8617 14.2527 16.4792Z" fill="currentColor"/>
</svg>
