<svg width="24" height="24" viewBox="0 0 24 24" fill="none" xmlns="http://www.w3.org/2000/svg">
<path fill-rule="evenodd" clip-rule="evenodd" d="M6.92534 10.2972C6.92534 9.91482 7.2353 9.60486 7.61764 9.60486H15.4602C15.8425 9.60486 16.1525 9.91482 16.1525 10.2972C16.1525 10.6795 15.8425 10.9895 15.4602 10.9895H7.61764C7.2353 10.9895 6.92534 10.6795 6.92534 10.2972Z" fill="currentColor"/>
<path fill-rule="evenodd" clip-rule="evenodd" d="M14.899 3C15.2814 3 15.5913 3.30996 15.5913 3.69231V6.42622C15.5913 6.80857 15.2814 7.11853 14.899 7.11853C14.5167 7.11853 14.2067 6.80857 14.2067 6.42622V3.69231C14.2067 3.30996 14.5167 3 14.899 3Z" fill="currentColor"/>
<path fill-rule="evenodd" clip-rule="evenodd" d="M8.186 3C8.56836 3 8.87831 3.30996 8.87831 3.69231V6.42622C8.87831 6.80857 8.56836 7.11853 8.186 7.11853C7.80365 7.11853 7.49369 6.80857 7.49369 6.42622V3.69231C7.49369 3.30996 7.80365 3 8.186 3Z" fill="currentColor"/>
<path fill-rule="evenodd" clip-rule="evenodd" d="M4.65158 5.49468C5.4999 4.68829 6.6806 4.3125 8.02537 4.3125H15.0595C16.4073 4.3125 17.5887 4.68799 18.4358 5.4953C19.2882 6.30764 19.7119 7.47139 19.7081 8.86276V16.4434C19.7081 17.835 19.2823 18.9998 18.4299 19.8135C17.5824 20.6225 16.4012 21.0004 15.0523 21.0004H8.02537C6.67645 21.0004 5.49424 20.6143 4.64672 19.7929C3.79576 18.9681 3.3696 17.7892 3.3696 16.3806V8.86139C3.3696 7.46923 3.7979 6.30616 4.65158 5.49468ZM5.60553 6.49824C5.08754 6.99062 4.75421 7.75583 4.75421 8.86139V16.3806C4.75421 17.5092 5.08967 18.294 5.61038 18.7986C6.13453 19.3067 6.93406 19.6158 8.02537 19.6158H15.0523C16.1509 19.6158 16.9514 19.3106 17.4739 18.8119C17.9913 18.318 18.3235 17.5505 18.3235 16.4434V8.8594C18.3267 7.75334 17.9961 6.98902 17.4805 6.49761C16.9595 6.00106 16.1592 5.69712 15.0595 5.69712H8.02537C6.92991 5.69712 6.12887 6.00077 5.60553 6.49824Z" fill="currentColor"/>
</svg>
