<svg width="24" height="24" viewBox="0 0 24 24" fill="none" xmlns="http://www.w3.org/2000/svg">
<path fill-rule="evenodd" clip-rule="evenodd" d="M4.42662 5.86091C4.38913 5.90296 4.34986 5.94117 4.3289 5.96156C4.32643 5.96396 4.32422 5.96612 4.32229 5.968L4.31938 5.97084C4.28291 6.00649 4.24808 6.04055 4.20978 6.08088C4.13304 6.16173 4.04733 6.263 3.96787 6.39183C3.81473 6.64012 3.66116 7.02779 3.69778 7.62601C3.77357 8.86412 4.6732 11.0971 8.36014 14.7832C12.0471 18.4693 14.2797 19.3674 15.5173 19.4423C16.1152 19.4784 16.5027 19.3245 16.751 19.1711C16.8798 19.0914 16.9812 19.0056 17.0622 18.9286C17.1023 18.8905 17.1362 18.8559 17.1717 18.8195L17.1753 18.8158C17.1773 18.8139 17.1794 18.8117 17.1817 18.8093C17.2022 18.7882 17.2405 18.7489 17.2828 18.7112C17.9222 18.07 18.2778 17.6124 18.4536 17.2685C18.616 16.9508 18.6036 16.7766 18.5579 16.6385C18.4953 16.4495 18.3305 16.2134 17.9728 15.8466C17.8002 15.6697 17.6012 15.4801 17.3704 15.2607L17.3572 15.248C17.1327 15.0346 16.8829 14.797 16.6187 14.533C16.1904 14.105 15.9082 14.0621 15.6895 14.0785C15.5502 14.0889 15.393 14.1286 15.1914 14.1996C15.0912 14.2349 14.9878 14.2749 14.8724 14.3202C14.861 14.3247 14.8494 14.3292 14.8377 14.3338C14.7346 14.3742 14.622 14.4185 14.5071 14.4605C13.9874 14.6512 13.3273 14.8373 12.5316 14.679C11.7426 14.522 10.9213 14.048 10.0083 13.1353C9.09527 12.2225 8.62098 11.4014 8.46354 10.6123C8.30478 9.81671 8.49028 9.15654 8.68039 8.63656C8.72245 8.52155 8.76652 8.40887 8.80684 8.30579C8.81141 8.29409 8.81595 8.28251 8.82041 8.27108C8.86555 8.15558 8.90554 8.05216 8.94071 7.95192C9.01153 7.75015 9.05107 7.59288 9.06138 7.45353C9.07758 7.23453 9.03441 6.95222 8.6062 6.52402C8.33878 6.25659 8.09863 6.00379 7.88316 5.77697L7.87832 5.77187C7.65882 5.54081 7.4694 5.34161 7.29259 5.16872C6.92603 4.8103 6.6904 4.64517 6.50184 4.58247C6.3645 4.53682 6.19089 4.52406 5.87295 4.68671C5.52845 4.86294 5.06987 5.21948 4.42662 5.86091ZM8.88283 4.81892C9.10051 5.04808 9.33046 5.29011 9.58523 5.54495C10.2447 6.20439 10.4934 6.86513 10.4422 7.5557C10.4189 7.87114 10.335 8.16027 10.2472 8.41043C10.203 8.53616 10.155 8.66009 10.1101 8.77505C10.1056 8.78657 10.101 8.79799 10.0966 8.80932C10.0555 8.91439 10.0172 9.01242 9.98077 9.11203C9.82218 9.54577 9.73671 9.91696 9.82135 10.3414C9.90738 10.7725 10.191 11.3601 10.9872 12.1561C11.7834 12.9521 12.371 13.2353 12.8018 13.321C13.2259 13.4054 13.5968 13.3196 14.0303 13.1607C14.1299 13.1241 14.2279 13.0857 14.333 13.0445C14.3442 13.04 14.3557 13.0356 14.3671 13.0311C14.4821 12.986 14.6059 12.9378 14.7316 12.8935C14.9816 12.8056 15.2707 12.7214 15.5862 12.6977C16.2767 12.6461 16.9376 12.8943 17.5974 13.5535C17.8494 13.8053 18.0886 14.0329 18.3152 14.2484L18.3246 14.2573C18.5511 14.4727 18.7698 14.6809 18.964 14.8798C19.3396 15.2649 19.7034 15.693 19.8724 16.2034C20.0581 16.7645 19.98 17.3247 19.6865 17.8987C19.4081 18.4433 18.9226 19.0295 18.2442 19.7079C18.2307 19.7214 18.2166 19.7345 18.202 19.7468C18.1997 19.7491 18.1891 19.7595 18.1653 19.7838L18.159 19.7902C18.1247 19.8254 18.075 19.8762 18.016 19.9324C17.8882 20.0537 17.7114 20.2052 17.4788 20.349C17.0043 20.6422 16.3357 20.8789 15.4337 20.8243C13.6714 20.7178 11.1291 19.5093 7.38119 15.7624C3.63329 12.0154 2.42364 9.47298 2.31576 7.71061C2.26054 6.80861 2.49654 6.13978 2.78939 5.66497C2.93291 5.43227 3.08431 5.25534 3.20564 5.12755C3.26213 5.06804 3.31316 5.01817 3.34844 4.9837C3.35046 4.98172 3.35243 4.9798 3.35434 4.97794C3.37902 4.9538 3.38937 4.94322 3.3916 4.94108C3.40389 4.92659 3.41676 4.91261 3.4302 4.89918C4.11023 4.21914 4.69744 3.73278 5.24236 3.45402C5.81692 3.1601 6.37736 3.08195 6.93868 3.26857C7.44876 3.43817 7.87636 3.803 8.2606 4.17872C8.45825 4.37197 8.66511 4.58973 8.87908 4.81499L8.88283 4.81892Z" fill="black"/>
<path fill-rule="evenodd" clip-rule="evenodd" d="M12.9034 6.76427C12.9762 6.38892 13.3397 6.1437 13.715 6.21655C15.51 6.56493 16.9132 7.96812 17.2616 9.76317C17.3345 10.1385 17.0892 10.5019 16.7139 10.5747C16.3386 10.6475 15.9752 10.4023 15.9023 10.027C15.6616 8.7863 14.6919 7.81659 13.4512 7.5758C13.0758 7.50296 12.8306 7.13961 12.9034 6.76427Z" fill="black"/>
<path fill-rule="evenodd" clip-rule="evenodd" d="M12.8949 3.78364C12.9371 3.40363 13.2794 3.12976 13.6594 3.17195C17.1523 3.55973 19.9112 6.31567 20.3029 9.80852C20.3455 10.1885 20.072 10.5311 19.6921 10.5737C19.3122 10.6163 18.9695 10.3428 18.927 9.96284C18.6073 7.11299 16.3564 4.86448 13.5067 4.54811C13.1266 4.50592 12.8527 4.16366 12.8949 3.78364Z" fill="black"/>
</svg>
