<svg width="196" height="108" viewBox="0 0 196 108" fill="none" xmlns="http://www.w3.org/2000/svg">
<rect x="0.5" y="0.5" width="195" height="107" rx="4.5" stroke="#9747FF" stroke-dasharray="10 5"/>
<path fill-rule="evenodd" clip-rule="evenodd" d="M161.47 27.4697C161.763 27.1768 162.237 27.1768 162.53 27.4697L166.53 31.4697C166.823 31.7626 166.823 32.2374 166.53 32.5303L162.53 36.5303C162.237 36.8232 161.763 36.8232 161.47 36.5303C161.177 36.2374 161.177 35.7626 161.47 35.4697L164.939 32L161.47 28.5303C161.177 28.2374 161.177 27.7626 161.47 27.4697Z" fill="currentColor"/>
<path fill-rule="evenodd" clip-rule="evenodd" d="M122.53 27.4697C122.823 27.7626 122.823 28.2374 122.53 28.5303L119.061 32L122.53 35.4697C122.823 35.7626 122.823 36.2374 122.53 36.5303C122.237 36.8232 121.763 36.8232 121.47 36.5303L117.47 32.5303C117.177 32.2374 117.177 31.7626 117.47 31.4697L121.47 27.4697C121.763 27.1768 122.237 27.1768 122.53 27.4697Z" fill="currentColor"/>
<path fill-rule="evenodd" clip-rule="evenodd" d="M31.4697 73.4697C31.7626 73.1768 32.2374 73.1768 32.5303 73.4697L35.5303 76.4697C35.8232 76.7626 35.8232 77.2374 35.5303 77.5303C35.2374 77.8232 34.7626 77.8232 34.4697 77.5303L32 75.0607L29.5303 77.5303C29.2374 77.8232 28.7626 77.8232 28.4697 77.5303C28.1768 77.2374 28.1768 76.7626 28.4697 76.4697L31.4697 73.4697Z" fill="currentColor"/>
<path fill-rule="evenodd" clip-rule="evenodd" d="M31.4697 29.4697C31.7626 29.1768 32.2374 29.1768 32.5303 29.4697L36.5303 33.4697C36.8232 33.7626 36.8232 34.2374 36.5303 34.5303C36.2374 34.8232 35.7626 34.8232 35.4697 34.5303L32 31.0607L28.5303 34.5303C28.2374 34.8232 27.7626 34.8232 27.4697 34.5303C27.1768 34.2374 27.1768 33.7626 27.4697 33.4697L31.4697 29.4697Z" fill="currentColor"/>
<path fill-rule="evenodd" clip-rule="evenodd" d="M121.53 72.4697C121.823 72.7626 121.823 73.2374 121.53 73.5303L119.061 76L121.53 78.4697C121.823 78.7626 121.823 79.2374 121.53 79.5303C121.237 79.8232 120.763 79.8232 120.47 79.5303L117.47 76.5303C117.177 76.2374 117.177 75.7626 117.47 75.4697L120.47 72.4697C120.763 72.1768 121.237 72.1768 121.53 72.4697Z" fill="currentColor"/>
<path fill-rule="evenodd" clip-rule="evenodd" d="M162.47 72.4697C162.763 72.1768 163.237 72.1768 163.53 72.4697L166.53 75.4697C166.823 75.7626 166.823 76.2374 166.53 76.5303L163.53 79.5303C163.237 79.8232 162.763 79.8232 162.47 79.5303C162.177 79.2374 162.177 78.7626 162.47 78.4697L164.939 76L162.47 73.5303C162.177 73.2374 162.177 72.7626 162.47 72.4697Z" fill="currentColor"/>
<path fill-rule="evenodd" clip-rule="evenodd" d="M72.4697 74.4697C72.7626 74.1768 73.2374 74.1768 73.5303 74.4697L76 76.9393L78.4697 74.4697C78.7626 74.1768 79.2374 74.1768 79.5303 74.4697C79.8232 74.7626 79.8232 75.2374 79.5303 75.5303L76.5303 78.5303C76.2374 78.8232 75.7626 78.8232 75.4697 78.5303L72.4697 75.5303C72.1768 75.2374 72.1768 74.7626 72.4697 74.4697Z" fill="currentColor"/>
<path fill-rule="evenodd" clip-rule="evenodd" d="M71.4697 29.4697C71.7626 29.1768 72.2374 29.1768 72.5303 29.4697L76 32.9393L79.4697 29.4697C79.7626 29.1768 80.2374 29.1768 80.5303 29.4697C80.8232 29.7626 80.8232 30.2374 80.5303 30.5303L76.5303 34.5303C76.2374 34.8232 75.7626 34.8232 75.4697 34.5303L71.4697 30.5303C71.1768 30.2374 71.1768 29.7626 71.4697 29.4697Z" fill="currentColor"/>
</svg>
