<svg width="24" height="24" viewBox="0 0 24 24" fill="none" xmlns="http://www.w3.org/2000/svg">
<path fill-rule="evenodd" clip-rule="evenodd" d="M11.3077 4.38462C7.10148 4.38462 3.69229 7.79381 3.69229 12C3.69229 16.2054 7.10154 19.6154 11.3077 19.6154C15.5139 19.6154 18.9231 16.2054 18.9231 12C18.9231 7.79381 15.5139 4.38462 11.3077 4.38462ZM2.30768 12C2.30768 7.02911 6.33679 3 11.3077 3C16.2785 3 20.3077 7.02911 20.3077 12C20.3077 16.9699 16.2786 21 11.3077 21C6.33673 21 2.30768 16.9699 2.30768 12Z" fill="currentColor"/>
<path fill-rule="evenodd" clip-rule="evenodd" d="M14.9936 9.37946C15.2639 9.64982 15.2639 10.0882 14.9936 10.3585L10.731 14.6211C10.4608 14.8914 10.0225 14.8914 9.75211 14.6212L7.61993 12.4899C7.34951 12.2196 7.34941 11.7812 7.61972 11.5109C7.89003 11.2404 8.32837 11.2403 8.59879 11.5106L10.2414 13.1526L14.0145 9.37946C14.2849 9.10909 14.7232 9.10909 14.9936 9.37946Z" fill="currentColor"/>
</svg>
