<svg width="24" height="24" viewBox="0 0 24 24" fill="none" xmlns="http://www.w3.org/2000/svg">
<path fill-rule="evenodd" clip-rule="evenodd" d="M11.3077 4.38462C7.10148 4.38462 3.69229 7.79381 3.69229 12C3.69229 16.2054 7.10154 19.6154 11.3077 19.6154C15.5139 19.6154 18.9231 16.2054 18.9231 12C18.9231 7.79381 15.5139 4.38462 11.3077 4.38462ZM2.30768 12C2.30768 7.02911 6.33679 3 11.3077 3C16.2785 3 20.3077 7.02911 20.3077 12C20.3077 16.9699 16.2786 21 11.3077 21C6.33673 21 2.30768 16.9699 2.30768 12Z" fill="currentColor"/>
<path fill-rule="evenodd" clip-rule="evenodd" d="M11.0048 8.14723C11.3872 8.14723 11.6971 8.45719 11.6971 8.83954V12.2297L14.2905 13.7795C14.6188 13.9757 14.7259 14.4007 14.5297 14.729C14.3335 15.0571 13.9085 15.1642 13.5802 14.9681L10.6496 13.2167C10.4406 13.0917 10.3125 12.8661 10.3125 12.6224V8.83954C10.3125 8.45719 10.6225 8.14723 11.0048 8.14723Z" fill="currentColor"/>
</svg>
