<svg width="24" height="24" viewBox="0 0 24 24" fill="none" xmlns="http://www.w3.org/2000/svg">
<path fill-rule="evenodd" clip-rule="evenodd" d="M12 3.7139C7.62562 3.7139 4.08 7.26036 4.08 11.634C4.08 16.0084 7.62556 19.554 12 19.554C16.3744 19.554 19.92 16.0084 19.92 11.634C19.92 7.26036 16.3744 3.7139 12 3.7139ZM2.64 11.634C2.64 6.46517 6.83022 2.2739 12 2.2739C17.1698 2.2739 21.36 6.46517 21.36 11.634C21.36 16.8036 17.1697 20.994 12 20.994C6.83028 20.994 2.64 16.8036 2.64 11.634Z" fill="currentColor" width="24" height="24"/>
<path fill-rule="evenodd" clip-rule="evenodd" d="M12 2.2739C12.3976 2.2739 12.72 2.59626 12.72 2.9939V10.7933L20.4248 9.59496C20.8177 9.53385 21.1858 9.80285 21.2468 10.1958C21.308 10.5887 21.039 10.9568 20.646 11.0178L13.0542 12.1986L16.2778 19.1742C16.4445 19.5351 16.2872 19.963 15.9262 20.1298C15.5652 20.2966 15.1374 20.1393 14.9705 19.7783L11.3464 11.936C11.3027 11.8413 11.28 11.7382 11.28 11.634V2.9939C11.28 2.59626 11.6024 2.2739 12 2.2739Z" fill="currentColor" width="24" height="24"/>
</svg>
