<svg width="24" height="24" viewBox="0 0 24 24" fill="none" xmlns="http://www.w3.org/2000/svg">
<path fill-rule="evenodd" clip-rule="evenodd" d="M9.16301 4.38462C8.85382 4.38462 8.60336 4.63507 8.60336 4.94425V5.47323C8.60336 5.78241 8.85382 6.03287 9.16301 6.03287H13.4523C13.7615 6.03287 14.0119 5.78241 14.0119 5.47323V4.94425C14.0119 4.63507 13.7615 4.38462 13.4523 4.38462H9.16301ZM7.21875 4.94425C7.21875 3.87037 8.08912 3 9.16301 3H13.4523C14.5262 3 15.3966 3.87037 15.3966 4.94425V5.47323C15.3966 6.54712 14.5262 7.41749 13.4523 7.41749H9.16301C8.08912 7.41749 7.21875 6.54712 7.21875 5.47323V4.94425Z" fill="currentColor"/>
<path fill-rule="evenodd" clip-rule="evenodd" d="M7.91166 5.85577C6.38017 5.85577 5.13822 7.09772 5.13822 8.62921V16.8423C5.13822 18.3738 6.38017 19.6158 7.91166 19.6158H14.7049C16.2364 19.6158 17.4783 18.3738 17.4783 16.8423V8.62921C17.4783 7.09772 16.2364 5.85577 14.7049 5.85577C14.3225 5.85577 14.0126 5.54581 14.0126 5.16346C14.0126 4.78111 14.3225 4.47115 14.7049 4.47115C17.001 4.47115 18.8629 6.33302 18.8629 8.62921V16.8423C18.8629 19.1385 17.001 21.0004 14.7049 21.0004H7.91166C5.61547 21.0004 3.75361 19.1385 3.75361 16.8423V8.62921C3.75361 6.33302 5.61547 4.47115 7.91166 4.47115C8.29401 4.47115 8.60397 4.78111 8.60397 5.16346C8.60397 5.54581 8.29401 5.85577 7.91166 5.85577Z" fill="currentColor"/>
<path fill-rule="evenodd" clip-rule="evenodd" d="M7.82993 11.0228C7.82993 10.6405 8.13989 10.3305 8.52223 10.3305H11.3072C11.6896 10.3305 11.9995 10.6405 11.9995 11.0228C11.9995 11.4052 11.6896 11.7151 11.3072 11.7151H8.52223C8.13989 11.7151 7.82993 11.4052 7.82993 11.0228ZM7.82993 14.7213C7.82993 14.339 8.13989 14.029 8.52223 14.029H14.0922C14.4746 14.029 14.7846 14.339 14.7846 14.7213C14.7846 15.1037 14.4746 15.4136 14.0922 15.4136H8.52223C8.13989 15.4136 7.82993 15.1037 7.82993 14.7213Z" fill="currentColor"/>
</svg>
