<svg width="24" height="24" viewBox="0 0 24 24" fill="none" xmlns="http://www.w3.org/2000/svg">
<path fill-rule="evenodd" clip-rule="evenodd" d="M11.3077 4.38462C7.10155 4.38462 3.69235 7.79381 3.69235 12C3.69235 16.2054 7.1016 19.6154 11.3077 19.6154C15.5139 19.6154 18.9231 16.2054 18.9231 12C18.9231 7.79381 15.5139 4.38462 11.3077 4.38462ZM2.30774 12C2.30774 7.02911 6.33685 3 11.3077 3C16.2786 3 20.3077 7.02911 20.3077 12C20.3077 16.9699 16.2787 21 11.3077 21C6.33679 21 2.30774 16.9699 2.30774 12Z" fill="currentColor"/>
<path fill-rule="evenodd" clip-rule="evenodd" d="M11.0048 8.14722C11.3871 8.14722 11.6971 8.45718 11.6971 8.83952V12.2296L14.2905 13.7795C14.6187 13.9756 14.7258 14.4007 14.5297 14.729C14.3335 15.0571 13.9084 15.1642 13.5802 14.968L10.6496 13.2167C10.4405 13.0917 10.3125 12.8661 10.3125 12.6224V8.83952C10.3125 8.45718 10.6225 8.14722 11.0048 8.14722Z" fill="currentColor"/>
</svg>
