<svg width="24" height="24" viewBox="0 0 24 24" fill="none" xmlns="http://www.w3.org/2000/svg">
<path d="M6.02799 5.972C5.75763 5.70164 5.31928 5.70164 5.04892 5.972C4.77856 6.24236 4.77856 6.68071 5.04892 6.95107L10.0978 12L5.04892 17.049C4.77856 17.3193 4.77856 17.7576 5.04892 18.028C5.31928 18.2983 5.75763 18.2983 6.02799 18.028L11.0769 12.9791L16.1259 18.028C16.3962 18.2983 16.8345 18.2983 17.1049 18.028C17.3753 17.7576 17.3753 17.3193 17.1049 17.049L12.056 12L17.1049 6.95107C17.3753 6.68071 17.3753 6.24236 17.1049 5.972C16.8345 5.70164 16.3962 5.70164 16.1259 5.972L11.0769 11.0209L6.02799 5.972Z" fill="currentColor"/>
</svg>
