<svg width="24" height="24" viewBox="0 0 24 24" fill="none" xmlns="http://www.w3.org/2000/svg">
<path fill-rule="evenodd" clip-rule="evenodd" d="M7.09212 8.5893C7.33688 8.88304 7.29717 9.31958 7.00343 9.56433L4.08138 11.9992L7.0035 14.4347C7.29722 14.6795 7.33686 15.116 7.09206 15.4098C6.84725 15.7035 6.4107 15.7432 6.11699 15.4983L2.55674 12.5309C2.39892 12.3993 2.30767 12.2045 2.30769 11.999C2.30771 11.7935 2.39897 11.5987 2.55682 11.4672L6.11707 8.50061C6.41082 8.25584 6.84736 8.29554 7.09212 8.5893Z" fill="currentColor"/>
<path fill-rule="evenodd" clip-rule="evenodd" d="M15.5228 8.5893C15.7676 8.29554 16.2042 8.25584 16.4979 8.50061L20.0581 11.4672C20.2159 11.5987 20.3072 11.7935 20.3072 11.999C20.3073 12.2045 20.216 12.3993 20.0582 12.5309L16.498 15.4983C16.2042 15.7432 15.7677 15.7035 15.5229 15.4098C15.2781 15.116 15.3177 14.6795 15.6114 14.4347L18.5335 11.9992L15.6115 9.56433C15.3178 9.31958 15.278 8.88304 15.5228 8.5893Z" fill="currentColor"/>
<path fill-rule="evenodd" clip-rule="evenodd" d="M13.9177 4.82312C14.277 4.95379 14.4624 5.35101 14.3317 5.71035L9.58412 18.7658C9.45341 19.1251 9.05621 19.3105 8.69688 19.1798C8.33755 19.0492 8.15219 18.652 8.28286 18.2926L13.0304 5.23715C13.1611 4.87782 13.5583 4.69245 13.9177 4.82312Z" fill="currentColor"/>
</svg>
