<svg width="24" height="24" viewBox="0 0 24 24" fill="none" xmlns="http://www.w3.org/2000/svg">
<path d="M11.3098 21.0007C9.34247 20.9984 7.42984 20.353 5.86334 19.1628C4.29685 17.9726 3.16243 16.3029 2.63294 14.4081C2.58398 14.2312 2.60734 14.0419 2.69787 13.8821C2.78841 13.7224 2.93869 13.605 3.11569 13.5561C3.29269 13.5072 3.48191 13.5306 3.64168 13.621C3.80147 13.7116 3.91873 13.8619 3.96769 14.0389C4.44165 15.7332 5.48822 17.2109 6.92922 18.2202C8.37022 19.2296 10.1166 19.7083 11.8708 19.5748C13.6251 19.4413 15.2789 18.7038 16.5505 17.4881C17.8221 16.2722 18.6331 14.6532 18.8452 12.9066C19.0572 11.1602 18.6574 9.3941 17.7137 7.90927C16.77 6.42444 15.3408 5.31261 13.6695 4.76312C11.9982 4.21362 10.188 4.26044 8.54727 4.89559C6.90658 5.53074 5.53676 6.71496 4.67108 8.24659C4.57361 8.39159 4.42495 8.49438 4.25486 8.53434C4.08478 8.5743 3.90587 8.54847 3.75403 8.46205C3.60219 8.37562 3.48864 8.23497 3.43616 8.06832C3.38368 7.90167 3.39616 7.72135 3.47109 7.56351C4.27941 6.1366 5.46227 4.9577 6.89189 4.15418C8.32152 3.35066 9.94357 2.95309 11.5827 3.00441C13.2219 3.05572 14.8159 3.55398 16.1923 4.44534C17.5689 5.33671 18.6758 6.5873 19.3932 8.06198C20.0598 9.43289 20.3672 10.9506 20.2868 12.4729C20.2064 13.9951 19.7407 15.472 18.9335 16.765C18.1263 18.0582 17.0038 19.125 15.6715 19.8657C14.3393 20.6064 12.8407 20.9967 11.3163 20.9998L11.3098 21.0007Z" fill="currentColor"/>
<path d="M6.87508 8.60084H3.84646C3.66285 8.60084 3.48675 8.5279 3.35692 8.39807C3.22709 8.26824 3.15415 8.09214 3.15415 7.90853V4.86238C3.15415 4.67877 3.22709 4.50267 3.35692 4.37284C3.48675 4.24301 3.66285 4.17007 3.84646 4.17007C4.03007 4.17007 4.20616 4.24301 4.336 4.37284C4.46583 4.50267 4.53877 4.67877 4.53877 4.86238V7.21622H6.87508C7.05869 7.21622 7.23476 7.28917 7.36459 7.419C7.49442 7.54884 7.56739 7.72492 7.56739 7.90853C7.56739 8.09214 7.49442 8.26824 7.36459 8.39807C7.23476 8.5279 7.05869 8.60084 6.87508 8.60084Z" fill="currentColor"/>
<path d="M8.52036 15.0621C8.36905 15.0618 8.22199 15.0121 8.10167 14.9203C7.98133 14.8287 7.89435 14.7001 7.85405 14.5542C7.81374 14.4084 7.82233 14.2533 7.87848 14.1128C7.93463 13.9723 8.03524 13.8541 8.16496 13.7763L10.7579 12.2264V8.83594C10.7579 8.65232 10.8308 8.47623 10.9606 8.3464C11.0905 8.21657 11.2665 8.14363 11.4502 8.14363C11.6338 8.14363 11.8099 8.21657 11.9397 8.3464C12.0695 8.47623 12.1425 8.65232 12.1425 8.83594V12.6206C12.1428 12.7404 12.112 12.8582 12.0529 12.9625C11.9937 13.0667 11.9085 13.1538 11.8056 13.215L8.87572 14.9689C8.76785 15.0315 8.64506 15.0637 8.52036 15.0621Z" fill="currentColor"/>
</svg>
