<svg width="24" height="24" viewBox="0 0 24 24" fill="none" xmlns="http://www.w3.org/2000/svg">
<path fill-rule="evenodd" clip-rule="evenodd" d="M3.61929 11.9997V6.46154H5.00391V11.979C5.00443 11.9829 5.00526 11.9886 5.00657 11.9958C5.01203 12.026 5.02575 12.0848 5.05895 12.1638C5.12349 12.317 5.27093 12.5684 5.61576 12.8414C6.31561 13.3954 7.88215 14.0764 11.3073 14.0764C14.7324 14.0764 16.299 13.3954 16.9988 12.8414C17.3437 12.5684 17.4911 12.317 17.5556 12.1638C17.5889 12.0848 17.6025 12.026 17.608 11.9958C17.6094 11.9886 17.6102 11.9829 17.6106 11.979V6.46154H18.9953V11.9997H18.303C18.9953 11.9997 18.9953 12.0015 18.9953 12.0015V12.0071L18.9951 12.0156L18.9945 12.0359C18.9939 12.0508 18.9929 12.0686 18.9911 12.0889C18.9877 12.1297 18.9815 12.1811 18.9706 12.2417C18.9487 12.3629 18.9078 12.5203 18.8317 12.7011C18.6776 13.067 18.3879 13.5078 17.8582 13.927C16.8091 14.7575 14.8779 15.461 11.3073 15.461C7.73674 15.461 5.80543 14.7575 4.75636 13.927C4.22673 13.5078 3.93693 13.067 3.78286 12.7011C3.70675 12.5203 3.66583 12.3629 3.64396 12.2417C3.63304 12.1811 3.62687 12.1297 3.62344 12.0889C3.62172 12.0686 3.62069 12.0508 3.62008 12.0359L3.61946 12.0156L3.61933 12.0071L3.6193 12.0033L3.61929 12.0015C3.61929 12.0015 3.61929 11.9997 4.3116 11.9997H3.61929Z" fill="currentColor"/>
<path fill-rule="evenodd" clip-rule="evenodd" d="M3.6202 17.5381L3.61929 11.9997L5.00481 12V17.5174C5.00532 17.5213 5.00616 17.5269 5.00747 17.5342C5.01295 17.5645 5.02667 17.6234 5.05989 17.7023C5.12445 17.8557 5.27192 18.1073 5.61676 18.3804C6.3166 18.9345 7.8831 19.6158 11.3082 19.6158C14.7333 19.6158 16.2998 18.9345 16.9997 18.3804C17.3444 18.1073 17.4919 17.8557 17.5565 17.7023C17.5897 17.6234 17.6034 17.5645 17.6089 17.5342C17.6102 17.5269 17.611 17.5213 17.6116 17.5174V12L18.9953 11.9997L18.9962 17.5381H18.3039C18.9962 17.5381 18.9962 17.5398 18.9962 17.5398V17.5455L18.996 17.554L18.9954 17.5742C18.9948 17.5891 18.9938 17.6069 18.992 17.6273C18.9886 17.6681 18.9824 17.7195 18.9715 17.78C18.9497 17.9012 18.9088 18.0587 18.8326 18.2395C18.6786 18.6054 18.3888 19.0464 17.8592 19.4658C16.8102 20.2966 14.8788 21.0004 11.3082 21.0004C7.7376 21.0004 5.80625 20.2966 4.75716 19.4658C4.22754 19.0464 3.93777 18.6054 3.78372 18.2395C3.70764 18.0587 3.66671 17.9012 3.64485 17.78C3.63393 17.7195 3.62778 17.6681 3.62434 17.6273C3.62263 17.6069 3.62159 17.5891 3.62098 17.5742L3.62035 17.554L3.62023 17.5455L3.6202 17.5417V17.5398C3.6202 17.5398 3.6202 17.5381 4.31251 17.5381H3.6202Z" fill="currentColor"/>
<path fill-rule="evenodd" clip-rule="evenodd" d="M5.3369 5.89823C5.06911 6.15042 5.00481 6.34697 5.00481 6.47892C5.00481 6.61086 5.06911 6.80741 5.3369 7.0596C5.60603 7.31306 6.03278 7.5732 6.61769 7.80618C7.78355 8.27058 9.4416 8.57322 11.3082 8.57322C13.1748 8.57322 14.8328 8.27058 15.9987 7.80618C16.5836 7.5732 17.0104 7.31306 17.2794 7.0596C17.5472 6.80741 17.6116 6.61086 17.6116 6.47892C17.6116 6.34697 17.5472 6.15042 17.2794 5.89823C17.0104 5.64477 16.5836 5.38463 15.9987 5.15165C14.8328 4.68725 13.1748 4.38462 11.3082 4.38462C9.4416 4.38462 7.78355 4.68725 6.61769 5.15165C6.03278 5.38463 5.60603 5.64477 5.3369 5.89823ZM6.1053 3.86533C7.47137 3.32118 9.31117 3 11.3082 3C13.3052 3 15.145 3.32118 16.5111 3.86533C17.1921 4.13662 17.7899 4.47694 18.2287 4.89025C18.669 5.30483 18.9962 5.84137 18.9962 6.47892C18.9962 7.11646 18.669 7.653 18.2287 8.06758C17.7899 8.48089 17.1921 8.82121 16.5111 9.0925C15.145 9.63666 13.3052 9.95783 11.3082 9.95783C9.31117 9.95783 7.47137 9.63666 6.1053 9.0925C5.42423 8.82121 4.82648 8.48089 4.38762 8.06758C3.9474 7.653 3.6202 7.11646 3.6202 6.47892C3.6202 5.84137 3.9474 5.30483 4.38762 4.89025C4.82648 4.47694 5.42423 4.13662 6.1053 3.86533Z" fill="currentColor"/>
</svg>
