<svg width="24" height="24" viewBox="0 0 24 24" fill="none" xmlns="http://www.w3.org/2000/svg">
<path fill-rule="evenodd" clip-rule="evenodd" d="M10.471 4.33499C10.1868 4.33499 9.9288 4.50059 9.81043 4.75886L9.02493 6.47226C8.90762 6.72816 8.65193 6.89222 8.37043 6.89222H5.83659C5.45515 6.89222 5.14593 7.20144 5.14593 7.58287V8.62754C5.14593 8.76256 5.25539 8.87201 5.39041 8.87201H18.6094C18.7444 8.87201 18.8538 8.76256 18.8538 8.62754V7.58287C18.8538 7.20144 18.5446 6.89222 18.1632 6.89222H15.6294C15.3478 6.89222 15.0922 6.72816 14.9748 6.47226L14.1894 4.75886C14.0709 4.50059 13.8129 4.33499 13.5288 4.33499H10.471ZM8.5014 4.15878C8.85442 3.3887 9.6239 2.89499 10.471 2.89499H13.5288C14.3759 2.89499 15.1453 3.3887 15.4983 4.15878L16.0913 5.45222H18.1632C19.3399 5.45222 20.2938 6.40614 20.2938 7.58287V8.62754C20.2938 9.55785 19.5396 10.312 18.6094 10.312H5.39041C4.4601 10.312 3.70593 9.55785 3.70593 8.62754V7.58287C3.70593 6.40615 4.65986 5.45222 5.83659 5.45222H7.90845L8.5014 4.15878Z" fill="currentColor"/>
<path fill-rule="evenodd" clip-rule="evenodd" d="M5.90437 8.94375C6.30201 8.94375 6.62437 9.2661 6.62437 9.66374V18.002C6.62437 19.2108 7.58981 20.1755 8.76188 20.1755H15.2388C16.4109 20.1755 17.3764 19.2108 17.3764 18.002V9.66374C17.3764 9.2661 17.6987 8.94375 18.0964 8.94375C18.494 8.94375 18.8164 9.2661 18.8164 9.66374V18.002C18.8164 19.9891 17.2232 21.6155 15.2388 21.6155H8.76188C6.77763 21.6155 5.18437 19.9891 5.18437 18.002V9.66374C5.18437 9.2661 5.50673 8.94375 5.90437 8.94375Z" fill="currentColor"/>
<path fill-rule="evenodd" clip-rule="evenodd" d="M10.3772 12.3187C10.7748 12.3187 11.0972 12.6411 11.0972 13.0387V17.3668C11.0972 17.7644 10.7748 18.0868 10.3772 18.0868C9.97958 18.0868 9.65721 17.7644 9.65721 17.3668V13.0387C9.65721 12.6411 9.97958 12.3187 10.3772 12.3187ZM13.6224 12.3187C14.02 12.3187 14.3424 12.6411 14.3424 13.0387V17.3668C14.3424 17.7644 14.02 18.0868 13.6224 18.0868C13.2248 18.0868 12.9024 17.7644 12.9024 17.3668V13.0387C12.9024 12.6411 13.2248 12.3187 13.6224 12.3187Z" fill="currentColor"/>
</svg>
