<svg width="24" height="24" viewBox="0 0 24 24" fill="none" xmlns="http://www.w3.org/2000/svg">
<path fill-rule="evenodd" clip-rule="evenodd" d="M7.74097 3.00004H12.9558C13.6589 3.00004 14.3326 3.28542 14.8205 3.79396L18.3212 7.44034C18.7815 7.92133 19.0406 8.56219 19.0406 9.2293V16.7641C19.0553 19.034 17.2684 20.907 15.0004 20.9994C14.9951 20.9996 14.9899 20.9998 14.9847 20.9999C14.9804 21 14.9763 21 14.9721 21L7.65603 20.9991L7.64075 20.9989C5.3482 20.9483 3.52973 19.0508 3.57598 16.7591V7.0675L3.57619 7.05099C3.63007 4.79218 5.48112 2.99117 7.74097 3.00004ZM14.9574 19.6154C16.4741 19.5465 17.6668 18.2912 17.656 16.7713L17.6559 16.7664V9.2293C17.6559 8.92125 17.5362 8.62285 17.3213 8.39798L13.8216 4.7529C13.5964 4.51798 13.2838 4.38466 12.9558 4.38466H7.73659C6.23299 4.37819 5.00059 5.57425 4.9606 7.07622V16.7664L4.96043 16.7816C4.92671 18.31 6.13669 19.5769 7.6641 19.6145L14.9574 19.6154Z" fill="currentColor"/>
<path fill-rule="evenodd" clip-rule="evenodd" d="M7.77404 11.6971C7.77404 11.3148 8.08399 11.0048 8.46635 11.0048H11.5047C11.8871 11.0048 12.197 11.3148 12.197 11.6971C12.197 12.0795 11.8871 12.3894 11.5047 12.3894H8.46635C8.08399 12.3894 7.77404 12.0795 7.77404 11.6971ZM7.77535 15.0949C7.77535 14.7126 8.08531 14.4026 8.46766 14.4026H13.3562C13.7385 14.4026 14.0485 14.7126 14.0485 15.0949C14.0485 15.4772 13.7385 15.7872 13.3562 15.7872H8.46766C8.08531 15.7872 7.77535 15.4772 7.77535 15.0949Z" fill="currentColor"/>
<path fill-rule="evenodd" clip-rule="evenodd" d="M13.4026 3.0577C13.785 3.0577 14.0949 3.36766 14.0949 3.75V6.42013C14.0943 7.34072 14.8398 8.08858 15.7611 8.0908H18.2885C18.6708 8.0908 18.9808 8.40076 18.9808 8.78311C18.9808 9.16546 18.6708 9.47542 18.2885 9.47542H15.7588C14.0742 9.47194 12.7095 8.1055 12.7103 6.42013V3.75C12.7103 3.36766 13.0203 3.0577 13.4026 3.0577Z" fill="currentColor"/>
</svg>
