<svg width="24" height="24" viewBox="0 0 24 24" fill="none" xmlns="http://www.w3.org/2000/svg">
<path fill-rule="evenodd" clip-rule="evenodd" d="M7.61985 4.38462C7.24555 4.38462 6.94223 4.68822 6.94223 5.06131V5.9226C6.94223 6.29568 7.24553 6.59928 7.61982 6.59931C7.61981 6.59931 7.61983 6.59931 7.61982 6.59931L8.03255 6.59927C8.04126 6.59895 8.05001 6.59878 8.0588 6.59878C8.06755 6.59878 8.07626 6.59895 8.08494 6.59927L14.5558 6.59878L14.9957 6.59931C14.9956 6.59931 14.9958 6.59931 14.9957 6.59931C15.3693 6.59918 15.6724 6.29622 15.6724 5.9226V5.06131C15.6724 4.68762 15.3694 4.38462 14.9957 4.38462H7.61985ZM13.8635 7.98345L8.7511 7.98383V9.46784C8.7511 9.81274 8.66793 10.1526 8.50812 10.4586L7.02834 13.288C6.97213 13.3956 6.94268 13.5154 6.94268 13.6376C6.94268 14.0532 7.27927 14.39 7.696 14.39H14.9195C15.3363 14.39 15.6729 14.0532 15.6729 13.6376C15.6729 13.5154 15.6434 13.3956 15.5872 13.288L14.1076 10.4589C13.9487 10.1546 13.8635 9.81458 13.8635 9.46784V7.98345ZM7.36649 7.9685C6.34795 7.84363 5.55762 6.97575 5.55762 5.9226V5.06131C5.55762 3.92231 6.48206 3 7.61985 3H14.9957C16.1341 3 17.057 3.92292 17.057 5.06131V5.9226C17.057 6.97554 16.2674 7.84414 15.2482 7.96862V9.46784C15.2482 9.58821 15.2776 9.70828 15.3347 9.81752L16.8143 12.6466C16.9741 12.9525 17.0575 13.2928 17.0575 13.6376C17.0575 14.8191 16.0998 15.7746 14.9195 15.7746H11.9997V20.3077C11.9997 20.69 11.6897 21 11.3074 21C10.925 21 10.6151 20.69 10.6151 20.3077V15.7746H7.696C6.51572 15.7746 5.55807 14.8191 5.55807 13.6376C5.55807 13.2928 5.64124 12.9529 5.80105 12.6469L7.28084 9.81752C7.33704 9.70991 7.36649 9.59005 7.36649 9.46784V7.9685Z" fill="currentColor"/>
</svg>
