<svg width="24" height="24" viewBox="0 0 24 24" fill="none" xmlns="http://www.w3.org/2000/svg">
<path d="M7.52287 20.7443C6.34674 20.7428 5.21919 20.275 4.38754 19.4433C3.55589 18.6116 3.088 17.4841 3.08653 16.308V7.43631C3.088 6.26018 3.55589 5.13263 4.38754 4.30098C5.21919 3.46933 6.34674 3.00147 7.52287 3H13.9733C15.1494 3.00147 16.277 3.46933 17.1087 4.30098C17.9403 5.13263 18.4081 6.26018 18.4096 7.43631V10.4945C18.4096 10.6781 18.3366 10.8542 18.2069 10.984C18.077 11.1138 17.9009 11.1868 17.7173 11.1868C17.5337 11.1868 17.3576 11.1138 17.2278 10.984C17.098 10.8542 17.0249 10.6781 17.0249 10.4945V7.43631C17.024 6.62725 16.7022 5.85162 16.1301 5.27952C15.558 4.70743 14.7823 4.38559 13.9733 4.38462H7.52287C6.71381 4.38559 5.93815 4.70743 5.36605 5.27952C4.79397 5.85162 4.47213 6.62725 4.47115 7.43631V16.308C4.47213 17.1171 4.79397 17.8927 5.36605 18.4648C5.93815 19.0369 6.71381 19.3587 7.52287 19.3597H9.87858C10.0622 19.3597 10.2382 19.4326 10.3681 19.5625C10.4979 19.6923 10.5709 19.8684 10.5709 20.052C10.5709 20.2356 10.4979 20.4117 10.3681 20.5415C10.2382 20.6714 10.0622 20.7443 9.87858 20.7443H7.52287Z" fill="currentColor"/>
<path d="M13.9856 20.9997C13.7833 20.999 13.5834 20.9557 13.399 20.8727C13.2145 20.7897 13.0496 20.6689 12.9149 20.5181C12.7801 20.3672 12.6785 20.1897 12.6169 19.9971C12.5551 19.8045 12.5346 19.6011 12.5566 19.4L12.6296 18.7114C12.6806 18.2348 12.8804 17.7865 13.2009 17.4302L16.1206 14.2419C16.4106 13.9281 16.8133 13.7422 17.2402 13.7249C17.6671 13.7076 18.0834 13.8603 18.3978 14.1496L19.0135 14.72C19.3262 15.0104 19.5108 15.4129 19.5271 15.8393C19.5434 16.2656 19.3899 16.6811 19.1003 16.9945L16.2213 20.133C15.8749 20.5196 15.407 20.7765 14.8948 20.8613L14.2274 20.9748C14.1475 20.9894 14.0668 20.9978 13.9856 20.9997ZM17.3086 15.1068C17.2775 15.1068 17.2468 15.1133 17.2181 15.1256C17.1896 15.138 17.1639 15.1561 17.1425 15.1788L14.2312 18.3588C14.1067 18.4989 14.0296 18.6746 14.0105 18.861L13.9366 19.5496L14.6686 19.5016C14.8725 19.4673 15.0587 19.3648 15.1966 19.2108L18.0849 16.0576C18.1055 16.0359 18.1216 16.0103 18.1322 15.9823C18.1429 15.9545 18.1478 15.9246 18.1469 15.8948C18.1459 15.8649 18.1391 15.8356 18.1267 15.8083C18.1144 15.7811 18.0967 15.7566 18.0749 15.7363L17.46 15.1668C17.4188 15.1286 17.3648 15.1072 17.3086 15.1068Z" fill="currentColor"/>
<path d="M10.8449 14.4572H8.43389C8.25028 14.4572 8.07418 14.3842 7.94434 14.2544C7.81451 14.1246 7.74158 13.9485 7.74158 13.7649C7.74158 13.5812 7.81451 13.4052 7.94434 13.2754C8.07418 13.1455 8.25028 13.0726 8.43389 13.0726H10.8449C11.0285 13.0726 11.2047 13.1455 11.3345 13.2754C11.4643 13.4052 11.5373 13.5812 11.5373 13.7649C11.5373 13.9485 11.4643 14.1246 11.3345 14.2544C11.2047 14.3842 11.0285 14.4572 10.8449 14.4572ZM13.0529 10.4243H8.43761C8.25399 10.4243 8.0779 10.3514 7.94806 10.2215C7.81823 10.0917 7.7453 9.91558 7.7453 9.73197C7.7453 9.54836 7.81823 9.37227 7.94806 9.24243C8.0779 9.1126 8.25399 9.03966 8.43761 9.03966H13.0529C13.2366 9.03966 13.4127 9.1126 13.5425 9.24243C13.6723 9.37227 13.7453 9.54836 13.7453 9.73197C13.7453 9.91558 13.6723 10.0917 13.5425 10.2215C13.4127 10.3514 13.2366 10.4243 13.0529 10.4243Z" fill="currentColor"/>
</svg>
