<svg width="24" height="24" viewBox="0 0 24 24" fill="none" xmlns="http://www.w3.org/2000/svg">
<path fill-rule="evenodd" clip-rule="evenodd" d="M7.58153 4.38462C5.86405 4.38462 4.47115 5.77751 4.47115 7.49499V16.505C4.47115 18.2225 5.86405 19.6154 7.58153 19.6154H15.0342C16.7516 19.6154 18.1446 18.2225 18.1446 16.505V7.49499C18.1446 5.77751 16.7516 4.38462 15.0342 4.38462H7.58153ZM3.08654 7.49499C3.08654 5.01281 5.09934 3 7.58153 3H15.0342C17.5164 3 19.5292 5.01281 19.5292 7.49499V16.505C19.5292 18.9872 17.5164 21 15.0342 21H7.58153C5.09934 21 3.08654 18.9872 3.08654 16.505V7.49499Z" fill="currentColor"/>
<path fill-rule="evenodd" clip-rule="evenodd" d="M7.5613 10.3341C7.5613 9.95179 7.87125 9.64182 8.25361 9.64182H11.1222C11.5046 9.64182 11.8146 9.95179 11.8146 10.3341C11.8146 10.7165 11.5046 11.0264 11.1222 11.0264H8.25361C7.87125 11.0264 7.5613 10.7165 7.5613 10.3341ZM7.5613 14.6818C7.5613 14.2995 7.87125 13.9895 8.25361 13.9895H14.3645C14.7468 13.9895 15.0568 14.2995 15.0568 14.6818C15.0568 15.0642 14.7468 15.3741 14.3645 15.3741H8.25361C7.87125 15.3741 7.5613 15.0642 7.5613 14.6818Z" fill="currentColor"/>
</svg>
