<svg width="24" height="24" viewBox="0 0 24 24" fill="none" xmlns="http://www.w3.org/2000/svg">
<path d="M15.6095 11.7807C15.4625 11.781 15.3191 11.7341 15.2006 11.6468L10.1237 7.9185C9.97568 7.80932 9.8771 7.64582 9.84968 7.46396C9.82227 7.28211 9.86815 7.09681 9.97735 6.94881C10.0865 6.80082 10.2501 6.70227 10.432 6.67483C10.6138 6.64739 10.7991 6.69332 10.947 6.8025L16.024 10.5308C16.1415 10.6173 16.2286 10.7386 16.273 10.8776C16.3174 11.0166 16.3169 11.1659 16.2713 11.3046C16.2257 11.4431 16.1376 11.5638 16.0194 11.6492C15.9013 11.7347 15.7591 11.7808 15.6132 11.7807H15.6095Z" fill="currentColor"/>
<path d="M6.99824 20.0751C6.34937 20.0725 5.72766 19.8142 5.26788 19.3564C4.8081 18.8984 4.54728 18.2778 4.54194 17.6289L4.52718 15.9895C4.51986 15.0545 4.80589 14.1405 5.34502 13.3763L11.3127 5.10004C11.7602 4.48692 12.4325 4.07624 13.1823 3.95805C13.932 3.83987 14.6981 4.02382 15.3124 4.46957L16.913 5.63634C17.5263 6.0834 17.9368 6.75573 18.0544 7.50546C18.1719 8.25521 17.9868 9.02093 17.5397 9.63419L11.6413 17.8135C11.0555 18.6425 10.2064 19.2486 9.23205 19.5332L7.69332 19.9809C7.46721 20.0449 7.23321 20.0766 6.99824 20.0751ZM13.6259 5.30588C13.3922 5.3048 13.1615 5.35921 12.9529 5.46464C12.7443 5.57008 12.5637 5.72351 12.4259 5.91234L6.47024 14.1785C6.09992 14.7065 5.9046 15.3373 5.91179 15.9822L5.92655 17.6206C5.92801 17.7877 5.96821 17.9521 6.044 18.101C6.1198 18.2498 6.22911 18.379 6.36334 18.4784C6.49757 18.5778 6.65303 18.6448 6.81751 18.6738C6.98199 18.7029 7.15098 18.6935 7.31118 18.6462L8.84901 18.1994C9.52273 18.0011 10.1095 17.5807 10.5142 17.0068L16.4164 8.82188C16.5312 8.66513 16.614 8.48726 16.66 8.29845C16.7059 8.10965 16.7141 7.91364 16.6842 7.72164C16.6543 7.52965 16.5868 7.34544 16.4856 7.17959C16.3843 7.01373 16.2513 6.86949 16.0942 6.75511L14.4936 5.58834C14.2415 5.40497 13.9377 5.30609 13.6259 5.30588Z" fill="currentColor"/>
</svg>
