<svg width="24" height="24" viewBox="0 0 24 24" fill="none" xmlns="http://www.w3.org/2000/svg">
<path d="M15.6096 11.7795C15.4625 11.7798 15.3192 11.7329 15.2006 11.6456L10.1237 7.91731C9.97575 7.80812 9.87716 7.64462 9.84974 7.46276C9.82233 7.28091 9.86821 7.09561 9.97741 6.94761C10.0866 6.79963 10.2502 6.70107 10.432 6.67363C10.6139 6.64619 10.7991 6.69212 10.9471 6.80131L16.024 10.5296C16.1415 10.6161 16.2287 10.7374 16.2731 10.8764C16.3175 11.0154 16.3169 11.1647 16.2713 11.3034C16.2258 11.4419 16.1377 11.5626 16.0195 11.648C15.9013 11.7335 15.7592 11.7796 15.6133 11.7795H15.6096Z" fill="#175CD3"/>
<path d="M6.9983 20.0739C6.34943 20.0713 5.72773 19.813 5.26794 19.3552C4.80817 18.8972 4.54734 18.2766 4.542 17.6277L4.52724 15.9883C4.51992 15.0533 4.80595 14.1393 5.34508 13.3751L11.3127 5.09884C11.7602 4.48572 12.4325 4.07504 13.1823 3.95685C13.9321 3.83867 14.6981 4.02262 15.3124 4.46838L16.913 5.63515C17.5263 6.0822 17.9368 6.75453 18.0544 7.50427C18.1719 8.25401 17.9869 9.01973 17.5398 9.63299L11.6413 17.8123C11.0556 18.6413 10.2064 19.2474 9.23211 19.532L7.69338 19.9797C7.46727 20.0437 7.23327 20.0754 6.9983 20.0739ZM13.626 5.30468C13.3922 5.3036 13.1616 5.35801 12.9529 5.46344C12.7443 5.56888 12.5638 5.72231 12.426 5.91115L6.4703 14.1773C6.09998 14.7053 5.90466 15.3361 5.91185 15.981L5.92661 17.6194C5.92807 17.7865 5.96827 17.9509 6.04406 18.0998C6.11986 18.2486 6.22917 18.3778 6.3634 18.4772C6.49763 18.5766 6.65309 18.6436 6.81758 18.6726C6.98205 18.7017 7.15104 18.6923 7.31124 18.645L8.84907 18.1982C9.52279 17.9999 10.1096 17.5795 10.5143 17.0056L16.4164 8.82068C16.5313 8.66393 16.6141 8.48606 16.66 8.29725C16.706 8.10846 16.7142 7.91244 16.6843 7.72044C16.6544 7.52845 16.5868 7.34424 16.4857 7.17839C16.3844 7.01253 16.2514 6.86829 16.0943 6.75391L14.4937 5.58715C14.2416 5.40377 13.9378 5.30489 13.626 5.30468Z" fill="#175CD3"/>
</svg>
