<svg width="24" height="24" viewBox="0 0 24 24" fill="none" xmlns="http://www.w3.org/2000/svg">
<path d="M7.21568 20.1696C6.59234 20.1784 5.9736 20.0619 5.39612 19.827C4.81864 19.5922 4.29417 19.2438 3.85383 18.8025C3.34761 18.2791 2.95027 17.6606 2.68487 16.9826C2.41945 16.3046 2.29127 15.5806 2.3077 14.8527V9.15081C2.26713 8.47498 2.36369 7.79793 2.59159 7.16039C2.81949 6.52285 3.17399 5.938 3.6338 5.44103C4.0936 4.94406 4.64918 4.54524 5.26713 4.26858C5.88507 3.99191 6.55259 3.84311 7.22954 3.83113H15.3858C16.0628 3.84311 16.7303 3.99191 17.3483 4.26858C17.9662 4.54524 18.5218 4.94406 18.9816 5.44103C19.4414 5.938 19.7959 6.52285 20.0237 7.16039C20.2517 7.79793 20.3483 8.47498 20.3077 9.15081V10.6988C20.3077 10.8824 20.2348 11.0586 20.1049 11.1883C19.9751 11.3182 19.799 11.3911 19.6154 11.3911C19.4318 11.3911 19.2557 11.3182 19.1259 11.1883C18.996 11.0586 18.9231 10.8824 18.9231 10.6988V9.15081C18.9231 6.87081 17.436 5.21574 15.3858 5.21574H7.22954C5.17939 5.21574 3.69231 6.87081 3.69231 9.15081V14.8527C3.67703 15.3978 3.7698 15.9404 3.9653 16.4495C4.16081 16.9585 4.45517 17.4238 4.83139 17.8185C5.14444 18.1305 5.51693 18.3765 5.92681 18.5419C6.3367 18.7073 6.77561 18.7887 7.21754 18.7813H11.232C11.4156 18.7813 11.5917 18.8542 11.7215 18.9841C11.8514 19.1139 11.9243 19.29 11.9243 19.4736C11.9243 19.6572 11.8514 19.8333 11.7215 19.9631C11.5917 20.093 11.4156 20.1659 11.232 20.1659H7.21568V20.1696Z" fill="currentColor"/>
<path d="M17.2409 19.905C17.1037 19.9053 16.9695 19.8648 16.8553 19.7886C16.7412 19.7124 16.6523 19.604 16.5999 19.4773C16.5474 19.3505 16.5339 19.2109 16.5609 19.0764C16.5879 18.9418 16.6543 18.8184 16.7516 18.7217L18.6338 16.8487L16.7535 14.974C16.6873 14.9102 16.6344 14.8338 16.598 14.7495C16.5617 14.6651 16.5425 14.5743 16.5415 14.4823C16.5406 14.3904 16.558 14.2992 16.5927 14.2141C16.6274 14.129 16.6786 14.0516 16.7435 13.9866C16.8084 13.9214 16.8857 13.8699 16.9707 13.835C17.0557 13.8001 17.1469 13.7824 17.2388 13.7831C17.3307 13.7838 17.4216 13.8027 17.5061 13.8389C17.5906 13.875 17.667 13.9277 17.731 13.9937L20.1042 16.3577C20.1689 16.422 20.2201 16.4984 20.2551 16.5826C20.2901 16.6668 20.3081 16.7571 20.3081 16.8483C20.3081 16.9395 20.2901 17.0298 20.2551 17.1139C20.2201 17.1981 20.1689 17.2746 20.1042 17.3389L17.731 19.7029C17.6667 19.7673 17.5902 19.8183 17.5061 19.853C17.4221 19.8877 17.3319 19.9053 17.2409 19.905Z" fill="currentColor"/>
<path d="M14.3546 17.5421C14.171 17.5421 13.9949 17.4691 13.8651 17.3393C13.7352 17.2095 13.6623 17.0334 13.6623 16.8498C13.6623 16.6662 13.7352 16.49 13.8651 16.3602C13.9949 16.2304 14.171 16.1574 14.3546 16.1574H19.6161C19.7997 16.1574 19.9758 16.2304 20.1056 16.3602C20.2355 16.49 20.3084 16.6662 20.3084 16.8498C20.3084 17.0334 20.2355 17.2095 20.1056 17.3393C19.9758 17.4691 19.7997 17.5421 19.6161 17.5421H14.3546Z" fill="currentColor"/>
<path d="M11.3283 13.4949C10.7409 13.4946 10.171 13.2947 9.71196 12.9282L5.98554 9.92352C5.91475 9.86643 5.85587 9.79595 5.81232 9.7161C5.76877 9.63627 5.74139 9.54863 5.7317 9.45821C5.72202 9.36777 5.73022 9.27632 5.75587 9.18906C5.78153 9.10181 5.82413 9.02046 5.88123 8.94967C5.93832 8.87888 6.0088 8.82003 6.08865 8.77648C6.16848 8.73292 6.25611 8.70551 6.34655 8.69583C6.43697 8.68614 6.52843 8.69436 6.61568 8.72002C6.70294 8.74567 6.78428 8.78827 6.85507 8.84537L10.5778 11.8472C10.7926 12.0184 11.0592 12.1116 11.3338 12.1116C11.6085 12.1116 11.875 12.0184 12.0898 11.8472L15.772 8.8509C15.8423 8.79171 15.9236 8.7471 16.0113 8.71967C16.099 8.69224 16.1913 8.68254 16.2828 8.69114C16.3743 8.69973 16.4631 8.72646 16.5442 8.76974C16.6253 8.81303 16.6968 8.87202 16.7549 8.94327C16.8128 9.01452 16.8561 9.0966 16.8821 9.18474C16.9081 9.27288 16.9162 9.36531 16.9061 9.45663C16.896 9.54796 16.8677 9.63635 16.8232 9.71667C16.7785 9.79698 16.7183 9.86762 16.6461 9.92444L12.9538 12.9263C12.4919 13.2942 11.9189 13.4946 11.3283 13.4949Z" fill="currentColor"/>
</svg>
