<svg width="24" height="24" viewBox="0 0 24 24" fill="none" xmlns="http://www.w3.org/2000/svg">
<path d="M7.21478 20.1696C6.59159 20.1783 5.97299 20.0617 5.39567 19.827C4.81835 19.5921 4.29403 19.2438 3.85383 18.8025C3.34756 18.2792 2.95021 17.6606 2.6848 16.9826C2.4194 16.3046 2.29121 15.5806 2.3077 14.8527V9.15082C2.26713 8.47499 2.36369 7.79793 2.59159 7.16039C2.81949 6.52285 3.17399 5.938 3.6338 5.44103C4.0936 4.94406 4.64918 4.54525 5.26713 4.26858C5.88507 3.99191 6.55259 3.84311 7.22954 3.83113H15.3858C16.0628 3.84311 16.7303 3.99191 17.3483 4.26858C17.9662 4.54525 18.5218 4.94406 18.9816 5.44103C19.4414 5.938 19.7959 6.52285 20.0237 7.16039C20.2517 7.79793 20.3483 8.47499 20.3077 9.15082V11.5296C20.3077 11.7132 20.2348 11.8893 20.1049 12.0191C19.9751 12.149 19.799 12.2219 19.6154 12.2219C19.4318 12.2219 19.2557 12.149 19.1259 12.0191C18.996 11.8893 18.9231 11.7132 18.9231 11.5296V9.15082C18.9231 6.87082 17.4351 5.21574 15.3858 5.21574H7.22954C5.18031 5.21574 3.69231 6.87082 3.69231 9.15082V14.8527C3.67703 15.3978 3.7698 15.9404 3.9653 16.4495C4.16081 16.9585 4.45517 17.4238 4.83139 17.8185C5.1445 18.1344 5.51895 18.3827 5.93171 18.5483C6.34449 18.7139 6.78682 18.7932 7.2314 18.7813H12.0665C12.2501 18.7813 12.4262 18.8542 12.556 18.9841C12.6858 19.1139 12.7588 19.29 12.7588 19.4736C12.7588 19.6572 12.6858 19.8333 12.556 19.9631C12.4262 20.093 12.2501 20.1659 12.0665 20.1659H7.21847L7.21478 20.1696Z" fill="currentColor"/>
<path d="M11.3301 13.4947C10.743 13.4943 10.1734 13.2944 9.71473 12.928L5.98735 9.92339C5.84437 9.80808 5.75306 9.6407 5.7335 9.45807C5.71394 9.27544 5.76772 9.09252 5.88303 8.94954C5.99834 8.80657 6.16574 8.71526 6.34837 8.6957C6.531 8.67614 6.71393 8.72993 6.8569 8.84524L10.5797 11.847C10.7943 12.0184 11.0607 12.1117 11.3352 12.1117C11.6097 12.1117 11.8761 12.0184 12.0907 11.847L15.7747 8.85078C15.8452 8.79246 15.9265 8.74866 16.0139 8.72193C16.1014 8.69521 16.1933 8.68607 16.2843 8.69505C16.3753 8.70403 16.4636 8.73096 16.5441 8.77427C16.6247 8.81758 16.6959 8.87642 16.7536 8.94738C16.8112 9.01835 16.8543 9.10003 16.8802 9.18774C16.9061 9.27543 16.9144 9.36739 16.9046 9.45831C16.8948 9.54923 16.867 9.6373 16.823 9.71744C16.7789 9.79759 16.7195 9.86821 16.648 9.92524L12.9557 12.927C12.4936 13.2946 11.9205 13.4947 11.3301 13.4947Z" fill="currentColor"/>
<path d="M16.6601 19.4581C16.5691 19.4582 16.479 19.4403 16.3949 19.4055C16.3108 19.3706 16.2343 19.3195 16.17 19.255L14.1937 17.275C14.0678 17.1443 13.9983 16.9693 14 16.7878C14.0019 16.6063 14.075 16.4327 14.2035 16.3045C14.3321 16.1763 14.5058 16.1038 14.6873 16.1025C14.8688 16.1011 15.0437 16.1712 15.174 16.2975L16.6601 17.7855L20.2417 14.2021C20.3062 14.1379 20.3827 14.0869 20.4669 14.0523C20.551 14.0176 20.6412 13.9998 20.7322 14C20.8232 14.0002 20.9134 14.0183 20.9974 14.0533C21.0815 14.0883 21.1578 14.1395 21.222 14.204C21.2862 14.2684 21.3372 14.345 21.3719 14.4291C21.4065 14.5133 21.4243 14.6035 21.4241 14.6945C21.424 14.7855 21.4059 14.8756 21.3709 14.9597C21.3359 15.0437 21.2847 15.12 21.2201 15.1843L17.1494 19.255C17.0852 19.3194 17.009 19.3704 16.925 19.4053C16.8411 19.4401 16.7511 19.4581 16.6601 19.4581Z" fill="currentColor"/>
</svg>
