<svg width="24" height="24" viewBox="0 0 24 24" fill="none" xmlns="http://www.w3.org/2000/svg">
<path d="M15.3988 20.1696H7.2166C6.59313 20.1783 5.97426 20.0617 5.39665 19.8269C4.81902 19.5921 4.2944 19.2438 3.85384 18.8025C3.34785 18.279 2.95073 17.6604 2.68549 16.9824C2.42025 16.3044 2.29215 15.5805 2.3086 14.8527V9.15082C2.26803 8.47499 2.3646 7.79793 2.5925 7.16039C2.8204 6.52285 3.1749 5.938 3.63471 5.44103C4.09451 4.94407 4.65009 4.54525 5.26804 4.26858C5.88597 3.99191 6.5535 3.84311 7.23044 3.83113H15.3868C16.0637 3.84311 16.7312 3.99191 17.3491 4.26858C17.9671 4.54525 18.5226 4.94407 18.9825 5.44103C19.4423 5.938 19.7968 6.52285 20.0247 7.16039C20.2526 7.79793 20.3491 8.47499 20.3086 9.15082V14.8527C20.3246 15.5799 20.1962 16.3031 19.931 16.9805C19.6658 17.6577 19.2689 18.2758 18.7634 18.7988C18.3229 19.2409 17.798 19.59 17.2201 19.8255C16.6422 20.061 16.0228 20.178 15.3988 20.1696ZM7.2286 18.785H15.3969C15.8392 18.7926 16.2785 18.7114 16.6887 18.546C17.0989 18.3807 17.4716 18.1345 17.7849 17.8222C18.1615 17.427 18.4562 16.9612 18.6517 16.4514C18.8472 15.9417 18.9398 15.3984 18.924 14.8527V9.15082C18.924 6.87082 17.4369 5.21575 15.3868 5.21575H7.23044C5.18029 5.21575 3.69321 6.87082 3.69321 9.15082V14.8527C3.67792 15.3978 3.7707 15.9404 3.96621 16.4495C4.16171 16.9585 4.45607 17.4238 4.83229 17.8185C5.14528 18.1306 5.51776 18.3766 5.92767 18.542C6.33756 18.7074 6.77651 18.7888 7.21844 18.7813L7.2286 18.785Z" fill="currentColor"/>
<path d="M11.332 13.4947C10.7445 13.4944 10.1746 13.2946 9.71566 12.928L5.98826 9.92334C5.84528 9.80804 5.75397 9.64065 5.73441 9.45802C5.71485 9.27539 5.76864 9.09247 5.88395 8.94949C5.99926 8.80652 6.16664 8.71521 6.34927 8.69565C6.5319 8.67608 6.71482 8.72988 6.8578 8.84518L10.5806 11.847C10.7949 12.0184 11.0612 12.1118 11.3357 12.1118C11.6101 12.1118 11.8764 12.0184 12.0907 11.847L15.7757 8.85072C15.9181 8.7348 16.1009 8.68023 16.2835 8.69901C16.4662 8.7178 16.634 8.8084 16.75 8.95088C16.8659 9.09336 16.9205 9.27606 16.9016 9.45877C16.8829 9.64149 16.7922 9.80926 16.6498 9.92518L12.9575 12.927C12.4954 13.2946 11.9224 13.4947 11.332 13.4947Z" fill="currentColor"/>
</svg>
