<svg width="24" height="24" viewBox="0 0 24 24" fill="none" xmlns="http://www.w3.org/2000/svg">
<path d="M7.04825 19.6752C6.44632 19.6837 5.84877 19.5713 5.29111 19.3445C4.73345 19.1178 4.227 18.7814 3.80176 18.3552C3.31312 17.8507 2.92953 17.2542 2.67316 16.6002C2.41678 15.9463 2.29274 15.2479 2.30824 14.5457V9.06632C2.26917 8.41364 2.36255 7.7598 2.58273 7.14414C2.8029 6.52848 3.14531 5.96371 3.58941 5.48382C4.03351 5.00394 4.5701 4.61884 5.16688 4.35171C5.76367 4.08458 6.40836 3.94093 7.06211 3.9294H14.8953C15.549 3.9408 16.1938 4.08436 16.7907 4.35145C17.3875 4.61854 17.9241 5.00363 18.3683 5.48355C18.8124 5.96346 19.1549 6.52827 19.3749 7.14399C19.5951 7.75971 19.6884 8.4136 19.6492 9.06632V10.5561C19.6492 10.7397 19.5762 10.9159 19.4464 11.0457C19.3166 11.1755 19.1405 11.2484 18.9569 11.2484C18.7733 11.2484 18.5971 11.1755 18.4674 11.0457C18.3375 10.9159 18.2646 10.7397 18.2646 10.5561V9.06632C18.2646 6.89155 16.8476 5.31401 14.8953 5.31401H7.06211C5.10888 5.31401 3.69196 6.89155 3.69196 9.06632V14.5457C3.67731 15.0656 3.76577 15.5834 3.95224 16.0689C4.13872 16.5546 4.41952 16.9984 4.77842 17.3749C5.07643 17.6717 5.43095 17.9057 5.82099 18.0629C6.21103 18.2202 6.62864 18.2976 7.04915 18.2906H10.9058C11.0894 18.2906 11.2655 18.3636 11.3954 18.4934C11.5252 18.6233 11.5981 18.7993 11.5981 18.9829C11.5981 19.1665 11.5252 19.3426 11.3954 19.4725C11.2655 19.6023 11.0894 19.6752 10.9058 19.6752H7.04825Z" fill="currentColor"/>
<path d="M16.7962 20.0709C16.0282 20.0733 15.2806 19.8237 14.6682 19.3603C14.0559 18.8968 13.6125 18.2452 13.4062 17.5053C13.2 16.7656 13.2422 15.9786 13.5264 15.2651C13.8106 14.5516 14.3212 13.9511 14.9796 13.5559C15.1366 13.4627 15.324 13.4353 15.501 13.4796C15.6782 13.524 15.8305 13.6364 15.9251 13.7926C16.0196 13.9487 16.0487 14.1359 16.006 14.3133C15.9632 14.4908 15.8521 14.6442 15.6968 14.7402C15.2943 14.9839 14.9841 15.3547 14.8152 15.7939C14.6463 16.2332 14.6281 16.7162 14.7635 17.1669C14.8989 17.6177 15.1802 18.0106 15.5633 18.284C15.9463 18.5575 16.4094 18.6959 16.8798 18.6775C17.35 18.6592 17.8009 18.485 18.1614 18.1825C18.5219 17.88 18.7718 17.4663 18.8716 17.0063C18.9714 16.5464 18.9155 16.0663 18.7128 15.6416C18.5101 15.2168 18.172 14.8715 17.7516 14.6599C17.6697 14.6194 17.5966 14.5631 17.5365 14.4943C17.4764 14.4255 17.4306 14.3455 17.4016 14.2589C17.3726 14.1723 17.361 14.0807 17.3676 13.9896C17.3741 13.8985 17.3986 13.8096 17.4396 13.728C17.4807 13.6464 17.5374 13.5737 17.6068 13.5141C17.676 13.4546 17.7564 13.4094 17.8432 13.3809C17.93 13.3526 18.0216 13.3417 18.1127 13.3489C18.2037 13.3561 18.2925 13.3813 18.3738 13.4229C19.0818 13.7763 19.6495 14.3587 19.9847 15.0756C20.32 15.7924 20.403 16.6015 20.2202 17.3715C20.0374 18.1414 19.5997 18.827 18.9781 19.3167C18.3565 19.8064 17.5876 20.0716 16.7962 20.0691V20.0709Z" fill="currentColor"/>
<path d="M18.064 16.295C17.8804 16.295 17.7043 16.2221 17.5745 16.0922C17.4446 15.9624 17.3717 15.7863 17.3717 15.6027V14.0427C17.3717 13.8591 17.4446 13.683 17.5745 13.5532C17.7043 13.4233 17.8804 13.3504 18.064 13.3504H19.6166C19.8003 13.3504 19.9763 13.4233 20.1062 13.5532C20.236 13.683 20.3089 13.8591 20.3089 14.0427C20.3089 14.2263 20.236 14.4024 20.1062 14.5322C19.9763 14.6621 19.8003 14.735 19.6166 14.735H18.7563V15.6027C18.7563 15.7863 18.6834 15.9624 18.5536 16.0922C18.4237 16.2221 18.2476 16.295 18.064 16.295Z" fill="currentColor"/>
<path d="M10.9996 13.2643C10.4294 13.2644 9.87609 13.0708 9.43043 12.7151L5.85065 9.82863C5.71006 9.71268 5.62088 9.54597 5.60242 9.36467C5.58396 9.18337 5.63773 9.00209 5.75206 8.86019C5.86639 8.71828 6.03208 8.62717 6.21315 8.60662C6.39423 8.58608 6.5761 8.63777 6.71931 8.75047L10.2943 11.6333C10.4958 11.7936 10.7458 11.881 11.0033 11.881C11.2608 11.881 11.5108 11.7936 11.7122 11.6333L15.2504 8.75601C15.3929 8.64009 15.5755 8.58552 15.7583 8.6043C15.941 8.62309 16.1088 8.71368 16.2246 8.85616C16.3406 8.99865 16.3952 9.18135 16.3764 9.36406C16.3577 9.54677 16.267 9.71455 16.1245 9.83047L12.58 12.7133C12.1306 13.0703 11.5735 13.2645 10.9996 13.2643Z" fill="currentColor"/>
</svg>
