<svg width="24" height="24" viewBox="0 0 24 24" fill="none" xmlns="http://www.w3.org/2000/svg">
<path d="M10.3912 20.1703C10.2076 20.1703 10.0314 20.0974 9.90166 19.9675C9.77178 19.8377 9.69886 19.6616 9.69886 19.478C9.69886 19.2944 9.77178 19.1183 9.90166 18.9885C10.0314 18.8586 10.2076 18.7857 10.3912 18.7857H15.3942C15.8369 18.7933 16.2767 18.7119 16.6874 18.5464C17.0981 18.3808 17.4713 18.1345 17.785 17.822C18.1613 17.4268 18.4556 16.961 18.6509 16.4515C18.8463 15.942 18.9388 15.3988 18.9232 14.8534V9.14874C18.9232 6.86782 17.4352 5.21274 15.385 5.21274H7.22957C5.17942 5.21274 3.69237 6.86782 3.69237 9.14874V10.6995C3.69237 10.8831 3.61942 11.0593 3.48959 11.189C3.35976 11.3189 3.18367 11.3918 3.00006 11.3918C2.81644 11.3918 2.64034 11.3189 2.51051 11.189C2.38068 11.0593 2.30775 10.8831 2.30775 10.6995V9.14874C2.26705 8.47284 2.36352 7.79569 2.59137 7.15803C2.8192 6.52039 3.17367 5.93542 3.63348 5.43835C4.0933 4.94128 4.64895 4.54238 5.26696 4.26566C5.88496 3.98893 6.55254 3.84011 7.22957 3.82812H15.385C16.062 3.84011 16.7297 3.98893 17.3477 4.26565C17.9658 4.54237 18.5215 4.94125 18.9814 5.4383C19.4413 5.93535 19.7958 6.52032 20.0237 7.15797C20.2517 7.79562 20.3483 8.47279 20.3078 9.14874V14.8534C20.3237 15.5806 20.1953 16.3036 19.9298 16.9808C19.6644 17.6581 19.2674 18.2759 18.7616 18.7986C18.3209 19.2405 17.7959 19.5892 17.2177 19.8242C16.6396 20.0593 16.0201 20.1757 15.3961 20.1666H10.3912V20.1703Z" fill="#175CD3"/>
<path d="M11.2821 13.4917C10.6946 13.4912 10.1246 13.2917 9.66479 12.9259L5.967 9.9185C5.89645 9.86111 5.83793 9.79037 5.79471 9.71035C5.7515 9.63032 5.72447 9.54256 5.71516 9.45209C5.70587 9.36162 5.71449 9.27021 5.74052 9.18306C5.76655 9.09591 5.80949 9.01475 5.86689 8.9442C5.92428 8.87365 5.99498 8.81508 6.075 8.77188C6.15503 8.72866 6.2428 8.70164 6.33327 8.69233C6.42374 8.68304 6.51515 8.69164 6.60229 8.71767C6.68944 8.7437 6.77063 8.78664 6.84118 8.84404L10.5335 11.8459C10.7485 12.0157 11.0147 12.1076 11.2886 12.1066C11.5625 12.1056 11.828 12.0118 12.0418 11.8404L15.7608 8.8422C15.8316 8.7851 15.913 8.74251 16.0002 8.71685C16.0875 8.69119 16.1789 8.68297 16.2693 8.69266C16.3598 8.70235 16.4475 8.72975 16.5273 8.77331C16.6072 8.81686 16.6776 8.87571 16.7347 8.9465C16.7918 9.01729 16.8343 9.09865 16.86 9.18589C16.8857 9.27315 16.894 9.3646 16.8843 9.45503C16.8746 9.54546 16.8472 9.6331 16.8036 9.71293C16.76 9.79278 16.7012 9.86326 16.6304 9.92035L12.9067 12.9222C12.4453 13.2906 11.8725 13.4915 11.2821 13.4917Z" fill="#175CD3"/>
<path d="M3.26863 20.1733C3.08501 20.1733 2.90891 20.1004 2.77908 19.9705C2.64925 19.8407 2.57632 19.6646 2.57632 19.481C2.57632 19.2974 2.64925 19.1213 2.77908 18.9914C2.90891 18.8617 3.08501 18.7887 3.26863 18.7887H6.19386C6.37747 18.7887 6.55356 18.8617 6.6834 18.9914C6.81323 19.1213 6.88617 19.2974 6.88617 19.481C6.88617 19.6646 6.81323 19.8407 6.6834 19.9705C6.55356 20.1004 6.37747 20.1733 6.19386 20.1733H3.26863ZM5.2154 17.418C5.03179 17.418 4.85569 17.345 4.72586 17.2152C4.59603 17.0853 4.52309 16.9093 4.52309 16.7256C4.52309 16.542 4.59603 16.3659 4.72586 16.2361C4.85569 16.1063 5.03179 16.0333 5.2154 16.0333H9.22615C9.40975 16.0333 9.58587 16.1063 9.71566 16.2361C9.84553 16.3659 9.91846 16.542 9.91846 16.7256C9.91846 16.9093 9.84553 17.0853 9.71566 17.2152C9.58587 17.345 9.40975 17.418 9.22615 17.418H5.2154ZM6.20586 14.6635H2.99999C2.81639 14.6635 2.64029 14.5906 2.51046 14.4607C2.38062 14.3308 2.30769 14.1548 2.30769 13.9712C2.30769 13.7876 2.38062 13.6115 2.51046 13.4816C2.64029 13.3518 2.81639 13.2789 2.99999 13.2789H6.20586C6.38947 13.2789 6.56556 13.3518 6.6954 13.4816C6.82523 13.6115 6.89817 13.7876 6.89817 13.9712C6.89817 14.1548 6.82523 14.3308 6.6954 14.4607C6.56556 14.5906 6.38947 14.6635 6.20586 14.6635Z" fill="#175CD3"/>
</svg>
