<svg width="40" height="40" viewBox="0 0 40 40" fill="none" xmlns="http://www.w3.org/2000/svg">
<path d="M5.40742 10.1285C6.45308 9.39763 8.02937 9.53779 8.96824 10.3131L7.89143 8.74798C7.02486 7.51209 7.33522 6.17498 8.57222 5.3073C9.80922 4.44296 13.3144 6.76678 13.3144 6.76678C12.4401 5.51866 12.6036 3.93681 13.8517 3.06135C15.0998 2.18922 16.8218 2.49068 17.6962 3.74103L29.2875 20.1157L27.8102 34.438L15.4814 29.9416L4.72774 13.9974C3.8456 12.7415 4.1504 11.0095 5.40742 10.1285Z" fill="#EF9645"/>
<path d="M2.99794 19.238C2.99794 19.238 1.7387 17.4025 3.57528 16.1444C5.40965 14.8863 6.66778 16.7206 6.66778 16.7206L12.509 25.2394C12.7104 24.9035 12.9306 24.572 13.1765 24.245L5.06925 12.4234C5.06925 12.4234 3.81111 10.589 5.64659 9.33089C7.48095 8.07275 8.73908 9.90711 8.73908 9.90711L16.3646 21.0279C16.6483 20.7965 16.9387 20.564 17.2379 20.3359L8.39757 7.44202C8.39757 7.44202 7.13944 5.60765 8.97492 4.34952C10.8093 3.09138 12.0674 4.92575 12.0674 4.92575L20.9077 17.8175C21.2325 17.6183 21.554 17.4459 21.8766 17.2635L13.6137 5.21386C13.6137 5.21386 12.3555 3.3795 14.1899 2.12136C16.0243 0.86323 17.2824 2.69759 17.2824 2.69759L26.0192 15.4391L27.3475 17.3769C21.8433 21.1525 21.3193 28.2552 24.4641 32.8416C25.0926 33.7594 26.0103 33.1309 26.0103 33.1309C22.2359 27.6256 23.3884 21.4395 28.8937 17.6651L27.2707 9.54224C27.2707 9.54224 26.6644 7.40197 28.8036 6.79459C30.9439 6.18833 31.5513 8.32861 31.5513 8.32861L33.4257 13.8951C34.1688 16.1021 34.9597 18.3014 36.0065 20.3816C38.9621 26.2551 37.1967 33.5547 31.6236 37.3781C25.5442 41.5462 17.2334 39.9967 13.0641 33.9185L2.99794 19.238Z" fill="#FFDC5D"/>
<path d="M13.3489 35.5971C8.89928 35.5971 4.40292 31.1007 4.40292 26.6511C4.40292 26.0359 3.95239 25.5387 3.33723 25.5387C2.72207 25.5387 2.1781 26.0359 2.1781 26.6511C2.1781 33.3255 6.67446 37.8219 13.3489 37.8219C13.9641 37.8219 14.4613 37.2779 14.4613 36.6628C14.4613 36.0476 13.9641 35.5971 13.3489 35.5971Z" fill="#5DADEC"/>
<path d="M7.78686 37.7752C4.44964 37.7752 2.22482 35.5504 2.22482 32.2131C2.22482 31.598 1.72757 31.1007 1.11241 31.1007C0.497247 31.1007 0 31.598 0 32.2131C0 36.6628 3.33723 40 7.78686 40C8.40202 40 8.89927 39.5028 8.89927 38.8876C8.89927 38.2724 8.40202 37.7752 7.78686 37.7752ZM26.6978 2.1781C26.0838 2.1781 25.5854 2.67646 25.5854 3.29051C25.5854 3.90456 26.0838 4.40292 26.6978 4.40292C31.1474 4.40292 35.5971 8.39535 35.5971 13.3022C35.5971 13.9162 36.0954 14.4146 36.7095 14.4146C37.3235 14.4146 37.8219 13.9162 37.8219 13.3022C37.8219 7.16837 33.3723 2.1781 26.6978 2.1781Z" fill="#5DADEC"/>
<path d="M32.2599 0C31.6458 0 31.1474 0.451638 31.1474 1.06569C31.1474 1.67974 31.6458 2.22482 32.2599 2.22482C35.5971 2.22482 37.7752 4.69993 37.7752 7.74014C37.7752 8.35419 38.3191 8.85255 38.9343 8.85255C39.5495 8.85255 40 8.35419 40 7.74014C40 3.47183 36.7095 0 32.2599 0Z" fill="#5DADEC"/>
</svg>
