<svg width="24" height="24" viewBox="0 0 24 24" fill="none" xmlns="http://www.w3.org/2000/svg">
<path fill-rule="evenodd" clip-rule="evenodd" d="M5.30999 7.17181C7.02832 5.80741 9.34413 4.91062 11.76 4.91062C14.1763 4.91062 16.4921 5.8074 18.2104 7.17182C19.9186 8.52828 21.12 10.4209 21.12 12.4485C21.12 14.474 19.93 16.3668 18.2248 17.7247C16.5101 19.0903 14.1937 19.9864 11.76 19.9864C9.32677 19.9864 7.01043 19.0903 5.29553 17.7247C3.5903 16.3668 2.39999 14.474 2.39999 12.4485C2.39999 10.4209 3.60171 8.52823 5.30999 7.17181ZM6.20543 8.29954C4.71524 9.48279 3.83999 10.9991 3.83999 12.4485C3.83999 13.9001 4.70841 15.4164 6.19254 16.5982C7.667 17.7723 9.67065 18.5464 11.76 18.5464C13.8498 18.5464 15.8534 17.7723 17.3278 16.5982C18.8118 15.4164 19.68 13.9002 19.68 12.4485C19.68 10.9991 18.805 9.48274 17.3148 8.29952C15.8349 7.12427 13.8307 6.35062 11.76 6.35062C9.68975 6.35062 7.68559 7.12425 6.20543 8.29954Z" fill="currentColor"/>
<path fill-rule="evenodd" clip-rule="evenodd" d="M8.08874 12.4471C8.08874 10.4185 9.73382 8.77312 11.7617 8.77312C13.7904 8.77312 15.4356 10.4184 15.4356 12.4471C15.4356 14.4749 13.7903 16.12 11.7617 16.12C9.73401 16.12 8.08874 14.4748 8.08874 12.4471ZM11.7617 10.2132C10.5295 10.2132 9.52874 11.2135 9.52874 12.4471C9.52874 13.6794 10.5293 14.68 11.7617 14.68C12.9952 14.68 13.9956 13.6793 13.9956 12.4471C13.9956 11.2137 12.9951 10.2132 11.7617 10.2132Z" fill="currentColor"/>
</svg>
