<svg width="24" height="24" viewBox="0 0 24 24" fill="none" xmlns="http://www.w3.org/2000/svg">
<path fill-rule="evenodd" clip-rule="evenodd" d="M14.9225 3C15.3048 3 15.6148 3.30996 15.6148 3.69231V6.66762C15.6148 7.04997 15.3048 7.35993 14.9225 7.35993C14.5401 7.35993 14.2302 7.04997 14.2302 6.66762V3.69231C14.2302 3.30996 14.5401 3 14.9225 3Z" fill="currentColor"/>
<path fill-rule="evenodd" clip-rule="evenodd" d="M7.69968 3C8.08203 3 8.39199 3.30996 8.39199 3.69231V6.66762C8.39199 7.04997 8.08203 7.35993 7.69968 7.35993C7.31733 7.35993 7.00737 7.04997 7.00737 6.66762V3.69231C7.00737 3.30996 7.31733 3 7.69968 3Z" fill="currentColor"/>
<path fill-rule="evenodd" clip-rule="evenodd" d="M7.17757 4.37282L15.4519 4.372C16.7948 4.372 17.9723 4.74614 18.8167 5.55085C19.6664 6.3606 20.0887 7.5205 20.0848 8.90691V16.4574C20.0848 17.844 19.6605 19.005 18.8108 19.8161C17.966 20.6225 16.7888 20.999 15.4448 20.999L7.17764 20.9998C5.83357 20.9998 4.65524 20.6152 3.81045 19.7964C2.96222 18.9742 2.53757 17.7991 2.53757 16.3956V8.90636C2.53757 7.51918 2.96435 6.35994 3.8153 5.55105C4.66088 4.74726 5.83769 4.37283 7.17757 4.37282ZM15.4519 5.75661L7.17764 5.75743C6.08703 5.75743 5.28987 6.05973 4.76925 6.55461C4.25399 7.0444 3.92218 7.80578 3.92218 8.90636V16.3956C3.92218 17.5192 4.25612 18.3001 4.77411 18.8022C5.29552 19.3074 6.09108 19.6152 7.1775 19.6152L15.4447 19.6144C16.5384 19.6144 17.3351 19.3106 17.8547 18.8145C18.3695 18.3232 18.7002 17.5595 18.7002 16.4574V8.90355C18.7034 7.80246 18.3743 7.04198 17.8615 6.55316C17.3431 6.05922 16.5467 5.75662 15.4519 5.75661Z" fill="currentColor"/>
<path d="M9.51084 16.5798C9.40007 16.5798 9.28007 16.5614 9.16927 16.5245C8.87388 16.4322 8.63388 16.2383 8.48619 15.9614C8.36619 15.7398 8.32927 15.4814 8.3662 15.2322L8.60619 13.8383L7.58157 12.8598C7.12927 12.4168 7.1108 11.6968 7.54465 11.2352C7.72927 11.0414 7.96927 10.9214 8.22773 10.8937L9.64007 10.6906L10.277 9.42599C10.5724 8.85368 11.2739 8.63214 11.8462 8.9183C12.0585 9.02907 12.2339 9.20445 12.3447 9.40753C12.3447 9.40753 12.3447 9.40753 12.3447 9.41676L12.9816 10.6814L14.4031 10.8845C14.6985 10.9214 14.9662 11.0783 15.1601 11.3275C15.3447 11.5675 15.4278 11.8722 15.3908 12.1768C15.3539 12.4352 15.2339 12.6752 15.0493 12.8506L14.0247 13.8291L14.2647 15.2137C14.3662 15.8506 13.9324 16.4414 13.3047 16.5429C13.0555 16.5798 12.8062 16.5429 12.5847 16.4229L11.3201 15.7675L10.0462 16.4322C9.88007 16.5152 9.69546 16.5614 9.51084 16.5614V16.5798ZM8.89235 12.2045L9.65853 12.9337C9.93546 13.1922 10.0647 13.5798 9.99084 13.9583L9.80623 15.0014L10.7755 14.5029C11.117 14.3275 11.5139 14.3275 11.8462 14.5029L12.8155 15.0106L12.6308 13.9583C12.5662 13.5891 12.6862 13.2014 12.9631 12.9337L13.7293 12.1952L12.6585 12.0383C12.2893 11.9829 11.957 11.7522 11.7908 11.4198L11.3016 10.4506L10.8124 11.4198C10.637 11.7614 10.3139 11.9922 9.93546 12.0475L8.87388 12.2045H8.89235Z" fill="currentColor"/>
</svg>
