<svg width="24" height="24" viewBox="0 0 24 24" fill="none" xmlns="http://www.w3.org/2000/svg">
<path fill-rule="evenodd" clip-rule="evenodd" d="M2.40506 6.70188C2.40506 4.65713 4.06219 3 6.10694 3H16.5079C18.5519 3 20.2089 4.65726 20.2089 6.70188V8.61755C20.2089 9.71549 19.7287 10.7574 18.8942 11.4708L14.5976 15.1432C14.219 15.4668 14.0012 15.94 14.0012 16.4383V17.6651C14.0012 18.8525 13.2539 19.9117 12.1362 20.3109L10.5761 20.8678C9.11064 21.3904 7.5692 20.3049 7.5692 18.7482V16.3054C7.5692 15.8522 7.40058 15.4162 7.09628 15.0827L3.38195 11.001C2.75321 10.3095 2.40506 9.40852 2.40506 8.47475V6.70188ZM6.10694 4.38462C4.82688 4.38462 3.78968 5.42182 3.78968 6.70188V8.47475C3.78968 9.06408 4.00925 9.63258 4.40603 10.0691C4.40597 10.069 4.40609 10.0691 4.40603 10.0691L8.11909 14.1494C8.11904 14.1494 8.11914 14.1495 8.11909 14.1494C8.65712 14.7391 8.95381 15.5085 8.95381 16.3054V18.7482C8.95381 19.347 9.54629 19.7648 10.1106 19.5638L11.6705 19.007C12.2376 18.8044 12.6166 18.2668 12.6166 17.6651V16.4383C12.6166 15.5356 13.0112 14.6778 13.6978 14.0908L17.9945 10.4183C18.5214 9.96782 18.8243 9.31043 18.8243 8.61755V6.70188C18.8243 5.42169 17.787 4.38462 16.5079 4.38462H6.10694ZM7.76303 8.69858C7.76303 8.31622 8.07298 8.00627 8.45534 8.00627H14.1583C14.5407 8.00627 14.8507 8.31622 14.8507 8.69858C14.8507 9.08093 14.5407 9.39089 14.1583 9.39089H8.45534C8.07298 9.39089 7.76303 9.08093 7.76303 8.69858Z" fill="#1677ff"/>
</svg>
