<svg width="24" height="24" viewBox="0 0 24 24" fill="none" xmlns="http://www.w3.org/2000/svg">
<path fill-rule="evenodd" clip-rule="evenodd" d="M14.7944 18.1947C14.7944 17.8123 15.1044 17.5024 15.4867 17.5024H18.7176C19.0999 17.5024 19.4099 17.8123 19.4099 18.1947C19.4099 18.5771 19.0999 18.887 18.7176 18.887H15.4867C15.1044 18.887 14.7944 18.5771 14.7944 18.1947Z" fill="black"/>
<path fill-rule="evenodd" clip-rule="evenodd" d="M17.1014 14.0444C17.3702 14.0444 17.6147 14.2001 17.7285 14.4436L20.2426 19.8211C20.4045 20.1675 20.2551 20.5795 19.9086 20.7415C19.5623 20.9034 19.1502 20.7539 18.9883 20.4076L17.1014 16.3714L15.2144 20.4076C15.0525 20.7539 14.6405 20.9034 14.2941 20.7415C13.9477 20.5795 13.7982 20.1675 13.9602 19.8211L16.4742 14.4436C16.5881 14.2001 16.8326 14.0444 17.1014 14.0444Z" fill="black"/>
<path fill-rule="evenodd" clip-rule="evenodd" d="M8.30277 3.82846C9.17919 2.62237 11.0874 3.24209 11.0874 4.73304V8.96919H15.0578C16.314 8.96919 17.043 10.3949 16.3033 11.4128L10.6043 19.2621C9.72748 20.4703 7.81932 19.849 7.81932 18.358V14.1218H3.84903C2.59088 14.1218 1.86439 12.6962 2.60346 11.6781L8.30277 3.82846ZM9.42286 4.6424L3.72394 12.4915C3.72393 12.4916 3.72395 12.4915 3.72394 12.4915C3.64929 12.5945 3.72217 12.7372 3.84903 12.7372H8.51163C8.89398 12.7372 9.20394 13.0471 9.20394 13.4295V18.358C9.20394 18.4091 9.21822 18.4356 9.23096 18.452C9.24683 18.4727 9.27397 18.4935 9.3108 18.5054C9.34773 18.5174 9.38179 18.5165 9.40662 18.5092C9.42646 18.5034 9.45351 18.4904 9.4837 18.4489L15.1829 10.5993C15.2564 10.4982 15.1846 10.3538 15.0578 10.3538H10.3951C10.0128 10.3538 9.70283 10.0438 9.70283 9.6615V4.73304C9.70283 4.68227 9.68871 4.65601 9.67606 4.63967C9.6601 4.61909 9.63305 4.59826 9.59594 4.58623C9.55893 4.57419 9.52477 4.57511 9.49976 4.58241C9.47982 4.58821 9.45286 4.60117 9.42286 4.6424Z" fill="black"/>
</svg>
