<svg width="24" height="24" viewBox="0 0 24 24" fill="none" xmlns="http://www.w3.org/2000/svg">
<path fill-rule="evenodd" clip-rule="evenodd" d="M7.0962 3.73126C5.42948 3.73126 4.07905 5.08191 4.07905 6.74746V8.26157C4.07905 8.65921 3.7567 8.98157 3.35905 8.98157C2.96141 8.98157 2.63905 8.65921 2.63905 8.26157V6.74746C2.63905 4.28638 4.63441 2.29126 7.0962 2.29126H8.33382C8.73146 2.29126 9.05382 2.61362 9.05382 3.01126C9.05382 3.4089 8.73146 3.73126 8.33382 3.73126H7.0962Z" fill="black"/>
<path fill-rule="evenodd" clip-rule="evenodd" d="M3.35905 14.3213C3.7567 14.3213 4.07905 14.6437 4.07905 15.0413V16.5554C4.07905 18.2209 5.42948 19.5715 7.0962 19.5715H8.303C8.70064 19.5715 9.023 19.8939 9.023 20.2915C9.023 20.6893 8.70064 21.0115 8.303 21.0115H7.0962C4.63441 21.0115 2.63905 19.0165 2.63905 16.5554V15.0413C2.63905 14.6437 2.96141 14.3213 3.35905 14.3213Z" fill="black"/>
<path fill-rule="evenodd" clip-rule="evenodd" d="M20.6394 14.3213C21.0371 14.3213 21.3594 14.6437 21.3594 15.0413V16.5554C21.3594 19.0165 19.3641 21.0115 16.9023 21.0115H15.6647C15.2671 21.0115 14.9447 20.6893 14.9447 20.2915C14.9447 19.8939 15.2671 19.5715 15.6647 19.5715H16.9023C18.569 19.5715 19.9194 18.2209 19.9194 16.5554V15.0413C19.9194 14.6437 20.2418 14.3213 20.6394 14.3213Z" fill="black"/>
<path fill-rule="evenodd" clip-rule="evenodd" d="M14.9747 3.01126C14.9747 2.61362 15.297 2.29126 15.6947 2.29126H16.9015C19.3633 2.29126 21.3587 4.28639 21.3587 6.74746V8.26157C21.3587 8.65921 21.0363 8.98157 20.6387 8.98157C20.241 8.98157 19.9187 8.65921 19.9187 8.26157V6.74746C19.9187 5.08191 18.5682 3.73126 16.9015 3.73126H15.6947C15.297 3.73126 14.9747 3.4089 14.9747 3.01126Z" fill="black"/>
<path fill-rule="evenodd" clip-rule="evenodd" d="M11.0144 7.66125L9.42041 11.5506H10.8513C11.5221 11.5506 12.0106 12.1865 11.8378 12.8347L11.4124 14.4301L14.2777 11.1596H12.7494C12.0447 11.1596 11.5519 10.4628 11.7867 9.79834C11.7918 9.78413 11.7972 9.77002 11.8032 9.7561L12.6957 7.66125H11.0144ZM9.78065 6.87436C9.9324 6.48135 10.3106 6.22125 10.7331 6.22125H13.3304C14.035 6.22125 14.5278 6.91814 14.293 7.5825C14.288 7.59677 14.2825 7.61087 14.2765 7.62479L13.3839 9.71962H15.2018C16.0793 9.71962 16.548 10.7534 15.9698 11.4134L11.3132 16.7285C10.6015 17.5408 9.28043 16.8362 9.5587 15.7926L10.3059 12.9906H8.79565C8.08588 12.9906 7.59266 12.2844 7.8371 11.618C7.84019 11.6096 7.84343 11.6012 7.84683 11.593L9.78065 6.87436Z" fill="black"/>
</svg>
