<svg width="24" height="24" viewBox="0 0 24 24" fill="none" xmlns="http://www.w3.org/2000/svg">
<path fill-rule="evenodd" clip-rule="evenodd" d="M10.0599 4.19391C9.67546 4.19391 9.36 4.50722 9.36 4.89833V6.3685C9.36 6.76084 9.67574 7.07385 10.0599 7.07385H13.941C14.3245 7.07385 14.64 6.76146 14.64 6.36851V4.89833C14.64 4.50661 14.3248 4.19391 13.941 4.19391H10.0599ZM7.92 4.89833C7.92 3.7165 8.8756 2.75391 10.0599 2.75391H13.941C15.126 2.75391 16.08 3.71711 16.08 4.89833V6.36851C16.08 7.55033 15.1262 8.51385 13.941 8.51385H10.0599C8.8753 8.51385 7.92 7.55096 7.92 6.3685V4.89833Z" fill="currentColor"/>
<path fill-rule="evenodd" clip-rule="evenodd" d="M4.77993 16.194C4.39545 16.194 4.08 16.5072 4.08 16.8983V18.3685C4.08 18.7608 4.39575 19.0739 4.77993 19.0739H8.661C9.04456 19.0739 9.36 18.7615 9.36 18.3685V16.8983C9.36 16.5066 9.04487 16.194 8.661 16.194H4.77993ZM2.64 16.8983C2.64 15.7164 3.5956 14.754 4.77993 14.754H8.661C9.84595 14.754 10.8 15.7171 10.8 16.8983V18.3685C10.8 19.5503 9.84624 20.5139 8.661 20.5139H4.77993C3.5953 20.5139 2.64 19.551 2.64 18.3685V16.8983Z" fill="currentColor"/>
<path fill-rule="evenodd" clip-rule="evenodd" d="M15.3399 16.194C14.9555 16.194 14.64 16.5072 14.64 16.8983V18.3685C14.64 18.7608 14.9557 19.0739 15.3399 19.0739H19.221C19.6045 19.0739 19.92 18.7615 19.92 18.3685V16.8983C19.92 16.5066 19.6048 16.194 19.221 16.194H15.3399ZM13.2 16.8983C13.2 15.7164 14.1556 14.754 15.3399 14.754H19.221C20.406 14.754 21.36 15.7171 21.36 16.8983V18.3685C21.36 19.5503 20.4062 20.5139 19.221 20.5139H15.3399C14.1553 20.5139 13.2 19.551 13.2 18.3685V16.8983Z" fill="currentColor"/>
<path fill-rule="evenodd" clip-rule="evenodd" d="M12 7.07391C12.3976 7.07391 12.72 7.39627 12.72 7.79391V11.634C12.72 12.0316 12.3976 12.354 12 12.354C11.6024 12.354 11.28 12.0316 11.28 11.634V7.79391C11.28 7.39627 11.6024 7.07391 12 7.07391Z" fill="currentColor"/>
<path fill-rule="evenodd" clip-rule="evenodd" d="M8.64 12.354C7.97725 12.354 7.44 12.8912 7.44 13.554V15.474C7.44 15.8716 7.11764 16.194 6.72 16.194C6.32236 16.194 6 15.8716 6 15.474V13.554C6 12.0959 7.18197 10.914 8.64 10.914H15.36C16.818 10.914 18 12.0959 18 13.554V15.474C18 15.8716 17.6776 16.194 17.28 16.194C16.8824 16.194 16.56 15.8716 16.56 15.474V13.554C16.56 12.8912 16.0228 12.354 15.36 12.354H8.64Z" fill="currentColor"/>
</svg>
