<svg width="24" height="24" viewBox="0 0 24 24" fill="none" xmlns="http://www.w3.org/2000/svg">
<path fill-rule="evenodd" clip-rule="evenodd" d="M4.60602 5.84157C4.03847 6.45066 3.69229 7.34495 3.69229 8.45949V15.2448C3.69229 16.3598 4.03842 17.2516 4.60536 17.8583C5.16733 18.4597 5.99817 18.8374 7.08644 18.8374H10.0924C10.4748 18.8374 10.7848 19.1474 10.7848 19.5297C10.7848 19.9121 10.4748 20.222 10.0924 20.222H7.08644C5.65817 20.222 4.44578 19.7155 3.59367 18.8036C2.74651 17.897 2.30768 16.6464 2.30768 15.2448V8.45949C2.30768 7.05839 2.74646 5.80617 3.59301 4.89765C4.44468 3.98365 5.65709 3.47416 7.08644 3.47416H14.2777C15.7107 3.47416 16.9233 3.98336 17.7741 4.8981C18.6196 5.8071 19.0555 7.05944 19.0555 8.45949V10.262C19.0555 10.6444 18.7456 10.9543 18.3632 10.9543C17.9809 10.9543 17.6709 10.6444 17.6709 10.262V8.45949C17.6709 7.34391 17.3264 6.44973 16.7603 5.84113C16.1995 5.23827 15.3694 4.85877 14.2777 4.85877H7.08644C5.99926 4.85877 5.16844 5.23797 4.60602 5.84157Z" fill="currentColor"/>
<path fill-rule="evenodd" clip-rule="evenodd" d="M17.4221 13.4498L13.8575 17.34C13.6827 17.5367 13.5729 17.7845 13.5446 18.0475L13.4529 18.893C13.4368 19.0405 13.567 19.1634 13.7134 19.1389L14.5325 19.0014C14.8167 18.9539 15.0774 18.8104 15.2716 18.5941L15.2764 18.5886L18.8051 14.7376L18.8073 14.7351C18.97 14.5593 18.9588 14.2861 18.7843 14.1247L18.0316 13.4277C17.8562 13.2654 17.5836 13.2762 17.4221 13.4498ZM16.4048 12.5105C17.086 11.7742 18.2353 11.7298 18.972 12.4114L19.7246 13.1082C20.4601 13.7889 20.5051 14.9373 19.825 15.674L16.2995 19.5217C15.8975 19.9684 15.3561 20.2674 14.7614 20.367L13.9426 20.5044C12.8909 20.681 11.9613 19.8033 12.0763 18.7438L12.1679 17.899C12.2274 17.3479 12.4581 16.8279 12.8278 16.4143L12.8334 16.4081L16.4048 12.5105Z" fill="currentColor"/>
<path fill-rule="evenodd" clip-rule="evenodd" d="M13.2727 3.48318C13.6551 3.48318 13.965 3.79313 13.965 4.17549V8.59738H18.3632C18.7456 8.59738 19.0555 8.90734 19.0555 9.28969C19.0555 9.67204 18.7456 9.982 18.3632 9.982H13.965V11.9568C13.965 12.3391 13.6551 12.6491 13.2727 12.6491C12.8904 12.6491 12.5804 12.3391 12.5804 11.9568V9.982H8.80475V13.7554H10.7813C11.1637 13.7554 11.4736 14.0654 11.4736 14.4477C11.4736 14.8301 11.1637 15.14 10.7813 15.14H8.80475V19.5297C8.80475 19.9121 8.49479 20.222 8.11244 20.222C7.73009 20.222 7.42013 19.9121 7.42013 19.5297V15.14H2.99999C2.61764 15.14 2.30768 14.8301 2.30768 14.4477C2.30768 14.0654 2.61764 13.7554 2.99999 13.7554H7.42013V9.982H3.00174C2.61939 9.982 2.30943 9.67204 2.30943 9.28969C2.30943 8.90734 2.61939 8.59738 3.00174 8.59738H7.42013V4.17899C7.42013 3.79664 7.73009 3.48669 8.11244 3.48669C8.49479 3.48669 8.80475 3.79664 8.80475 4.17899V8.59738H12.5804V4.17549C12.5804 3.79313 12.8904 3.48318 13.2727 3.48318Z" fill="currentColor"/>
</svg>
