<svg width="24" height="24" viewBox="0 0 24 24" fill="none" xmlns="http://www.w3.org/2000/svg">
<path d="M6.49922 18.414C6.36016 18.4142 6.22407 18.3738 6.10755 18.2979C3.78531 16.7926 2.39906 14.6028 2.39906 12.4419C2.39906 8.49823 6.86211 4.90687 11.7638 4.90687C13.7634 4.91892 15.7182 5.49962 17.4 6.58111C17.4821 6.63116 17.5532 6.6971 17.6094 6.77507C17.6655 6.85305 17.7055 6.94147 17.7269 7.03513C17.7483 7.12878 17.7508 7.22579 17.7342 7.32042C17.7176 7.41505 17.6821 7.50538 17.63 7.58612C17.578 7.66684 17.5102 7.73635 17.4308 7.7905C17.3515 7.84466 17.2621 7.88237 17.1679 7.90144C17.0737 7.92051 16.9767 7.92052 16.8826 7.90151C16.7884 7.88249 16.6989 7.84482 16.6195 7.79071C15.1703 6.85982 13.4863 6.36038 11.7638 6.35071C7.69059 6.35071 3.83906 9.31326 3.83906 12.4457C3.83906 14.12 4.97954 15.8585 6.89186 17.0969C7.02256 17.1814 7.1224 17.3058 7.17642 17.4517C7.23045 17.5977 7.23575 17.7572 7.19154 17.9064C7.14733 18.0555 7.05598 18.1863 6.93118 18.2793C6.80638 18.3722 6.65481 18.4222 6.49922 18.4217V18.414Z" fill="currentColor"/>
<path d="M9.67133 15.2342C9.48174 15.2345 9.29983 15.1596 9.1654 15.026C8.65183 14.5135 8.30168 13.8602 8.15924 13.1487C8.01679 12.4373 8.08844 11.6995 8.36511 11.0288C8.64177 10.358 9.11105 9.78432 9.71367 9.38017C10.3163 8.97602 11.0251 8.75955 11.7507 8.75812C12.721 8.78076 13.6482 9.16331 14.3523 9.83145C14.4875 9.96633 14.5635 10.1495 14.5637 10.3404C14.5639 10.5315 14.4882 10.7147 14.3533 10.8499C14.2183 10.9852 14.0352 11.0612 13.8442 11.0614C13.6531 11.0616 13.4699 10.9859 13.3347 10.851C12.9155 10.4346 12.3492 10.2001 11.7584 10.1981H11.7536C11.1622 10.1996 10.5957 10.4358 10.1783 10.8546C9.76099 11.2734 9.5268 11.8407 9.52731 12.4321C9.52491 12.7241 9.58131 13.0137 9.69312 13.2835C9.80496 13.5533 9.96989 13.7979 10.1782 14.0027C10.3137 14.137 10.3903 14.3196 10.3911 14.5104C10.3921 14.7012 10.3172 14.8846 10.183 15.0203C10.1164 15.0883 10.0367 15.1424 9.94887 15.1791C9.86093 15.2159 9.76656 15.2346 9.67133 15.2342Z" fill="currentColor"/>
<path d="M4.39718 20.5153C4.25487 20.5152 4.11579 20.4729 3.99751 20.3938C3.87922 20.3147 3.78702 20.2022 3.73258 20.0707C3.67814 19.9393 3.66389 19.7946 3.69162 19.655C3.71935 19.5155 3.78781 19.3872 3.88838 19.2865L18.6148 4.56011C18.7513 4.43293 18.9318 4.3637 19.1183 4.36698C19.3048 4.37027 19.4828 4.44583 19.6147 4.57775C19.7466 4.70966 19.8222 4.88763 19.8255 5.07416C19.8288 5.26069 19.7596 5.44122 19.6324 5.5777L4.90598 20.3041C4.83937 20.3712 4.76009 20.4245 4.67275 20.4608C4.58541 20.497 4.49175 20.5156 4.39718 20.5153Z" fill="currentColor"/>
<path d="M12.291 16.0503C12.1111 16.0507 11.9376 15.9837 11.8046 15.8625C11.6717 15.7412 11.5889 15.5747 11.5726 15.3954C11.5564 15.2163 11.6078 15.0374 11.7168 14.8943C11.8258 14.7512 11.9844 14.6539 12.1614 14.6219C12.6061 14.5389 13.0151 14.3231 13.3348 14.0029C13.6544 13.6829 13.8695 13.2734 13.9518 12.8287C13.9914 12.646 14.1006 12.4859 14.256 12.382C14.4114 12.2782 14.6011 12.2388 14.7851 12.2723C14.969 12.3056 15.1328 12.4091 15.2418 12.5609C15.351 12.7127 15.3968 12.901 15.3697 13.0859C15.2337 13.8181 14.8792 14.4921 14.3531 15.0191C13.8269 15.5461 13.1535 15.9016 12.4215 16.0389C12.3784 16.0465 12.3348 16.0503 12.291 16.0503Z" fill="currentColor"/>
<path d="M11.7665 19.9736C10.9082 19.9746 10.0532 19.8659 9.22251 19.65C9.04335 19.5971 8.89177 19.4766 8.79981 19.3139C8.70786 19.1513 8.68272 18.9593 8.72971 18.7785C8.77669 18.5977 8.8921 18.4422 9.05159 18.3449C9.21109 18.2476 9.40214 18.2161 9.58441 18.2571C10.2971 18.4414 11.0304 18.5343 11.7665 18.5336C15.835 18.5336 19.6817 15.571 19.6817 12.4385C19.6477 11.4035 19.2732 10.4088 18.6161 9.60844C18.5 9.4568 18.4489 9.26527 18.474 9.07596C18.4991 8.88666 18.5984 8.71509 18.7501 8.59899C18.9016 8.48288 19.0932 8.43176 19.2825 8.45688C19.4718 8.48199 19.6434 8.58128 19.7595 8.7329C20.6102 9.78384 21.0892 11.0867 21.1217 12.4385C21.1217 16.3822 16.6625 19.9736 11.7665 19.9736Z" fill="currentColor"/>
</svg>
