<svg width="24" height="24" viewBox="0 0 24 24" fill="none" xmlns="http://www.w3.org/2000/svg">
<path d="M11 3H13V5H11V3Z" fill="currentColor"/>
<path d="M9 5H11V7H9V5Z" fill="currentColor"/>
<path d="M13 5H15V7H13V5Z" fill="currentColor"/>
<path d="M11 7H13V9H11V7Z" fill="currentColor"/>
<path d="M9 9H11V11H9V9Z" fill="currentColor"/>
<path d="M13 9H15V11H13V9Z" fill="currentColor"/>
<path d="M11 11H13V13H11V11Z" fill="currentColor"/>
<path d="M3 3H5V5H3V3Z" fill="currentColor"/>
<path d="M3 7H5V9H3V7Z" fill="currentColor"/>
<path d="M3 11H5V13H3V11Z" fill="currentColor"/>
<path d="M5 5H7V7H5V5Z" fill="currentColor"/>
<path d="M5 9H7V11H5V9Z" fill="currentColor"/>
<path d="M7 3H9V5H7V3Z" fill="currentColor"/>
<path d="M7 7H9V9H7V7Z" fill="currentColor"/>
<path d="M7 11H9V13H7V11Z" fill="currentColor"/>
<path d="M15 3H17V5H15V3Z" fill="currentColor"/>
<path d="M15 7H17V9H15V7Z" fill="currentColor"/>
<path d="M15 11H17V13H15V11Z" fill="currentColor"/>
<path d="M17 5H19V7H17V5Z" fill="currentColor"/>
<path d="M17 9H19V11H17V9Z" fill="currentColor"/>
<path d="M19 3H21V5H19V3Z" fill="currentColor"/>
<path d="M19 7H21V9H19V7Z" fill="currentColor"/>
<path d="M19 11H21V13H19V11Z" fill="currentColor"/>
<path d="M3 15H5V17H3V15Z" fill="currentColor"/>
<path d="M3 19H5V21H3V19Z" fill="currentColor"/>
<path d="M5 13H7V15H5V13Z" fill="currentColor"/>
<path d="M5 17H7V19H5V17Z" fill="currentColor"/>
<path d="M7 15H9V17H7V15Z" fill="currentColor"/>
<path d="M7 19H9V21H7V19Z" fill="currentColor"/>
<path d="M15 15H17V17H15V15Z" fill="currentColor"/>
<path d="M15 19H17V21H15V19Z" fill="currentColor"/>
<path d="M17 13H19V15H17V13Z" fill="currentColor"/>
<path d="M17 17H19V19H17V17Z" fill="currentColor"/>
<path d="M19 15H21V17H19V15Z" fill="currentColor"/>
<path d="M19 19H21V21H19V19Z" fill="currentColor"/>
<path d="M13 13H15V15H13V13Z" fill="currentColor"/>
<path d="M9 17H11V19H9V17Z" fill="currentColor"/>
<path d="M9 13H11V15H9V13Z" fill="currentColor"/>
<path d="M11 15H13V17H11V15Z" fill="currentColor"/>
<path d="M11 19H13V21H11V19Z" fill="currentColor"/>
<path d="M13 17H15V19H13V17Z" fill="currentColor"/>
</svg>
