<svg width="24" height="24" viewBox="0 0 24 24" fill="none" xmlns="http://www.w3.org/2000/svg">
<path fill-rule="evenodd" clip-rule="evenodd" d="M8.40935 7.73061C8.40935 7.33297 8.7317 7.01061 9.12935 7.01061H14.9709C15.3686 7.01061 15.6909 7.33297 15.6909 7.73061C15.6909 8.12826 15.3686 8.45061 14.9709 8.45061H9.12935C8.7317 8.45061 8.40935 8.12826 8.40935 7.73061Z" fill="#61646C"/>
<path d="M16.0971 21.081H8.00042C4.82282 21.081 2.68872 18.8461 2.68872 15.5197V7.86473C2.68872 4.53833 4.82282 2.30249 8.00042 2.30249H16.098C19.2737 2.30249 21.4087 4.53833 21.4087 7.86473V15.5197C21.4087 18.8461 19.2737 21.081 16.0971 21.081ZM8.00042 3.74633C5.64842 3.74633 4.12872 5.36489 4.12872 7.86857V15.5236C4.12872 18.0273 5.64842 19.6449 8.00042 19.6449H16.0971C18.4491 19.6449 19.9687 18.0273 19.9687 15.5236V7.86473C19.9687 5.36105 18.4491 3.74249 16.098 3.74249L8.00042 3.74633Z" fill="#61646C"/>
<path d="M12.0438 15.6547C11.3855 15.6567 10.7399 15.4733 10.181 15.1255C9.62195 14.7776 9.17236 14.2792 8.88349 13.6877C8.75908 13.4328 8.56543 13.2181 8.32468 13.0682C8.08393 12.9183 7.80582 12.8392 7.5222 12.84H3.41341C3.22245 12.84 3.03931 12.7641 2.90429 12.6291C2.76926 12.4941 2.69341 12.3109 2.69341 12.12C2.69341 11.929 2.76926 11.7459 2.90429 11.6109C3.03931 11.4758 3.22245 11.4 3.41341 11.4H7.5222C8.07467 11.3984 8.61646 11.5522 9.08555 11.8441C9.55464 12.1359 9.93203 12.5539 10.1747 13.0502C10.3461 13.3997 10.612 13.6941 10.9423 13.9C11.2727 14.1059 11.6541 14.2151 12.0434 14.2151C12.4325 14.2151 12.814 14.1059 13.1443 13.9C13.4746 13.6941 13.7405 13.3997 13.912 13.0502C14.1548 12.5538 14.5324 12.1357 15.0016 11.8439C15.4709 11.5521 16.0128 11.3983 16.5654 11.4H20.6838C20.8748 11.4 21.0579 11.4758 21.1929 11.6109C21.3279 11.7459 21.4038 11.929 21.4038 12.12C21.4038 12.3109 21.3279 12.4941 21.1929 12.6291C21.0579 12.7641 20.8748 12.84 20.6838 12.84H16.5712C16.2873 12.8391 16.0089 12.9182 15.768 13.0684C15.527 13.2184 15.3333 13.4335 15.209 13.6886C14.9197 14.2809 14.4694 14.7796 13.9094 15.1274C13.3495 15.4752 12.7029 15.658 12.0438 15.6547Z" fill="#61646C"/>
</svg>
