<svg width="24" height="24" viewBox="0 0 24 24" fill="none" xmlns="http://www.w3.org/2000/svg">
<path fill-rule="evenodd" clip-rule="evenodd" d="M15.1571 6.34863C15.4388 6.62925 15.4397 7.08512 15.1591 7.36686L12.0011 10.5374C11.8659 10.6732 11.6822 10.7494 11.4907 10.7493C11.2992 10.7493 11.1156 10.6729 10.9805 10.5372L9.44769 8.99635C9.16724 8.71445 9.16842 8.25858 9.45034 7.97813C9.73229 7.69769 10.1881 7.69887 10.4686 7.98078L11.4912 9.00877L14.1388 6.35064C14.4194 6.06891 14.8753 6.06801 15.1571 6.34863Z" fill="currentColor"/>
<path d="M16.0971 21.081H8.00045C4.82285 21.081 2.68875 18.8461 2.68875 15.5197V7.86475C2.68875 4.53835 4.82285 2.30251 8.00045 2.30251H16.0981C19.2737 2.30251 21.4088 4.53835 21.4088 7.86475V15.5197C21.4088 18.8461 19.2737 21.081 16.0971 21.081ZM8.00045 3.74635C5.64845 3.74635 4.12875 5.36491 4.12875 7.86859V15.5236C4.12875 18.0273 5.64845 19.6449 8.00045 19.6449H16.0971C18.4491 19.6449 19.9688 18.0273 19.9688 15.5236V7.86475C19.9688 5.36107 18.4491 3.74251 16.0981 3.74251L8.00045 3.74635Z" fill="currentColor"/>
<path d="M12.0467 16.3279C11.3883 16.3299 10.7427 16.1464 10.1838 15.7985C9.62487 15.4507 9.1752 14.9524 8.88633 14.3608C8.76192 14.106 8.56827 13.8913 8.32752 13.7413C8.08677 13.5914 7.80866 13.5124 7.52505 13.5132H3.41625C3.2253 13.5132 3.04216 13.4373 2.90713 13.3022C2.77211 13.1673 2.69625 12.9841 2.69625 12.7932C2.69625 12.6022 2.77211 12.419 2.90713 12.2841C3.04216 12.149 3.2253 12.0732 3.41625 12.0732H7.52505C8.07751 12.0714 8.6193 12.2253 9.08839 12.5172C9.55748 12.809 9.93495 13.2271 10.1775 13.7234C10.3489 14.0728 10.6149 14.3673 10.9452 14.5732C11.2755 14.779 11.6569 14.8882 12.0462 14.8882C12.4354 14.8882 12.8169 14.779 13.1471 14.5732C13.4774 14.3673 13.7435 14.0728 13.9148 13.7234C14.1576 13.227 14.5352 12.8089 15.0044 12.5171C15.4737 12.2252 16.0157 12.0714 16.5683 12.0732H20.6867C20.8776 12.0732 21.0608 12.149 21.1957 12.2841C21.3308 12.419 21.4067 12.6022 21.4067 12.7932C21.4067 12.9841 21.3308 13.1673 21.1957 13.3022C21.0608 13.4373 20.8776 13.5132 20.6867 13.5132H16.574C16.2901 13.5123 16.0117 13.5914 15.7708 13.7415C15.5298 13.8916 15.3361 14.1066 15.2118 14.3618C14.9226 14.9541 14.4722 15.4527 13.9123 15.8005C13.3525 16.1484 12.7058 16.3311 12.0467 16.3279Z" fill="currentColor"/>
</svg>
