<svg width="24" height="24" viewBox="0 0 24 24" fill="none" xmlns="http://www.w3.org/2000/svg">
<path fill-rule="evenodd" clip-rule="evenodd" d="M11.3077 4.38462C7.10148 4.38462 3.69229 7.79381 3.69229 12C3.69229 16.2054 7.10154 19.6154 11.3077 19.6154C15.5139 19.6154 18.9231 16.2054 18.9231 12C18.9231 7.79381 15.5139 4.38462 11.3077 4.38462ZM2.30768 12C2.30768 7.02911 6.33679 3 11.3077 3C16.2785 3 20.3077 7.02911 20.3077 12C20.3077 16.9699 16.2786 21 11.3077 21C6.33673 21 2.30768 16.9699 2.30768 12Z" fill="currentColor"/>
<path fill-rule="evenodd" clip-rule="evenodd" d="M11.3077 7.88402C11.69 7.88402 12 8.19397 12 8.57633V8.6347C12 9.01705 11.69 9.32701 11.3077 9.32701C10.9253 9.32701 10.6154 9.01705 10.6154 8.6347V8.57633C10.6154 8.19397 10.9253 7.88402 11.3077 7.88402ZM11.3129 10.7479C11.6953 10.7479 12.0052 11.0579 12.0052 11.4402V15.4091C12.0052 15.7914 11.6953 16.1014 11.3129 16.1014C10.9306 16.1014 10.6206 15.7914 10.6206 15.4091V11.4402C10.6206 11.0579 10.9306 10.7479 11.3129 10.7479Z" fill="currentColor"/>
</svg>
