<svg width="24" height="24" viewBox="0 0 24 24" fill="none" xmlns="http://www.w3.org/2000/svg">
<path d="M19.1588 21.1394H16.898C16.3783 21.1389 15.8799 20.9321 15.5124 20.5646C15.145 20.1971 14.9382 19.6988 14.9377 19.1791C14.9383 19.0433 14.8854 18.9128 14.7906 18.8156C14.6958 18.7185 14.5666 18.6625 14.4308 18.6597C14.1691 18.6594 13.91 18.6075 13.6685 18.5067C13.4269 18.4059 13.2078 18.2583 13.0235 18.0724C12.8392 17.8865 12.6936 17.6661 12.5949 17.4237C12.4962 17.1813 12.4464 16.9217 12.4484 16.66L12.4599 16.0629L11.9886 15.5925C11.0429 16.003 10.0166 16.195 8.98648 16.1542C7.95628 16.1133 6.94856 15.8407 6.03828 15.3565C5.128 14.8724 4.3386 14.1893 3.72883 13.3579C3.11906 12.5266 2.70459 11.5684 2.51628 10.5547C2.32797 9.54106 2.37067 8.49794 2.64119 7.50305C2.9117 6.50815 3.40307 5.58707 4.07874 4.80832C4.75441 4.02957 5.597 3.41322 6.54379 3.00509C7.49059 2.59698 8.51724 2.40763 9.54733 2.4511C11.2682 2.54807 12.8919 3.27964 14.1046 4.50439C15.3173 5.72915 16.0328 7.36009 16.1127 9.0818C16.1409 9.93533 16.0087 10.7865 15.723 11.5912L19.8836 15.7519C20.675 16.5463 21.1193 17.622 21.1191 18.7432V19.1791C21.1187 19.6988 20.912 20.1971 20.5445 20.5646C20.1769 20.9321 19.6786 21.1389 19.1588 21.1394ZM12.1355 14.0008C12.23 14.0007 12.3237 14.0194 12.411 14.0555C12.4983 14.0918 12.5776 14.145 12.6443 14.212L13.6945 15.2623C13.763 15.3306 13.8171 15.4121 13.8534 15.5019C13.8897 15.5916 13.9075 15.6877 13.9057 15.7845L13.8884 16.6879C13.8861 16.825 13.9379 16.9575 14.0326 17.0567C14.1273 17.1559 14.2572 17.2138 14.3943 17.2178C14.6535 17.2159 14.9104 17.2652 15.1505 17.3628C15.3905 17.4604 15.6089 17.6045 15.7932 17.7867C15.9775 17.9689 16.124 18.1857 16.2243 18.4246C16.3246 18.6636 16.3767 18.92 16.3777 19.1791C16.378 19.317 16.4329 19.4492 16.5304 19.5467C16.628 19.6442 16.7602 19.6991 16.898 19.6994H19.1588C19.2968 19.6991 19.429 19.6442 19.5265 19.5467C19.624 19.4492 19.6788 19.317 19.6791 19.1791V18.7432C19.6788 18.0023 19.3852 17.2915 18.8622 16.7666L14.3703 12.2747C14.2677 12.1723 14.1984 12.0412 14.1715 11.8987C14.1446 11.7562 14.1613 11.6089 14.2196 11.476C14.5453 10.737 14.7005 9.93408 14.6737 9.12692C14.6386 8.04085 14.2777 6.99048 13.6378 6.11221C12.9979 5.23394 12.1088 4.56836 11.0858 4.20199C10.0627 3.83563 8.95319 3.78539 7.90125 4.05779C6.84931 4.33019 5.90362 4.91263 5.187 5.72947C4.65005 6.34263 4.25769 7.06857 4.03885 7.85367C3.82002 8.63877 3.78032 9.46296 3.92268 10.2655C4.07339 11.1051 4.42044 11.8973 4.93554 12.5773C5.45064 13.2573 6.1192 13.806 6.88668 14.1785C7.65414 14.551 8.49878 14.7369 9.35172 14.7208C10.2047 14.7048 11.0417 14.4874 11.7947 14.0863C11.8994 14.0299 12.0165 14.0005 12.1355 14.0008Z" fill="currentColor"/>
<path d="M9.25674 11.4991C8.82274 11.4991 8.39848 11.3704 8.03761 11.1294C7.67674 10.8882 7.39546 10.5456 7.22933 10.1446C7.0632 9.74361 7.01968 9.30243 7.10429 8.87675C7.18888 8.45107 7.39781 8.06005 7.70462 7.7531C8.01144 7.44614 8.40237 7.23706 8.82802 7.15228C9.25365 7.06749 9.69485 7.11083 10.0959 7.27679C10.4969 7.44274 10.8397 7.72385 11.081 8.08462C11.3222 8.44539 11.4511 8.8696 11.4513 9.30361C11.4505 9.8855 11.2191 10.4434 10.8078 10.8549C10.3964 11.2665 9.83865 11.4981 9.25674 11.4991ZM9.25674 8.54904C9.10751 8.54904 8.96162 8.59327 8.83754 8.67618C8.71345 8.75909 8.61674 8.87697 8.55963 9.01486C8.50252 9.15273 8.48757 9.30442 8.51669 9.45079C8.5458 9.59717 8.61766 9.73161 8.72319 9.83712C8.82872 9.94272 8.96317 10.0145 9.10955 10.0436C9.25592 10.0728 9.40763 10.0578 9.54551 10.0007C9.68342 9.94358 9.80122 9.84691 9.88416 9.72278C9.96701 9.5987 10.0113 9.45284 10.0113 9.30361C10.0108 9.10364 9.9311 8.91197 9.7897 8.77058C9.64838 8.62918 9.45671 8.54955 9.25674 8.54904Z" fill="currentColor"/>
</svg>
