<svg width="24" height="24" viewBox="0 0 24 24" fill="none" xmlns="http://www.w3.org/2000/svg">
<path fill-rule="evenodd" clip-rule="evenodd" d="M14.8603 15.7823C17.686 14.3807 19.4696 11.1995 18.7416 7.76666C18.1496 4.98266 15.8667 2.77474 13.0509 2.20834C8.32406 1.26753 4.11375 4.78116 4.11375 9.31237C4.11375 12.1453 5.76844 14.5857 8.16844 15.7727V17.4819C8.16844 19.3059 9.68621 20.7747 11.5148 20.7747C13.3429 20.7747 14.8603 19.3059 14.8603 17.4819V15.7823ZM9.07172 14.6019H10.7888V10.954L9.20016 9.36029C8.91891 9.08188 8.91891 8.63077 9.20016 8.34276C9.4814 8.06435 9.93706 8.06435 10.2182 8.34276L11.5083 9.63676L12.7979 8.34276C13.079 8.06435 13.5347 8.06435 13.8159 8.34276C14.0972 8.63077 14.0972 9.08188 13.8159 9.36029L12.2288 10.9529V14.6019H13.9777C16.3912 13.5414 17.9367 10.9099 17.333 8.06432C16.8637 5.86591 15.0351 4.07071 12.7692 3.61951C8.91094 2.85152 5.55375 5.71237 5.55375 9.31237C5.55375 11.6683 6.99187 13.7073 9.07172 14.6019ZM13.4203 16.0419V17.4819C13.4203 18.4899 12.5747 19.3347 11.5148 19.3347C10.4536 19.3347 9.60845 18.4899 9.60845 17.4819V16.0419H11.3916C11.4296 16.0482 11.4689 16.0515 11.5088 16.0515C11.5486 16.0515 11.588 16.0482 11.626 16.0419H13.4203Z" fill="currentColor"/>
</svg>
