<svg width="24" height="24" viewBox="0 0 24 24" fill="none" xmlns="http://www.w3.org/2000/svg">
<path stroke-width="1.5" fill-rule="evenodd" clip-rule="evenodd" d="M3.68416 4.52065C4.59291 3.5457 5.88708 3 7.4152 3H15.2011C16.7328 3 18.0275 3.54539 18.9359 4.52091C19.839 5.49084 20.3086 6.82974 20.3086 8.33204V15.6679C20.3086 17.1702 19.839 18.5092 18.9357 19.4791C18.0272 20.4546 16.7322 21 15.2002 21H7.4152C5.88349 21 4.58894 20.4546 3.68081 19.479C2.7779 18.5091 2.30859 17.1702 2.30859 15.6679V8.33204C2.30859 6.82898 2.78044 5.49019 3.68416 4.52065ZM4.69701 5.46473C4.07189 6.13538 3.69321 7.11647 3.69321 8.33204V15.6679C3.69321 16.8844 4.07039 17.8653 4.6943 18.5356C5.31298 19.2003 6.22559 19.6154 7.4152 19.6154H15.2002C16.3903 19.6154 17.3034 19.2002 17.9224 18.5355C18.5466 17.8652 18.924 16.8843 18.924 15.6679V8.33204C18.924 7.1157 18.5466 6.13474 17.9225 5.46447C17.3036 4.79977 16.3907 4.38462 15.2011 4.38462H7.4152C6.23008 4.38462 5.3171 4.79947 4.69701 5.46473Z" fill="currentColor"/>
<path stroke-width="1.5" fill-rule="evenodd" clip-rule="evenodd" d="M8.11658 3C8.49894 3 8.80889 3.30996 8.80889 3.69231V20.3077C8.80889 20.69 8.49894 21 8.11658 21C7.73424 21 7.42428 20.69 7.42428 20.3077V3.69231C7.42428 3.30996 7.73424 3 8.11658 3Z" fill="currentColor"/>
<path stroke-width="1.5" fill-rule="evenodd" clip-rule="evenodd" d="M15.184 9.12389C15.4443 9.40408 15.428 9.84212 15.1479 10.1023L13.1058 11.9983L15.1479 13.8944C15.428 14.1546 15.4443 14.5926 15.184 14.8728C14.9239 15.153 14.4859 15.1692 14.2057 14.9091L11.6173 12.5057C11.4762 12.3747 11.396 12.1909 11.396 11.9983C11.396 11.8059 11.4762 11.622 11.6173 11.491L14.2057 9.08763C14.4859 8.82746 14.9239 8.84369 15.184 9.12389Z" fill="currentColor"/>
</svg>
