<svg width="24" height="24" viewBox="0 0 24 24" fill="none" xmlns="http://www.w3.org/2000/svg">
<path fill-rule="evenodd" clip-rule="evenodd" d="M8.89405 17.0775C9.42972 17.0775 9.86438 17.5116 9.86438 18.0478C9.86438 18.5833 9.43028 19.0182 8.89405 19.0182C8.3578 19.0182 7.92371 18.5833 7.92371 18.0478C7.92371 17.5116 8.35837 17.0775 8.89405 17.0775Z" fill="currentColor"/>
<path fill-rule="evenodd" clip-rule="evenodd" d="M8.89405 11.295C9.42972 11.295 9.86438 11.7292 9.86438 12.2652C9.86438 12.8008 9.43028 13.2357 8.89405 13.2357C8.3578 13.2357 7.92371 12.8008 7.92371 12.2652C7.92371 11.7292 8.35837 11.295 8.89405 11.295Z" fill="currentColor"/>
<path fill-rule="evenodd" clip-rule="evenodd" d="M8.89405 5.51625C9.42972 5.51625 9.86438 5.9504 9.86438 6.48652C9.86438 7.02208 9.43028 7.45694 8.89405 7.45694C8.3578 7.45694 7.92371 7.02208 7.92371 6.48652C7.92371 5.95039 8.35837 5.51625 8.89405 5.51625Z" fill="currentColor"/>
<path fill-rule="evenodd" clip-rule="evenodd" d="M15.1059 17.0775C15.6416 17.0775 16.0763 17.5116 16.0763 18.0478C16.0763 18.5833 15.6421 19.0182 15.1059 19.0182C14.5696 19.0182 14.1356 18.5833 14.1356 18.0478C14.1356 17.5116 14.5702 17.0775 15.1059 17.0775Z" fill="currentColor"/>
<path fill-rule="evenodd" clip-rule="evenodd" d="M15.1059 11.295C15.6416 11.295 16.0763 11.7292 16.0763 12.2652C16.0763 12.8008 15.6421 13.2357 15.1059 13.2357C14.5696 13.2357 14.1356 12.8008 14.1356 12.2652C14.1356 11.7292 14.5702 11.295 15.1059 11.295Z" fill="currentColor"/>
<path fill-rule="evenodd" clip-rule="evenodd" d="M15.1059 5.51625C15.6416 5.51625 16.0763 5.9504 16.0763 6.48652C16.0763 7.02208 15.6421 7.45694 15.1059 7.45694C14.5696 7.45694 14.1356 7.02208 14.1356 6.48652C14.1356 5.95039 14.5702 5.51625 15.1059 5.51625Z" fill="currentColor"/>
</svg>
