<svg width="24" height="24" viewBox="0 0 24 24" fill="none" xmlns="http://www.w3.org/2000/svg">
<path fill-rule="evenodd" clip-rule="evenodd" d="M8.18482 10.7006C8.18482 10.303 8.50718 9.98064 8.90482 9.98064H15.3565C15.7542 9.98064 16.0765 10.303 16.0765 10.7006C16.0765 11.0983 15.7542 11.4206 15.3565 11.4206H8.90482C8.50718 11.4206 8.18482 11.0983 8.18482 10.7006ZM8.13375 14.4458C8.13375 14.0482 8.4561 13.7258 8.85375 13.7258H12.1048C12.5025 13.7258 12.8248 14.0482 12.8248 14.4458C12.8248 14.8435 12.5025 15.1658 12.1048 15.1658H8.85375C8.4561 15.1658 8.13375 14.8435 8.13375 14.4458Z" fill="currentColor"/>
<path d="M12.024 21.4955C10.6752 21.4961 9.34235 21.2036 8.11778 20.6382C7.82058 20.4933 7.50246 20.3962 7.17506 20.3502C6.82842 20.3881 6.48881 20.4744 6.1661 20.6065C5.4317 20.8599 4.42562 21.2065 3.69986 20.4769C2.9741 19.7473 3.30434 18.7873 3.56834 18.0145C3.70148 17.686 3.78682 17.34 3.82178 16.9873C3.77753 16.654 3.6803 16.3299 3.53378 16.0273C2.73966 14.2834 2.49508 12.3391 2.83255 10.4529C3.17002 8.56658 4.07355 6.82769 5.42306 5.4673C6.29122 4.59611 7.3228 3.90487 8.45867 3.43321C9.59455 2.96155 10.8124 2.71875 12.0422 2.71875C13.2722 2.71875 14.49 2.96155 15.6258 3.43321C16.7617 3.90487 17.7933 4.59611 18.6614 5.4673C19.9746 6.77993 20.8689 8.45258 21.2312 10.2736C21.5934 12.0947 21.4074 13.9822 20.6966 15.6974C19.9859 17.4127 18.7823 18.8786 17.2381 19.9096C15.6941 20.9407 13.8788 21.4906 12.0221 21.4897L12.024 21.4955ZM7.17218 18.9131C7.69318 18.9475 8.20264 19.0821 8.67266 19.3095L8.70722 19.3239C9.78547 19.8205 10.9614 20.0693 12.1484 20.0517C13.3354 20.0341 14.5034 19.7508 15.5665 19.2224C16.6296 18.694 17.5607 17.934 18.2915 16.9984C19.0222 16.0628 19.5339 14.9753 19.7891 13.8158C20.0442 12.6564 20.0363 11.4546 19.7658 10.2987C19.4953 9.14277 18.9692 8.06213 18.2262 7.13628C17.4831 6.21043 16.542 5.46289 15.472 4.94863C14.402 4.43436 13.2303 4.16645 12.0432 4.16458C11.0026 4.16163 9.97171 4.36558 9.01052 4.76458C8.04937 5.16357 7.17713 5.74963 6.4445 6.48873C5.29948 7.64593 4.53417 9.12451 4.2505 10.7275C3.96683 12.3306 4.17827 13.982 4.85666 15.4619C5.08892 15.9404 5.22617 16.4594 5.26082 16.9902C5.23183 17.5014 5.1203 18.0045 4.93058 18.4801C4.83458 18.747 4.62722 19.3719 4.71938 19.4641C4.81154 19.5563 5.42978 19.3393 5.6957 19.2481C6.1669 19.0594 6.66546 18.9478 7.17218 18.9179V18.9131Z" fill="currentColor"/>
</svg>
