<svg width="24" height="24" viewBox="0 0 24 24" fill="none" xmlns="http://www.w3.org/2000/svg">
<path d="M11.3095 20.8525C11.1258 20.8525 10.9498 20.7796 10.8199 20.6498C10.6902 20.5199 10.6172 20.3439 10.6172 20.1602V17.5294C10.6172 17.3458 10.6902 17.1698 10.8199 17.0399C10.9498 16.9101 11.1258 16.8371 11.3095 16.8371C11.4931 16.8371 11.6692 16.9101 11.799 17.0399C11.9288 17.1698 12.0018 17.3458 12.0018 17.5294V20.1584C12.002 20.2494 11.9843 20.3397 11.9496 20.4239C11.915 20.5081 11.864 20.5846 11.7997 20.6491C11.7354 20.7136 11.659 20.7647 11.5748 20.7997C11.4907 20.8346 11.4006 20.8525 11.3095 20.8525Z" fill="currentColor"/>
<path d="M11.3113 18.2243C10.3444 18.2225 9.38732 18.0302 8.49474 17.6584C7.60217 17.2865 6.79159 16.7425 6.10934 16.0573C5.42707 15.3721 4.88651 14.5592 4.5185 13.665C4.15049 12.7709 3.96226 11.813 3.96456 10.8461C3.96469 10.7553 3.9827 10.6654 4.01755 10.5816C4.05241 10.4978 4.10343 10.4216 4.16771 10.3575C4.232 10.2934 4.30829 10.2425 4.39221 10.2079C4.47615 10.1732 4.56607 10.1555 4.65687 10.1557C4.74779 10.1559 4.83777 10.1741 4.92167 10.209C5.00557 10.244 5.08175 10.2953 5.14586 10.3597C5.20997 10.4242 5.26078 10.5006 5.29535 10.5847C5.32991 10.6688 5.34758 10.7588 5.34734 10.8497C5.34734 11.6325 5.50149 12.4075 5.80103 13.1307C6.10056 13.8538 6.53959 14.5109 7.09306 15.0643C7.64653 15.6178 8.30358 16.0568 9.02672 16.3564C9.74991 16.6559 10.5249 16.8101 11.3076 16.8101C12.0904 16.8101 12.8654 16.6559 13.5885 16.3564C14.3117 16.0568 14.9687 15.6178 15.5222 15.0643C16.0757 14.5109 16.5147 13.8538 16.8142 13.1307C17.1138 12.4075 17.2679 11.6325 17.2679 10.8497C17.2678 10.7588 17.2856 10.6688 17.3202 10.5848C17.355 10.5007 17.4059 10.4244 17.4701 10.36C17.5343 10.2956 17.6106 10.2445 17.6945 10.2096C17.7785 10.1747 17.8684 10.1567 17.9593 10.1565C18.0502 10.1564 18.1402 10.1742 18.2242 10.2089C18.3082 10.2436 18.3846 10.2945 18.4488 10.3588C18.5131 10.4229 18.5641 10.4993 18.5989 10.5832C18.6337 10.6671 18.6516 10.7571 18.6516 10.848C18.6534 12.7985 17.8818 14.6703 16.5058 16.0529C15.1299 17.4356 13.2619 18.2165 11.3113 18.2243Z" fill="currentColor"/>
<path d="M11.3116 14.9048C10.776 14.9038 10.246 14.7973 9.75157 14.5913C9.25717 14.3855 8.80824 14.0841 8.43037 13.7046C8.0525 13.3252 7.75312 12.8749 7.54932 12.3797C7.34553 11.8844 7.24132 11.3538 7.24265 10.8183V6.92293C7.23452 6.38326 7.3338 5.84735 7.5347 5.34639C7.73561 4.84544 8.03414 4.38945 8.4129 4.00493C8.79167 3.62041 9.24314 3.31504 9.74095 3.10662C10.2389 2.8982 10.7732 2.79086 11.313 2.79086C11.8527 2.79086 12.387 2.8982 12.885 3.10662C13.3828 3.31504 13.8342 3.62041 14.213 4.00493C14.5918 4.38945 14.8903 4.84544 15.0912 5.34639C15.2922 5.84735 15.3914 6.38326 15.3833 6.92293V10.8202C15.3844 11.3555 15.28 11.8857 15.0762 12.3808C14.8723 12.8757 14.573 13.3257 14.1953 13.705C13.8174 14.0843 13.3687 14.3854 12.8746 14.5913C12.3804 14.7972 11.8506 14.9037 11.3153 14.9048H11.3116ZM11.3116 4.23677C10.5995 4.23775 9.91698 4.5211 9.41363 5.02466C8.91019 5.52823 8.62709 6.2109 8.62635 6.92293V10.8202C8.61973 11.1771 8.6843 11.5317 8.8163 11.8633C8.9483 12.1949 9.14506 12.4969 9.39508 12.7517C9.64514 13.0064 9.94348 13.2088 10.2726 13.3469C10.6017 13.4849 10.9551 13.5561 11.312 13.5561C11.669 13.5561 12.0223 13.4849 12.3515 13.3469C12.6806 13.2088 12.9789 13.0064 13.229 12.7517C13.479 12.4969 13.6758 12.1949 13.8078 11.8633C13.9398 11.5317 14.0044 11.1771 13.9977 10.8202V6.92293C13.997 6.21074 13.7138 5.52794 13.2102 5.02435C12.7066 4.52076 12.0237 4.23751 11.3116 4.23677Z" fill="currentColor"/>
</svg>
