<svg width="24" height="24" viewBox="0 0 24 24" fill="none" xmlns="http://www.w3.org/2000/svg">
<path d="M14.8137 11.4884L6.11625 9.95354V21.2946C6.11625 21.8125 6.53611 22.2324 7.05404 22.2324H22.0618C22.5798 22.2324 22.9996 21.8125 22.9996 21.2946V17.1162L14.8137 11.4884Z" fill="#185C37"/>
<path d="M14.8137 1.76764H7.05404C6.53611 1.76764 6.11625 2.1875 6.11625 2.70543V6.88382L14.8137 12L19.4183 13.5349L22.9996 12V6.88382L14.8137 1.76764Z" fill="#21A366"/>
<path d="M6.11625 6.88382H14.8137V12H6.11625V6.88382Z" fill="#107C41"/>
<path opacity="0.1" d="M12.3411 5.86058H6.11625V18.651H12.3411C12.8583 18.6493 13.2772 18.2305 13.2789 17.7132V6.79837C13.2772 6.28114 12.8583 5.86226 12.3411 5.86058Z" fill="currentColor"/>
<path opacity="0.2" d="M11.8295 6.37221H6.11625V19.1627H11.8295C12.3467 19.161 12.7656 18.7421 12.7673 18.2249V7.31C12.7656 6.79277 12.3467 6.37389 11.8295 6.37221Z" fill="currentColor"/>
<path opacity="0.2" d="M11.8295 6.37221H6.11625V18.1394H11.8295C12.3467 18.1377 12.7656 17.7189 12.7673 17.2016V7.31C12.7656 6.79277 12.3467 6.37389 11.8295 6.37221Z" fill="currentColor"/>
<path opacity="0.2" d="M11.3179 6.37221H6.11625V18.1394H11.3179C11.8351 18.1377 12.254 17.7189 12.2557 17.2016V7.31C12.254 6.79277 11.8351 6.37389 11.3179 6.37221Z" fill="currentColor"/>
<path d="M1.93877 6.37221H11.3188C11.8367 6.37221 12.2566 6.79207 12.2566 7.31V16.69C12.2566 17.2079 11.8367 17.6278 11.3188 17.6278H1.93877C1.42084 17.6278 1.00098 17.2079 1.00098 16.69V7.31C1.00098 6.79207 1.42084 6.37221 1.93877 6.37221Z" fill="url(#paint0_linear_1430_37810)"/>
<path d="M3.90517 15.0482L5.87797 11.9913L4.07043 8.95126H5.52444L6.51084 10.8954C6.60191 11.0801 6.66432 11.2172 6.6981 11.3078H6.71088C6.77569 11.1604 6.8439 11.0173 6.91553 10.8785L7.96997 8.95229H9.30478L7.45119 11.9744L9.35186 15.0482H7.93161L6.79223 12.9143C6.73856 12.8235 6.69302 12.7281 6.65615 12.6293H6.63927C6.60589 12.7261 6.56161 12.8188 6.50726 12.9056L5.33413 15.0482H3.90517Z" fill="white"/>
<path d="M22.0615 1.76764H14.8134V6.88382H22.9993V2.70543C22.9993 2.1875 22.5794 1.76764 22.0615 1.76764Z" fill="#33C481"/>
<path d="M14.8134 12H22.9993V17.1162H14.8134V12Z" fill="#107C41"/>
<defs>
<linearGradient id="paint0_linear_1430_37810" x1="2.9563" y1="5.63943" x2="10.3012" y2="18.3606" gradientUnits="userSpaceOnUse">
<stop stop-color="#18884F"/>
<stop offset="0.5" stop-color="#117E43"/>
<stop offset="1" stop-color="#0B6631"/>
</linearGradient>
</defs>
</svg>
