<svg width="24" height="24" viewBox="0 0 24 24" fill="none" xmlns="http://www.w3.org/2000/svg">
<path d="M11.3068 18.226C9.35797 18.2187 7.49121 17.4401 6.11471 16.0604C4.7382 14.6808 3.96385 12.8124 3.96094 10.8635C3.96068 10.6791 4.03329 10.5019 4.16295 10.3708C4.29259 10.2395 4.4688 10.1648 4.65325 10.1629C4.7437 10.1621 4.83344 10.1791 4.91729 10.2131C5.00112 10.2471 5.07739 10.2972 5.14174 10.3608C5.20609 10.4244 5.25722 10.5001 5.2922 10.5835C5.32718 10.6669 5.34532 10.7564 5.34556 10.8469V10.8635C5.34117 11.9901 5.65648 13.0948 6.25483 14.0493C6.85317 15.0039 7.71002 15.7691 8.72587 16.2561C9.74169 16.7432 10.875 16.9321 11.9938 16.8009C13.1128 16.6697 14.1714 16.2237 15.0471 15.5149C15.1903 15.4044 15.371 15.3544 15.5506 15.3755C15.7302 15.3966 15.8945 15.4871 16.0082 15.6277C16.1219 15.7684 16.1762 15.9479 16.1592 16.1279C16.1422 16.308 16.0555 16.4742 15.9175 16.5912C14.6124 17.6466 12.9853 18.2236 11.3068 18.226Z" fill="currentColor"/>
<path d="M14.6683 11.8732C14.6502 11.8741 14.632 11.8741 14.6139 11.8732C14.4317 11.8592 14.2624 11.7738 14.143 11.6354C14.0237 11.4969 13.9639 11.317 13.977 11.1347C13.9843 11.035 13.9917 10.9362 13.9917 10.831V6.92917C13.9917 6.35482 13.8076 5.79558 13.4662 5.33368C13.1249 4.87176 12.6444 4.53152 12.0954 4.36293C11.5463 4.19434 10.9577 4.20629 10.4159 4.39705C9.87416 4.5878 9.40782 4.94729 9.08554 5.42269C9.03586 5.50116 8.97091 5.56883 8.89455 5.62169C8.81817 5.67453 8.73196 5.71147 8.64102 5.7303C8.55008 5.74914 8.45625 5.74949 8.36517 5.73132C8.27409 5.71315 8.18761 5.67684 8.11086 5.62456C8.03409 5.57227 7.96862 5.50507 7.91837 5.42697C7.86811 5.34886 7.8341 5.26145 7.81833 5.16992C7.80257 5.07839 7.8054 4.98463 7.82662 4.89422C7.84783 4.8038 7.88703 4.71857 7.94186 4.64362C8.43053 3.92329 9.13735 3.3787 9.95843 3.08987C10.7796 2.80104 11.6718 2.78319 12.5037 3.03896C13.3357 3.29475 14.0637 3.81065 14.5808 4.51088C15.0978 5.2111 15.3767 6.05873 15.3763 6.92917V10.831C15.3763 10.9732 15.3671 11.1079 15.3579 11.2409C15.3426 11.4133 15.2634 11.5738 15.1358 11.6909C15.0082 11.8079 14.8414 11.8729 14.6683 11.8732Z" fill="currentColor"/>
<path d="M11.3075 14.9068C10.2259 14.9031 9.19008 14.4704 8.42722 13.7038C7.66436 12.9371 7.23687 11.8991 7.23859 10.8175V8.5006C7.23859 8.31699 7.31153 8.14092 7.44136 8.01109C7.57119 7.88126 7.74728 7.80829 7.93089 7.80829C8.1145 7.80829 8.2906 7.88126 8.42044 8.01109C8.55027 8.14092 8.6232 8.31699 8.6232 8.5006V10.8203C8.62053 11.1738 8.6883 11.5242 8.82253 11.8511C8.95677 12.1781 9.15478 12.475 9.40505 12.7246C9.83354 13.1612 10.3997 13.4364 11.0077 13.5037C11.6157 13.571 12.2284 13.4262 12.742 13.0938C12.8188 13.042 12.9053 13.0061 12.9963 12.9882C13.0873 12.9703 13.181 12.971 13.2717 12.9901C13.3625 13.0091 13.4484 13.0462 13.5246 13.0991C13.6007 13.1521 13.6654 13.2198 13.7149 13.2981C13.7644 13.3766 13.7976 13.4642 13.8126 13.5557C13.8276 13.6471 13.8241 13.7407 13.8022 13.8309C13.7803 13.921 13.7406 14.0058 13.6853 14.0802C13.63 14.1547 13.5604 14.2173 13.4804 14.2643C12.8317 14.6802 12.0781 14.9031 11.3075 14.9068Z" fill="currentColor"/>
<path d="M17.959 19.2224C17.8681 19.2226 17.778 19.2048 17.694 19.1699C17.6101 19.1351 17.5338 19.0839 17.4698 19.0194L4.16272 5.71317C4.03654 5.58266 3.96668 5.4078 3.96817 5.22629C3.96967 5.04476 4.04239 4.8711 4.17068 4.74269C4.29899 4.61427 4.47259 4.54135 4.65412 4.53969C4.83563 4.53803 5.01055 4.60773 5.14118 4.73379L18.4482 18.0409C18.5448 18.1378 18.6105 18.2611 18.6371 18.3954C18.6637 18.5296 18.65 18.6687 18.5977 18.7951C18.5454 18.9216 18.4568 19.0297 18.3432 19.1059C18.2295 19.1821 18.0959 19.222 17.959 19.2224Z" fill="currentColor"/>
<path d="M11.3058 20.8525C11.1222 20.8525 10.9462 20.7796 10.8163 20.6498C10.6866 20.5199 10.6135 20.3439 10.6135 20.1602V17.5294C10.6135 17.3458 10.6866 17.1698 10.8163 17.0399C10.9462 16.9101 11.1222 16.8371 11.3058 16.8371C11.4895 16.8371 11.6656 16.9101 11.7954 17.0399C11.9252 17.1698 11.9982 17.3458 11.9982 17.5294V20.1584C11.9984 20.2494 11.9807 20.3397 11.946 20.4239C11.9114 20.5081 11.8604 20.5846 11.7961 20.6491C11.7318 20.7136 11.6553 20.7647 11.5712 20.7997C11.4871 20.8346 11.397 20.8525 11.3058 20.8525Z" fill="currentColor"/>
<path d="M17.2797 14.483C17.1733 14.4832 17.0684 14.4585 16.9733 14.411C16.8087 14.3295 16.6833 14.1859 16.6246 14.012C16.566 13.838 16.5788 13.6479 16.6603 13.4833C17.0654 12.6642 17.274 11.7618 17.2696 10.848C17.2696 10.6643 17.3425 10.4883 17.4723 10.3584C17.6022 10.2286 17.7783 10.1557 17.9619 10.1557C18.1455 10.1557 18.3215 10.2286 18.4514 10.3584C18.5812 10.4883 18.6542 10.6643 18.6542 10.848C18.6594 11.9752 18.4014 13.088 17.901 14.0981C17.8436 14.2139 17.7551 14.3113 17.6454 14.3793C17.5355 14.4474 17.4089 14.4833 17.2797 14.483Z" fill="currentColor"/>
</svg>
