<svg width="24" height="24" viewBox="0 0 24 24" fill="none" xmlns="http://www.w3.org/2000/svg">
<path fill-rule="evenodd" clip-rule="evenodd" d="M3.6731 4.45387C4.54206 3.52066 5.77999 3 7.24203 3H14.6246C16.0858 3 17.3233 3.52075 18.192 4.45395C19.0555 5.38154 19.503 6.66044 19.503 8.0922V10.4803C19.503 10.8627 19.1931 11.1726 18.8107 11.1726C18.4284 11.1726 18.1184 10.8627 18.1184 10.4803V8.0922C18.1184 6.94635 17.7631 6.02531 17.1786 5.39736C16.5992 4.775 15.7436 4.38462 14.6246 4.38462H7.24203C6.12197 4.38462 5.26593 4.7751 4.68644 5.39743C4.10175 6.02536 3.74639 6.94636 3.74639 8.0922V15.12C3.74639 16.2658 4.10175 17.1869 4.68636 17.8148C5.26577 18.4372 6.12159 18.8275 7.24113 18.8275H9.64902C10.0314 18.8275 10.3413 19.1375 10.3413 19.5198C10.3413 19.9023 10.0314 20.2122 9.64902 20.2122H7.24113C5.77947 20.2122 4.54177 19.6914 3.67295 18.7583C2.80935 17.8307 2.36178 16.5518 2.36178 15.12V8.0922C2.36178 6.66044 2.80935 5.38149 3.6731 4.45387Z" fill="currentColor"/>
<path fill-rule="evenodd" clip-rule="evenodd" d="M2.369 7.81731C2.369 7.43496 2.67895 7.125 3.0613 7.125H18.8062C19.1887 7.125 19.4985 7.43496 19.4985 7.81731C19.4985 8.19966 19.1887 8.50962 18.8062 8.50962H3.0613C2.67895 8.50962 2.369 8.19966 2.369 7.81731Z" fill="currentColor"/>
<path fill-rule="evenodd" clip-rule="evenodd" d="M8.19051 3C8.57286 3 8.88282 3.30996 8.88282 3.69231V7.81648C8.88282 8.19883 8.57286 8.50878 8.19051 8.50878C7.80815 8.50878 7.4982 8.19883 7.4982 7.81648V3.69231C7.4982 3.30996 7.80815 3 8.19051 3ZM13.6758 3C14.0581 3 14.3681 3.30996 14.3681 3.69231V7.81648C14.3681 8.19883 14.0581 8.50878 13.6758 8.50878C13.2933 8.50878 12.9834 8.19883 12.9834 7.81648V3.69231C12.9834 3.30996 13.2933 3 13.6758 3Z" fill="currentColor"/>
<path fill-rule="evenodd" clip-rule="evenodd" d="M15.82 13.518C14.1366 13.518 12.7716 14.883 12.7716 16.5664C12.7716 18.2497 14.1366 19.6147 15.82 19.6147C17.5033 19.6147 18.8683 18.2497 18.8683 16.5664C18.8683 14.883 17.5033 13.518 15.82 13.518ZM11.387 16.5664C11.387 14.1184 13.372 12.1334 15.82 12.1334C18.2681 12.1334 20.253 14.1184 20.253 16.5664C20.253 19.0145 18.2681 20.9994 15.82 20.9994C13.372 20.9994 11.387 19.0145 11.387 16.5664Z" fill="currentColor"/>
<path fill-rule="evenodd" clip-rule="evenodd" d="M15.8005 14.6214C16.1828 14.6214 16.4928 14.9313 16.4928 15.3137V16.4406L17.3384 16.9458C17.6667 17.142 17.7738 17.5671 17.5776 17.8952C17.3815 18.2235 16.9564 18.3306 16.6282 18.1344L15.4454 17.4276C15.2362 17.3026 15.1082 17.0769 15.1082 16.8333V15.3137C15.1082 14.9313 15.4182 14.6214 15.8005 14.6214Z" fill="currentColor"/>
</svg>
