<svg width="24" height="24" viewBox="0 0 24 24" fill="none" xmlns="http://www.w3.org/2000/svg">
<path fill-rule="evenodd" clip-rule="evenodd" d="M13.7375 3.07133C15.141 2.70971 16.5085 3.76861 16.5085 5.21829V7.0583C17.6311 7.37506 18.453 8.40703 18.453 9.63088V18.3285C18.453 19.8037 17.2576 21.0004 15.7811 21.0004H6.83378C5.35838 21.0004 4.16196 19.804 4.16196 18.3285V7.1044C4.16196 6.18486 4.78447 5.38212 5.67459 5.1524L13.7375 3.07133ZM5.54657 8.34278V18.3285C5.54657 19.0392 6.12308 19.6158 6.83378 19.6158H15.7811C16.4925 19.6158 17.0683 19.0394 17.0683 18.3285V9.63088C17.0683 8.91888 16.4923 8.34278 15.7811 8.34278H5.54657ZM5.56371 6.95816C5.61698 6.73461 5.79 6.5526 6.02061 6.49309L14.083 4.41214C14.6106 4.27639 15.1239 4.67418 15.1239 5.21829V6.95816H5.56371ZM8.33167 12.0672C8.33167 11.6849 8.64163 11.3749 9.02398 11.3749H11.5945C11.9768 11.3749 12.2868 11.6849 12.2868 12.0672C12.2868 12.4495 11.9768 12.7595 11.5945 12.7595H9.02398C8.64163 12.7595 8.33167 12.4495 8.33167 12.0672ZM8.33167 15.58C8.33167 15.1976 8.64163 14.8877 9.02398 14.8877H13.591C13.9734 14.8877 14.2833 15.1976 14.2833 15.58C14.2833 15.9623 13.9734 16.2723 13.591 16.2723H9.02398C8.64163 16.2723 8.33167 15.9623 8.33167 15.58Z" fill="currentColor"/>
</svg>
