<svg width="24" height="24" viewBox="0 0 24 24" fill="none" xmlns="http://www.w3.org/2000/svg">
<path d="M15.692 20.8299C13.5431 20.8299 10.7471 19.124 7.3843 15.7585C4.00491 12.381 2.29814 9.57389 2.30737 7.42313C2.29871 6.96558 2.38703 6.51138 2.56648 6.09041C2.74595 5.66944 3.01249 5.29123 3.3486 4.98066C3.37426 4.95133 3.40138 4.92329 3.42985 4.89666C4.66954 3.65605 5.51509 3.16128 6.3477 3.1659C7.32616 3.1779 8.01477 3.90436 8.88523 4.81913C9.09754 5.04343 9.32834 5.2862 9.58496 5.54282C10.031 5.94651 10.3251 6.49096 10.4181 7.08531C10.5112 7.67967 10.3976 8.28796 10.0963 8.80866C9.72702 9.75574 9.40588 10.5745 10.9871 12.1548C12.5683 13.7351 13.3871 13.4139 14.3333 13.0428C14.8535 12.7414 15.4615 12.6275 16.0555 12.7201C16.6497 12.8126 17.1942 13.106 17.5982 13.5514C17.853 13.8053 18.093 14.0342 18.3145 14.2456C19.2376 15.1197 19.9612 15.8148 19.9759 16.7914C19.9861 17.6222 19.485 18.4686 18.248 19.7074L18.164 19.7877C17.8535 20.1248 17.475 20.3922 17.0534 20.5722C16.6319 20.7522 16.177 20.8407 15.7187 20.8317L15.692 20.8299ZM4.41385 5.86959C4.41385 5.86959 4.37231 5.91482 4.31692 5.96836C4.11145 6.15116 3.94887 6.37709 3.84085 6.63002C3.73282 6.88293 3.68199 7.1566 3.69199 7.43143C3.68553 8.64713 4.48954 10.9096 8.36 14.78C12.2305 18.6505 14.5299 19.4702 15.7087 19.4453C15.9835 19.4548 16.257 19.4035 16.5097 19.2952C16.7624 19.1869 16.9881 19.0241 17.1707 18.8185C17.2344 18.7539 17.2861 18.705 17.3221 18.6754C18.1612 17.8308 18.5942 17.2031 18.5896 16.8071C18.585 16.4111 18.0708 15.9219 17.361 15.2462C17.1311 15.0283 16.8818 14.792 16.6224 14.529C15.9763 13.8828 15.621 14.0231 14.841 14.3305C13.7416 14.7625 12.2333 15.3533 10.0114 13.1305C7.78954 10.9077 8.37936 9.4022 8.81137 8.3019C9.1169 7.52097 9.25542 7.16466 8.61015 6.51851C8.34431 6.25359 8.10522 6.00159 7.88553 5.7699C7.21353 5.06282 6.72799 4.55236 6.33384 4.54774H6.32277C5.92585 4.54774 5.29999 4.98066 4.40737 5.87328L4.41385 5.86959Z" fill="currentColor"/>
<path d="M15.5444 9.43888C15.4534 9.43897 15.3632 9.42107 15.2791 9.38622C15.1951 9.35138 15.1186 9.30026 15.0543 9.2358L13.078 7.2558C12.9521 7.12505 12.8826 6.95007 12.8843 6.76854C12.8862 6.58702 12.9593 6.41347 13.0878 6.2853C13.2163 6.15711 13.3901 6.08454 13.5716 6.08323C13.7531 6.08191 13.9279 6.15196 14.0583 6.27826L15.5444 7.76626L19.126 4.18288C19.1905 4.11863 19.267 4.06771 19.3512 4.03303C19.4353 3.99836 19.5255 3.9806 19.6165 3.98077C19.7075 3.98094 19.7977 3.99904 19.8817 4.03404C19.9658 4.06903 20.042 4.12024 20.1063 4.18472C20.1705 4.24921 20.2215 4.32572 20.2562 4.40989C20.2908 4.49406 20.3086 4.58423 20.3084 4.67526C20.3083 4.76629 20.2902 4.85639 20.2552 4.94043C20.2202 5.02446 20.169 5.10078 20.1044 5.16503L16.0337 9.2358C15.9695 9.30015 15.8933 9.3512 15.8093 9.38605C15.7254 9.4209 15.6354 9.43885 15.5444 9.43888Z" fill="currentColor"/>
</svg>
