<svg width="24" height="24" viewBox="0 0 24 24" fill="none" xmlns="http://www.w3.org/2000/svg">
<path fill-rule="evenodd" clip-rule="evenodd" d="M18.5661 14.6268C18.3409 14.4127 18.0954 14.18 17.8378 13.9216C16.6443 12.7262 15.6557 13.1157 14.7861 13.46C13.7938 13.8505 12.8551 14.2225 11.1427 12.5093C9.43136 10.7979 9.79782 9.85727 10.1874 8.86127C10.528 7.98896 10.9138 6.99942 9.72305 5.8068C9.46182 5.54557 9.2274 5.29911 9.00955 5.07111C8.13355 4.14896 7.50124 3.48434 6.6114 3.47327C5.83048 3.4945 5.03386 3.95327 3.8274 5.16157C3.81632 5.17357 3.75724 5.23173 3.74709 5.24373C3.48032 5.50219 2.77232 6.18896 2.76124 7.53942C2.74463 9.65327 4.44955 12.44 7.82894 15.8203C11.1898 19.1822 13.9637 20.8853 16.0747 20.8853H16.0932C17.4464 20.8788 18.1415 20.1699 18.4027 19.9031L18.4923 19.8173C19.696 18.6117 20.1824 17.8059 20.1723 17.0342C20.1612 16.1425 19.492 15.5065 18.5661 14.6268Z" fill="currentColor"/>
<path fill-rule="evenodd" clip-rule="evenodd" d="M18.2569 6.15208L20.1132 4.2967C20.3837 4.02623 20.3837 3.5887 20.1132 3.31823C19.8437 3.0487 19.4052 3.04685 19.1338 3.31823L17.2766 5.1727L15.4203 3.31823C15.1489 3.04685 14.7104 3.0487 14.4409 3.31823C14.1704 3.5887 14.1704 4.02623 14.4409 4.2967L16.2972 6.15208L14.4409 8.00746C14.1704 8.27793 14.1704 8.71546 14.4409 8.98593C14.7104 9.25546 15.1489 9.25731 15.4203 8.98593L17.2766 7.13146L19.1338 8.98593C19.2695 9.12162 19.4467 9.189 19.6231 9.189C19.8012 9.189 19.9775 9.12162 20.1132 8.98593C20.3837 8.71546 20.3837 8.27793 20.1132 8.00746L18.2569 6.15208Z" fill="currentColor"/>
</svg>
