<svg width="24" height="24" viewBox="0 0 24 24" fill="none" xmlns="http://www.w3.org/2000/svg">
<path d="M15.8822 20.9524C13.7037 20.9524 10.869 19.2216 7.45541 15.809C4.0271 12.3825 2.2954 9.53764 2.30832 7.35549C2.29924 6.89198 2.38858 6.43181 2.57046 6.00538C2.75233 5.57894 3.0226 5.19593 3.36341 4.88164C3.3791 4.86318 3.42709 4.81518 3.44463 4.79764C4.70002 3.54134 5.54002 3.02441 6.39848 3.0438C7.38709 3.05672 8.08402 3.78872 8.96556 4.71734C9.18249 4.94441 9.41696 5.19088 9.67726 5.4558C10.1283 5.86431 10.4256 6.41508 10.5197 7.01628C10.6137 7.61747 10.4988 8.23275 10.1942 8.75949C9.81665 9.72503 9.4908 10.5585 11.0997 12.1675C12.7086 13.7764 13.5403 13.4478 14.5068 13.0702C15.0331 12.7654 15.6482 12.6503 16.2492 12.744C16.8502 12.8378 17.4009 13.1347 17.8096 13.5853C18.068 13.8428 18.3117 14.0755 18.5379 14.2905C19.4683 15.1758 20.1994 15.8755 20.217 16.8668C20.2271 17.7087 19.7203 18.5635 18.4631 19.8207L18.3773 19.9038C18.0624 20.2443 17.679 20.5143 17.2523 20.6959C16.8256 20.8777 16.3652 20.967 15.9016 20.9579L15.8822 20.9524ZM4.42863 5.77241C4.42863 5.77241 4.38617 5.81857 4.33078 5.87211C4.12238 6.0594 3.95734 6.2899 3.84718 6.54753C3.73702 6.80516 3.68438 7.08373 3.69294 7.3638C3.68555 8.5998 4.50155 10.8991 8.43386 14.8296C12.3662 18.7601 14.6185 19.5927 15.897 19.5678C16.1774 19.5775 16.4566 19.5253 16.7147 19.4151C16.9728 19.3049 17.2035 19.1393 17.3905 18.9299C17.4392 18.879 17.4907 18.8306 17.5447 18.785C18.3976 17.9256 18.837 17.2859 18.837 16.8807C18.837 16.4755 18.3099 15.977 17.5871 15.2893C17.3545 15.0678 17.1016 14.8278 16.8357 14.5601C16.1767 13.9019 15.813 14.045 15.0163 14.3561C13.9013 14.7927 12.3754 15.3918 10.124 13.1422C7.87263 10.8927 8.47078 9.36595 8.9074 8.24995C9.21848 7.45334 9.36157 7.08964 8.70155 6.42964C8.43201 6.16011 8.18926 5.90441 7.9631 5.66995C7.28002 4.95087 6.78709 4.43118 6.38186 4.42657C5.6102 4.672 4.929 5.14145 4.42494 5.77518L4.42863 5.77241Z" fill="black"/>
<path d="M19.1724 8.27524H13.9976C13.814 8.27524 13.6379 8.2023 13.508 8.07247C13.3783 7.94264 13.3053 7.76655 13.3053 7.58293C13.3053 7.39932 13.3783 7.22323 13.508 7.0934C13.6379 6.96357 13.814 6.89062 13.9976 6.89062H19.1724C19.356 6.89062 19.532 6.96357 19.6619 7.0934C19.7917 7.22323 19.8647 7.39932 19.8647 7.58293C19.8647 7.76655 19.7917 7.94264 19.6619 8.07247C19.532 8.2023 19.356 8.27524 19.1724 8.27524Z" fill="black"/>
<path d="M19.6158 5.76203H14.4465C14.2629 5.76203 14.0868 5.68908 13.957 5.55924C13.8271 5.42941 13.7542 5.25333 13.7542 5.06972C13.7542 4.88611 13.8271 4.71001 13.957 4.58017C14.0868 4.45034 14.2629 4.37741 14.4465 4.37741H19.6158C19.7994 4.37741 19.9755 4.45034 20.1053 4.58017C20.2351 4.71001 20.3081 4.88611 20.3081 5.06972C20.3081 5.25333 20.2351 5.42941 20.1053 5.55924C19.9755 5.68908 19.7994 5.76203 19.6158 5.76203Z" fill="black"/>
<path d="M15.1058 9.56923C15.0671 9.56901 15.0285 9.56561 14.9904 9.55907C14.9008 9.54419 14.8149 9.51176 14.7378 9.46365C14.6606 9.41554 14.5938 9.35269 14.5409 9.27869C14.4881 9.2047 14.4504 9.12101 14.43 9.03243C14.4095 8.94385 14.4067 8.85211 14.4218 8.76246L15.2729 3.65785C15.3031 3.47668 15.4041 3.31494 15.5536 3.20822C15.703 3.1015 15.8888 3.05853 16.0699 3.08877C16.2511 3.119 16.4129 3.21997 16.5196 3.36945C16.6263 3.51892 16.6693 3.70467 16.639 3.88584L15.7879 8.99045C15.7611 9.15203 15.6778 9.29885 15.5529 9.40482C15.428 9.51079 15.2696 9.56905 15.1058 9.56923Z" fill="black"/>
<path d="M17.6595 9.57232C17.5591 9.57169 17.4601 9.54939 17.3692 9.50695C17.2782 9.46451 17.1975 9.40292 17.1325 9.3264C17.0676 9.24988 17.02 9.16023 16.9928 9.0636C16.9657 8.96696 16.9598 8.86561 16.9755 8.76648L17.8256 3.66186C17.8406 3.57216 17.873 3.48626 17.9211 3.40909C17.9693 3.33193 18.032 3.26499 18.106 3.2121C18.18 3.15922 18.2636 3.12142 18.3522 3.10087C18.4408 3.08031 18.5326 3.07741 18.6222 3.09232C18.712 3.10723 18.7979 3.13966 18.8751 3.18777C18.9522 3.23587 19.0192 3.2987 19.0721 3.37267C19.1249 3.44665 19.1627 3.5303 19.1833 3.61889C19.2038 3.70747 19.2067 3.79923 19.1918 3.88893L18.3416 8.99354C18.3148 9.15512 18.2315 9.30194 18.1066 9.40791C17.9817 9.51388 17.8233 9.57214 17.6595 9.57232Z" fill="black"/>
</svg>
