<svg width="24" height="24" viewBox="0 0 24 24" fill="none" xmlns="http://www.w3.org/2000/svg">
<path d="M15.7334 21.0004C13.638 21.0004 10.9168 19.3388 7.64164 16.0665C4.36656 12.7942 2.69301 10.0499 2.70501 7.95177C2.69565 7.50415 2.78132 7.05961 2.95634 6.6475C3.13137 6.2354 3.3918 5.86509 3.72042 5.561C3.73704 5.54162 3.78131 5.49823 3.79884 5.4807C4.99884 4.2807 5.81761 3.79146 6.62346 3.79146H6.64842C7.6075 3.80439 8.27855 4.50962 9.12778 5.40316C9.33451 5.621 9.55882 5.85731 9.80897 6.10654C10.2454 6.50156 10.5332 7.03426 10.6244 7.6158C10.7157 8.19734 10.6048 8.79257 10.3103 9.30223C9.94106 10.2548 9.64374 11.0071 11.1714 12.533C12.6991 14.0588 13.4505 13.7662 14.4022 13.3924C14.9116 13.0975 15.5067 12.9862 16.0882 13.0769C16.6696 13.1676 17.2026 13.4549 17.598 13.8908C17.8444 14.1373 18.078 14.3598 18.2931 14.5638C19.1903 15.4185 19.9001 16.0924 19.9112 17.0561C19.9214 17.8711 19.4339 18.6954 18.2265 19.9028L18.1453 19.9822C17.8408 20.3106 17.4703 20.5709 17.0581 20.7459C16.6459 20.9208 16.2014 21.0066 15.7536 20.9976L15.7334 21.0004ZM4.78655 6.45454C4.78655 6.45454 4.74596 6.49885 4.69427 6.55147C4.49621 6.7273 4.33954 6.94479 4.23549 7.18833C4.13143 7.43187 4.08253 7.69542 4.09238 7.96008C4.08592 9.13793 4.86683 11.3321 8.62376 15.0881C12.3631 18.8265 14.5536 19.6111 15.7314 19.6111H15.7472C16.0119 19.6205 16.2753 19.5713 16.5187 19.467C16.7622 19.3628 16.9798 19.2063 17.1558 19.0084C17.2031 18.9587 17.253 18.9115 17.3054 18.8671C18.114 18.053 18.533 17.4474 18.5274 17.0681C18.5219 16.6887 18.0262 16.217 17.3394 15.5634C17.117 15.3521 16.8779 15.1222 16.6204 14.8665C16 14.2481 15.6807 14.3754 14.909 14.6819C13.8345 15.1038 12.3632 15.6798 10.1949 13.5133C8.02656 11.3459 8.60161 9.87362 9.02254 8.79823C9.32528 8.0247 9.44999 7.70531 8.83149 7.08593C8.57303 6.82747 8.34037 6.58285 8.12622 6.35762C7.48007 5.67454 7.00745 5.18162 6.6336 5.17608H6.62718C6.2478 5.17608 5.64318 5.59608 4.78103 6.45916L4.78655 6.45454Z" fill="currentColor"/>
<path d="M15.0739 10.4574C14.8903 10.4574 14.7142 10.3844 14.5844 10.2546C14.4545 10.1248 14.3816 9.94871 14.3816 9.7651C14.3808 9.57936 14.4529 9.40072 14.5823 9.26749C14.7117 9.13426 14.8882 9.05707 15.0739 9.05249C15.1637 9.05028 15.2531 9.066 15.3367 9.09873C15.4204 9.13146 15.4967 9.18055 15.5611 9.24313C15.6256 9.3057 15.6769 9.3805 15.7121 9.46315C15.7473 9.54581 15.7658 9.63465 15.7662 9.72449V9.7651C15.7662 9.94871 15.6933 10.1248 15.5634 10.2546C15.4336 10.3844 15.2575 10.4574 15.0739 10.4574Z" fill="currentColor"/>
<path d="M15.0734 8.48123C14.8912 8.48101 14.7166 8.40913 14.5871 8.28114C14.4575 8.15315 14.3836 7.97933 14.3811 7.79723C14.4045 7.43221 14.5316 7.08145 14.7474 6.78615C14.9632 6.49085 15.2589 6.26327 15.5995 6.13015L15.6919 6.07662C15.8396 6.01763 15.9663 5.91578 16.0556 5.78417C16.145 5.65255 16.1928 5.49722 16.1931 5.33815C16.1926 5.0855 16.092 4.84334 15.9132 4.66477C15.7345 4.4862 15.4922 4.38578 15.2395 4.38554C15.114 4.38418 14.9896 4.40789 14.8732 4.45527C14.757 4.50265 14.6514 4.57276 14.5626 4.66147C14.4738 4.75019 14.4036 4.85574 14.3561 4.97193C14.3086 5.08813 14.2848 5.21263 14.2861 5.33815C14.2861 5.52176 14.2131 5.69786 14.0833 5.82769C13.9534 5.95752 13.7774 6.03046 13.5938 6.03046C13.4102 6.03046 13.234 5.95752 13.1042 5.82769C12.9744 5.69786 12.9015 5.52176 12.9015 5.33815C12.9015 4.71804 13.1477 4.12332 13.5862 3.68483C14.0248 3.24634 14.6194 3 15.2395 3C15.8596 3 16.4544 3.24634 16.8929 3.68483C17.3314 4.12332 17.5777 4.71804 17.5777 5.33815C17.578 5.74305 17.4648 6.13992 17.2511 6.48382C17.0373 6.82771 16.7316 7.1049 16.3684 7.284L16.2762 7.33754C15.8728 7.56369 15.763 7.65785 15.7648 7.77969C15.766 7.87061 15.7493 7.96087 15.7156 8.04534C15.682 8.1298 15.632 8.2068 15.5686 8.27195C15.5051 8.33709 15.4295 8.38911 15.346 8.42502C15.2624 8.46092 15.1727 8.48003 15.0818 8.48123H15.0734Z" fill="currentColor"/>
</svg>
