<svg width="24" height="24" viewBox="0 0 24 24" fill="none" xmlns="http://www.w3.org/2000/svg">
<path d="M15.9176 21.0082C13.7438 21.0082 10.9135 19.2812 7.50743 15.8759C4.09204 12.4605 2.36035 9.61934 2.37143 7.44088C2.36229 6.97816 2.45135 6.51876 2.63273 6.09298C2.81413 5.6672 3.08373 5.2847 3.42375 4.97073C3.44037 4.95134 3.48744 4.90427 3.5059 4.88673C4.75851 3.63319 5.61882 3.13288 6.45421 3.13288C7.4419 3.1458 8.13698 3.8778 9.01852 4.80365C9.23363 5.03073 9.468 5.27627 9.72738 5.53657C10.1774 5.94458 10.4741 6.49441 10.5679 7.09452C10.6618 7.69463 10.5473 8.30879 10.2435 8.83473C9.86686 9.7975 9.54194 10.6282 11.1472 12.2335C12.7524 13.8387 13.5822 13.5119 14.545 13.1353C15.0703 12.8308 15.6841 12.7155 16.2842 12.8087C16.8842 12.902 17.4341 13.1981 17.8422 13.6476C18.0989 13.9052 18.3426 14.1368 18.5669 14.3501C19.4973 15.2353 20.2284 15.9341 20.245 16.9236C20.2542 17.7645 19.7492 18.6184 18.4966 19.8692L18.4118 19.9513C18.098 20.2918 17.7156 20.5619 17.2898 20.7436C16.864 20.9253 16.4045 21.0146 15.9416 21.0055L15.9176 21.0082ZM4.4899 5.8615C4.4899 5.8615 4.44743 5.90673 4.39204 5.96119C4.18313 6.14699 4.01782 6.37661 3.90788 6.63367C3.79794 6.89072 3.7461 7.16887 3.75604 7.44827C3.74958 8.68242 4.56465 10.9753 8.48588 14.8965C12.3895 18.7993 14.6798 19.6236 15.9167 19.6236H15.9333C16.2129 19.6335 16.4912 19.5815 16.7484 19.4714C17.0057 19.3614 17.2354 19.1959 17.4213 18.9867C17.4699 18.9358 17.521 18.8875 17.5746 18.8418C18.4256 17.9852 18.8669 17.3473 18.8604 16.9439C18.8539 16.5405 18.3333 16.0421 17.6124 15.3562C17.3807 15.1356 17.1296 14.8947 16.8638 14.6298C16.2075 13.9735 15.8437 14.1147 15.0508 14.4267C13.9366 14.8633 12.4136 15.4596 10.1687 13.2156C7.92375 10.9716 8.51913 9.44673 8.9539 8.3335C9.26409 7.53965 9.40615 7.17688 8.74897 6.51873C8.48035 6.25011 8.2376 5.99534 8.01514 5.75996C7.33298 5.04365 6.84004 4.5258 6.43758 4.52027H6.4302C6.02589 4.52027 5.38989 4.96057 4.48435 5.86519L4.4899 5.8615ZM19.4641 9.0858C19.3731 9.08603 19.2831 9.06819 19.1991 9.03334C19.1151 8.99847 19.0388 8.94728 18.9749 8.88273L17.1176 7.02365L15.2604 8.87996C15.1291 9.00225 14.9555 9.06883 14.7762 9.06566C14.5968 9.0625 14.4258 8.98984 14.2988 8.86299C14.172 8.73615 14.0994 8.56503 14.0962 8.38568C14.0931 8.20631 14.1596 8.03274 14.2819 7.9015L16.1382 6.04427L14.2828 4.18703C14.1606 4.0558 14.0939 3.88222 14.0971 3.70286C14.1003 3.52351 14.1729 3.35238 14.2998 3.22554C14.4267 3.0987 14.5977 3.02604 14.7771 3.02288C14.9564 3.01971 15.1301 3.08628 15.2613 3.20857L17.1176 5.06488L18.9702 3.21134C19.0336 3.14333 19.11 3.08877 19.1949 3.05093C19.2798 3.01309 19.3715 2.99275 19.4645 2.99111C19.5574 2.98946 19.6498 3.00657 19.736 3.04139C19.8222 3.0762 19.9005 3.12803 19.9662 3.19377C20.032 3.25951 20.0838 3.33782 20.1186 3.42403C20.1534 3.51023 20.1705 3.60256 20.169 3.69552C20.1673 3.78848 20.1469 3.88015 20.109 3.96507C20.0712 4.04999 20.0166 4.12643 19.9486 4.1898L18.0924 6.04703L19.9486 7.90427C20.0454 8.00109 20.1112 8.12439 20.1378 8.25861C20.1645 8.39282 20.1508 8.53192 20.0984 8.65836C20.0461 8.78478 19.9575 8.89286 19.8438 8.96894C19.73 9.04502 19.5963 9.08568 19.4594 9.0858H19.4641Z" fill="currentColor"/>
</svg>
