<svg width="24" height="24" viewBox="0 0 24 24" fill="none" xmlns="http://www.w3.org/2000/svg">
<path fill-rule="evenodd" clip-rule="evenodd" d="M20.5366 11.9248C20.5412 11.6036 20.5513 10.7516 19.7326 9.92265C18.4716 8.64696 15.791 7.99988 11.7664 7.99988C7.74548 8.00449 5.06671 8.65342 3.80671 9.93003C2.98794 10.759 2.99809 11.6119 3.00179 11.934L2.99994 12.0337C2.99994 13.4839 3.19563 14.2657 3.67471 14.7337C4.11778 15.1657 4.70486 15.2433 5.47194 15.2433C5.67225 15.2433 5.88548 15.2377 6.11071 15.2322C6.37102 15.2257 6.65348 15.2183 6.95994 15.2183C8.42025 15.2137 8.8024 14.3368 9.10886 13.6325C9.47255 12.799 9.78548 12.0799 11.7673 12.0799C13.7492 12.0799 14.0639 12.798 14.4286 13.6306C14.7359 14.3331 15.119 15.2091 16.5802 15.2091C16.8895 15.2091 17.1747 15.2156 17.4387 15.223C18.527 15.2497 19.307 15.27 19.8636 14.7282C20.3427 14.2611 20.5384 13.4774 20.5384 12.0236C20.5384 12.0079 20.5384 11.9423 20.5366 11.9248Z" fill="currentColor"/>
</svg>
