<svg width="24" height="24" viewBox="0 0 24 24" fill="none" xmlns="http://www.w3.org/2000/svg">
<path d="M5.71161 15.6948C5.36211 15.7366 5.00776 15.7073 4.66988 15.6086C4.332 15.5099 4.01754 15.344 3.74546 15.1207C3.21561 14.6056 3.00052 13.7758 3.00052 12.2591L3.00238 12.1622C2.9858 11.7594 3.05488 11.3577 3.2051 10.9835C3.35531 10.6094 3.58321 10.2715 3.87374 9.99206C5.17897 8.67206 7.91311 8.00098 11.9968 8.00006C16.0833 8.00006 18.8165 8.67021 20.1199 9.99206C20.4104 10.271 20.6382 10.6085 20.7884 10.9822C20.9387 11.3557 21.0078 11.7571 20.9913 12.1594C20.9913 12.1844 20.9913 12.2314 20.9913 12.2518C20.9913 13.7739 20.7762 14.6038 20.2463 15.1198C19.6205 15.7308 18.7537 15.7078 17.6543 15.6801C17.3931 15.6727 17.1098 15.6662 16.8024 15.6662C16.2713 15.6939 15.7469 15.5386 15.3166 15.226C14.8863 14.9135 14.5763 14.4628 14.4383 13.9493C14.0931 13.161 13.8208 12.5379 11.9913 12.5379C10.1617 12.5379 9.88948 13.1619 9.54516 13.9502C9.40762 14.4639 9.09789 14.9149 8.66777 15.2278C8.23767 15.5406 7.71323 15.6963 7.18209 15.669C6.8784 15.669 6.59686 15.6754 6.3384 15.6819C6.12517 15.6893 5.91284 15.6948 5.71161 15.6948ZM12.0005 9.38283C7.38976 9.38283 5.57313 10.2431 4.86144 10.9641C4.7006 11.1137 4.57485 11.297 4.49314 11.501C4.41144 11.7049 4.37584 11.9244 4.38886 12.1438C4.39071 12.2069 4.38854 12.27 4.38238 12.333C4.30672 12.9518 4.42237 13.579 4.71377 14.1302C4.92239 14.3333 5.53438 14.3213 6.31253 14.2991C6.583 14.2927 6.87466 14.2862 7.19128 14.2862C7.89835 14.2862 8.00357 14.0444 8.28511 13.3991C8.67557 12.5056 9.2636 11.1551 12.0005 11.1551C14.7365 11.1551 15.3237 12.5038 15.716 13.3964C15.9994 14.0425 16.1045 14.2834 16.8116 14.2834C17.1319 14.2834 17.4263 14.2899 17.6987 14.2973C18.4694 14.3167 19.0833 14.3324 19.2891 14.1302C19.5877 13.5528 19.7018 12.8978 19.6159 12.2536V12.2628C19.6159 12.2628 19.6159 12.2084 19.6159 12.141C19.6293 11.9219 19.5939 11.7027 19.5123 11.4991C19.4308 11.2954 19.3051 11.1123 19.1442 10.9631C18.4307 10.2422 16.6159 9.38283 12.0005 9.38283Z" fill="currentColor"/>
</svg>
