<svg width="24" height="24" viewBox="0 0 24 24" fill="none" xmlns="http://www.w3.org/2000/svg">
<path d="M11.0769 5.53846C11.4592 5.53846 11.7692 5.84845 11.7692 6.23077V11.0769H16.6154C16.9976 11.0769 17.3077 11.3869 17.3077 11.7692C17.3077 11.9784 17.2148 12.1659 17.0683 12.2927C16.9471 12.3978 16.7885 12.4615 16.6154 12.4615H11.7692V17.3077C11.7692 17.69 11.4592 18 11.0769 18C10.6947 18 10.3846 17.69 10.3846 17.3077V12.4615H5.53846C5.15625 12.4615 4.84615 12.1516 4.84615 11.7692C4.84615 11.3869 5.15625 11.0769 5.53846 11.0769H10.3846V6.23077C10.3846 5.84845 10.6947 5.53846 11.0769 5.53846Z" fill="currentColor"/>
</svg>
