<svg width="24" height="24" viewBox="0 0 24 24" fill="none" xmlns="http://www.w3.org/2000/svg">
<path fill-rule="evenodd" clip-rule="evenodd" d="M11.3077 4.38462C7.1015 4.38462 3.69231 7.79381 3.69231 12C3.69231 16.2054 7.10155 19.6154 11.3077 19.6154C15.5139 19.6154 18.9231 16.2054 18.9231 12C18.9231 7.79381 15.5139 4.38462 11.3077 4.38462ZM2.30769 12C2.30769 7.02911 6.3368 3 11.3077 3C16.2786 3 20.3077 7.02911 20.3077 12C20.3077 16.9699 16.2786 21 11.3077 21C6.33675 21 2.30769 16.9699 2.30769 12Z" fill="currentColor"/>
<path fill-rule="evenodd" clip-rule="evenodd" d="M11.259 15.1812C11.6414 15.1812 11.9514 15.4912 11.9514 15.8735V15.8995C11.9514 16.2819 11.6414 16.5918 11.259 16.5918C10.8767 16.5918 10.5667 16.2819 10.5667 15.8995V15.8735C10.5667 15.4912 10.8767 15.1812 11.259 15.1812Z" fill="currentColor"/>
<path fill-rule="evenodd" clip-rule="evenodd" d="M8.58714 10.3323C8.58714 8.7267 9.87877 7.4351 11.4844 7.4351C13.0806 7.4351 14.3807 8.72542 14.3807 10.3323C14.3807 11.4642 13.7326 12.2646 12.89 12.7305C12.8376 12.7604 12.7876 12.7886 12.7397 12.8155C12.4955 12.9529 12.3083 13.0582 12.1552 13.1959C12.0048 13.3313 11.9482 13.4459 11.9502 13.6059C11.9553 13.9882 11.6494 14.3022 11.2671 14.3072C10.8847 14.3122 10.5708 14.0064 10.5658 13.6241C10.5571 12.9614 10.8691 12.4904 11.2291 12.1666C11.5082 11.9154 11.8549 11.7225 12.0957 11.5885C12.1366 11.5658 12.1745 11.5447 12.2083 11.5254L12.2172 11.5204C12.7286 11.2386 12.9961 10.849 12.9961 10.3323C12.9961 9.49269 12.3185 8.81971 11.4844 8.81971C10.6434 8.81971 9.97172 9.49141 9.97172 10.3323C9.97172 10.7146 9.66175 11.0246 9.27942 11.0246C8.8971 11.0246 8.58714 10.7146 8.58714 10.3323Z" fill="currentColor"/>
</svg>
