<svg width="24" height="24" viewBox="0 0 24 24" fill="none" xmlns="http://www.w3.org/2000/svg">
<path fill-rule="evenodd" clip-rule="evenodd" d="M3.68325 4.52065C4.592 3.5457 5.88616 3 7.41429 3H15.2002C16.7319 3 18.0266 3.54539 18.935 4.52091C19.8381 5.49084 20.3077 6.82974 20.3077 8.33204V10.2792C20.3077 10.6615 19.9977 10.9715 19.6154 10.9715C19.233 10.9715 18.9231 10.6615 18.9231 10.2792V8.33204C18.9231 7.1157 18.5457 6.13474 17.9216 5.46447C17.3027 4.79977 16.3898 4.38462 15.2002 4.38462H7.41429C6.22917 4.38462 5.31618 4.79947 4.69609 5.46473C4.07098 6.13538 3.69229 7.11647 3.69229 8.33204V15.6679C3.69229 16.8844 4.06947 17.8653 4.69338 18.5356C5.31206 19.2003 6.22467 19.6154 7.41429 19.6154H9.81054C10.1929 19.6154 10.5028 19.9254 10.5028 20.3077C10.5028 20.69 10.1929 21 9.81054 21H7.41429C5.88257 21 4.58803 20.4546 3.6799 19.479C2.77699 18.5091 2.30768 17.1702 2.30768 15.6679V8.33204C2.30768 6.82898 2.77953 5.49019 3.68325 4.52065ZM6.51766 8.62062C6.51766 8.23827 6.82762 7.92831 7.20996 7.92831H10.0858C10.4681 7.92831 10.7781 8.23827 10.7781 8.62062C10.7781 9.00296 10.4681 9.31292 10.0858 9.31292H7.20996C6.82762 9.31292 6.51766 9.00296 6.51766 8.62062ZM15.0167 12.6923C13.564 12.6923 12.3859 13.8698 12.3859 15.3231C12.3859 16.7754 13.5639 17.9529 15.0167 17.9529C15.694 17.9529 16.3117 17.697 16.778 17.2765C16.781 17.2734 16.784 17.2703 16.7871 17.2673C16.8028 17.2515 16.8191 17.2366 16.8358 17.2228C17.336 16.744 17.6475 16.0698 17.6475 15.3231C17.6475 13.8698 16.4693 12.6923 15.0167 12.6923ZM18.2307 17.7298C18.7338 17.0593 19.0321 16.226 19.0321 15.3231C19.0321 13.1048 17.2337 11.3077 15.0167 11.3077C12.7996 11.3077 11.0013 13.1048 11.0013 15.3231C11.0013 17.5406 12.7996 19.3375 15.0167 19.3375C15.8308 19.3375 16.5884 19.0952 17.2214 18.6787L18.6103 20.065C18.881 20.3351 19.3193 20.3346 19.5894 20.064C19.8595 19.7934 19.8591 19.3551 19.5884 19.085L18.2307 17.7298Z" fill="currentColor"/>
</svg>
