<svg width="24" height="24" viewBox="0 0 24 24" fill="none" xmlns="http://www.w3.org/2000/svg">
<path fill-rule="evenodd" clip-rule="evenodd" d="M16.0487 15.5652C15.4587 14.9751 14.502 14.9751 13.9119 15.5652C13.3219 16.1552 13.3219 17.1119 13.9119 17.7019C14.502 18.2921 15.4587 18.2921 16.0487 17.7019C16.6388 17.1119 16.6388 16.1552 16.0487 15.5652ZM12.9329 14.5861C14.0636 13.4553 15.897 13.4553 17.0278 14.5861C17.9899 15.5481 18.1335 17.0187 17.4585 18.1326L18.2216 18.8954C18.4921 19.1658 18.4921 19.6041 18.2218 19.8745C17.9515 20.145 17.5132 20.145 17.2427 19.8747L16.4795 19.1117C15.3656 19.7867 13.895 19.6432 12.9329 18.681C11.802 17.5503 11.802 15.7169 12.9329 14.5861Z" fill="currentColor"/>
<path fill-rule="evenodd" clip-rule="evenodd" d="M6.91145 16.6578C6.15584 17.3426 5.85398 18.2135 5.85398 18.98C5.85398 19.3624 5.54402 19.6723 5.16167 19.6723C4.77931 19.6723 4.46936 19.3624 4.46936 18.98C4.46936 17.8535 4.91432 16.5991 5.9817 15.6318C7.05081 14.6631 8.68159 14.0372 10.96 14.0372C11.3423 14.0372 11.6523 14.3472 11.6523 14.7295C11.6523 15.1119 11.3423 15.4218 10.96 15.4218C8.93372 15.4218 7.66534 15.9748 6.91145 16.6578Z" fill="currentColor"/>
<path fill-rule="evenodd" clip-rule="evenodd" d="M10.9604 5.30769C9.29761 5.30769 7.94893 6.65636 7.94893 8.31919C7.94893 9.98202 9.29761 11.3307 10.9604 11.3307C12.6233 11.3307 13.9719 9.98202 13.9719 8.31919C13.9719 6.65636 12.6233 5.30769 10.9604 5.30769ZM6.56431 8.31919C6.56431 5.89166 8.53289 3.92308 10.9604 3.92308C13.3879 3.92308 15.3565 5.89166 15.3565 8.31919C15.3565 10.7467 13.3879 12.7153 10.9604 12.7153C8.53289 12.7153 6.56431 10.7467 6.56431 8.31919Z" fill="currentColor"/>
</svg>
