<svg width="24" height="24" viewBox="0 0 24 24" fill="none" xmlns="http://www.w3.org/2000/svg">
<path d="M11.3115 15.0508C10.8448 15.0514 10.3876 14.9181 9.99425 14.6668L4.96262 11.4452C4.80789 11.3462 4.69883 11.1897 4.65945 11.0103C4.62006 10.8309 4.65355 10.6432 4.75258 10.4885C4.85161 10.3337 5.0081 10.2246 5.18752 10.1852C5.36695 10.1459 5.55468 10.1794 5.7094 10.2785L10.7411 13.5009C10.9111 13.6094 11.1085 13.667 11.3101 13.667C11.5118 13.667 11.7092 13.6094 11.8792 13.5009L16.9127 10.2785C17.0675 10.1794 17.2552 10.1459 17.4346 10.1852C17.5235 10.2048 17.6076 10.2416 17.6823 10.2936C17.7569 10.3457 17.8205 10.4118 17.8695 10.4885C17.9186 10.5651 17.952 10.6506 17.968 10.7401C17.9839 10.8296 17.9822 10.9215 17.9627 11.0103C17.9432 11.0992 17.9064 11.1833 17.8543 11.2579C17.8024 11.3325 17.7362 11.3962 17.6596 11.4452L12.6269 14.6668C12.2343 14.9181 11.7777 15.0514 11.3115 15.0508Z" fill="currentColor"/>
<path d="M16.4251 12.0809C16.2416 12.0809 16.0657 12.008 15.9359 11.8784C15.8061 11.7487 15.733 11.5729 15.7328 11.3895L15.7245 5.92576C15.7213 5.53147 15.5629 5.15431 15.2835 4.8761C15.0041 4.59788 14.6262 4.44105 14.2318 4.4396H8.38235C7.98655 4.44033 7.60717 4.59796 7.32738 4.87792C7.0476 5.15788 6.89022 5.53735 6.88973 5.93314V11.3886C6.88973 11.5722 6.81679 11.7483 6.68696 11.8781C6.55713 12.0079 6.38103 12.0809 6.19743 12.0809C6.01381 12.0809 5.83771 12.0079 5.70788 11.8781C5.57805 11.7483 5.50512 11.5722 5.50512 11.3886V5.93314C5.50585 5.1702 5.80918 4.43869 6.34858 3.89911C6.88798 3.35955 7.6194 3.05597 8.38235 3.05499H14.2318C14.9914 3.05763 15.7194 3.35947 16.258 3.89509C16.7965 4.43072 17.1023 5.15698 17.1091 5.91653L17.1175 11.3839C17.1175 11.4749 17.0998 11.5649 17.0651 11.649C17.0304 11.733 16.9795 11.8094 16.9153 11.8737C16.8511 11.9381 16.7748 11.9892 16.6909 12.0241C16.6069 12.059 16.517 12.077 16.4261 12.0772L16.4251 12.0809Z" fill="currentColor"/>
<path d="M12.3513 10.5218H10.2725C10.0889 10.5218 9.91284 10.4489 9.78296 10.3191C9.65318 10.1892 9.58016 10.0131 9.58016 9.82951C9.58016 9.6459 9.65318 9.4698 9.78296 9.33997C9.91284 9.21014 10.0889 9.13721 10.2725 9.13721H12.3513C12.5349 9.13721 12.711 9.21014 12.8408 9.33997C12.9706 9.4698 13.0436 9.6459 13.0436 9.82951C13.0436 10.0131 12.9706 10.1892 12.8408 10.3191C12.711 10.4489 12.5349 10.5218 12.3513 10.5218ZM13.4912 7.59104H9.13251C8.94891 7.59104 8.77281 7.5181 8.64298 7.38827C8.51315 7.25844 8.44021 7.08236 8.44021 6.89874C8.44021 6.71513 8.51315 6.53904 8.64298 6.40921C8.77281 6.27937 8.94891 6.20643 9.13251 6.20643H13.4912C13.6749 6.20643 13.851 6.27937 13.9808 6.40921C14.1106 6.53904 14.1835 6.71513 14.1835 6.89874C14.1835 7.08236 14.1106 7.25844 13.9808 7.38827C13.851 7.5181 13.6749 7.59104 13.4912 7.59104Z" fill="currentColor"/>
<path d="M7.11807 20.9429C6.50782 20.9514 5.90201 20.8375 5.3366 20.6078C4.77118 20.378 4.25767 20.0371 3.8264 19.6053C3.33024 19.0924 2.94078 18.4861 2.68061 17.8215C2.42043 17.157 2.29468 16.4474 2.31068 15.7339V10.153C2.2475 9.00219 2.58566 7.86512 3.26745 6.93585C3.94924 6.00659 4.9324 5.34274 6.04913 5.05762C6.22834 5.01747 6.41619 5.05015 6.57129 5.14848C6.72639 5.24681 6.83606 5.40272 6.8762 5.58193C6.91636 5.76114 6.88371 5.94895 6.78539 6.10405C6.68705 6.25916 6.53111 6.36886 6.3519 6.40901C5.54482 6.63025 4.8392 7.12406 4.35493 7.80656C3.87065 8.48905 3.63759 9.31815 3.6953 10.153V15.7358C3.68019 16.2669 3.77027 16.7958 3.96038 17.2919C4.15048 17.7882 4.43686 18.2418 4.803 18.6269C5.10739 18.9294 5.46933 19.1679 5.86743 19.3281C6.26554 19.4885 6.69173 19.5673 7.12083 19.5601H15.4903C15.9212 19.5675 16.3492 19.4884 16.7489 19.3275C17.1486 19.1665 17.512 18.927 17.8174 18.6232C18.1835 18.2388 18.4698 17.7858 18.6599 17.2902C18.8501 16.7946 18.9402 16.2664 18.9252 15.7358V10.153C18.9809 9.31562 18.7446 8.48481 18.2564 7.80212C17.7683 7.11944 17.0587 6.62711 16.2482 6.40901C16.1595 6.38919 16.0755 6.35208 16.0011 6.29982C15.9267 6.24754 15.8634 6.18115 15.8146 6.10438C15.7659 6.02763 15.7328 5.94202 15.7171 5.85246C15.7015 5.7629 15.7037 5.67113 15.7234 5.58239C15.7433 5.49366 15.7804 5.4097 15.8326 5.3353C15.885 5.26091 15.9513 5.19753 16.0281 5.1488C16.1048 5.10008 16.1904 5.06695 16.28 5.0513C16.3696 5.03565 16.4613 5.0378 16.5501 5.05762C17.6694 5.34057 18.6557 6.00328 19.3407 6.93257C20.0258 7.86187 20.367 9.00013 20.306 10.153V15.7358C20.3217 16.4488 20.1958 17.1577 19.9354 17.8217C19.6751 18.4855 19.2856 19.0912 18.7894 19.6035C18.3571 20.0367 17.8421 20.3786 17.2751 20.609C16.7081 20.8394 16.1005 20.9536 15.4885 20.9447H7.11345L7.11807 20.9429Z" fill="currentColor"/>
</svg>
