<svg width="24" height="24" viewBox="0 0 24 24" fill="none" xmlns="http://www.w3.org/2000/svg">
<path d="M14.5808 14.0283C14.5808 14.4104 14.2708 14.7206 13.8885 14.7206H8.66647C8.28426 14.7206 7.97416 14.4104 7.97416 14.0283C7.97416 13.646 8.28426 13.336 8.66647 13.336H13.8885C14.1482 13.336 14.3744 13.4784 14.493 13.6893C14.5488 13.7903 14.5808 13.9057 14.5808 14.0283Z" fill="currentColor"/>
<path d="M14.5808 9.97175C14.5808 10.354 14.2708 10.664 13.8885 10.664H8.66647C8.28426 10.664 7.97416 10.354 7.97416 9.97175C7.97416 9.58954 8.28426 9.27944 8.66647 9.27944H13.8885C14.0458 9.27944 14.1909 9.33174 14.3072 9.42007C14.4736 9.54628 14.5808 9.74639 14.5808 9.97175Z" fill="currentColor"/>
<path fill-rule="evenodd" clip-rule="evenodd" d="M15.5391 19.9182C15.297 19.8029 15.0175 19.7939 14.7674 19.8966L12.7866 20.7043C11.8197 21.0991 10.737 21.0991 9.77077 20.7043L7.79252 19.8966C7.54327 19.7939 7.26247 19.8029 7.02089 19.9182L6.31912 20.2554C5.122 20.8288 3.73648 19.9543 3.73829 18.6274L3.74775 7.3161C3.74775 6.07211 4.09481 4.97777 4.83669 4.1899C5.58534 3.39664 6.65355 3 7.91602 3H14.6538C15.919 3 16.9845 3.39664 17.7264 4.19351C18.4634 4.98318 18.801 6.07572 18.801 7.3143L18.8176 18.6256C18.8185 19.9525 17.4339 20.8269 16.2359 20.2536L15.54 19.9201L15.5391 19.9182ZM5.72101 19.006L6.42278 18.6707C7.01818 18.3858 7.70553 18.3642 8.31671 18.6148L10.2941 19.4225C10.6172 19.5541 10.9602 19.619 11.3032 19.6154C11.6295 19.6135 11.9554 19.5486 12.2628 19.4225L14.2446 18.6148C14.8549 18.3642 15.5436 18.384 16.1381 18.6707L16.834 19.0042C17.1116 19.1376 17.433 18.9357 17.433 18.6256L17.4163 7.3161C17.4163 6.31731 17.1459 5.59976 16.7141 5.13642C16.2895 4.6821 15.6265 4.38462 14.6538 4.38462H7.91602C6.94697 4.38462 6.27675 4.6821 5.84495 5.14002C5.4073 5.60336 5.13236 6.32092 5.13236 7.3161L5.1229 18.6274C5.1229 18.9357 5.44426 19.1376 5.72101 19.006Z" fill="currentColor"/>
</svg>
