<svg width="24" height="24" viewBox="0 0 24 24" fill="none" xmlns="http://www.w3.org/2000/svg">
<path d="M10.3504 20.1923C10.2066 20.5457 9.80225 20.7151 9.4476 20.571L7.48604 19.7705C7.35217 19.7145 7.20884 19.6911 7.06776 19.7001C6.95013 19.7092 6.83339 19.7398 6.72477 19.7921L6.02975 20.1238C4.83804 20.6953 3.45974 19.8246 3.46154 18.5048L3.46966 7.28365C3.46966 6.05228 3.81401 4.96515 4.55274 4.18269C5.29553 3.39303 6.35743 3 7.61088 3H14.2938C15.5503 3 16.6082 3.39303 17.3465 4.18449C18.0775 4.96875 18.4137 6.05589 18.4137 7.28546V11.1562C18.4137 11.5385 18.1032 11.8485 17.7214 11.8485C17.3383 11.8485 17.0291 11.5385 17.0291 11.1562V7.28546C17.0291 6.29567 16.7605 5.58714 16.3337 5.12921C15.9127 4.67849 15.2574 4.38462 14.2938 4.38462H7.61088C7.01412 4.38462 6.53185 4.4982 6.14964 4.6929C5.91707 4.8119 5.72146 4.96154 5.55965 5.13282C5.12696 5.59074 4.85427 6.30108 4.85427 7.28546L4.84616 18.5066C4.84616 18.8058 5.15987 19.006 5.43255 18.8744L6.12756 18.5427C6.42999 18.3984 6.75677 18.3227 7.08534 18.3155C7.39859 18.3083 7.7132 18.366 8.00977 18.4867L9.97127 19.2891C10.3255 19.4333 10.4955 19.8371 10.3504 20.1923Z" fill="currentColor"/>
<path d="M13.5297 9.14243C13.5297 9.52464 13.2201 9.83474 12.8374 9.83474H8.35457C7.97281 9.83474 7.66226 9.52464 7.66226 9.14243C7.66226 8.76021 7.97281 8.45012 8.35457 8.45012H12.8374C13.2201 8.45012 13.5297 8.76021 13.5297 9.14243Z" fill="currentColor"/>
<path d="M12.0352 12.6256C12.0352 13.0078 11.7259 13.3179 11.3429 13.3179H8.35457C7.97281 13.3179 7.66226 13.0078 7.66226 12.6256C7.66226 12.3768 7.79387 12.1587 7.99129 12.0361C8.09721 11.9712 8.22161 11.9333 8.35457 11.9333H11.3429C11.7259 11.9333 12.0352 12.2434 12.0352 12.6256Z" fill="currentColor"/>
<path fill-rule="evenodd" clip-rule="evenodd" d="M15.4904 13.8137C15.8433 13.4315 16.3265 13.2422 16.8078 13.2512C17.222 13.2584 17.6349 13.4134 17.9631 13.7164L18.6702 14.3726C19.3792 15.0288 19.4225 16.1358 18.7672 16.8443L15.8721 20.0408C15.49 20.4681 14.9712 20.753 14.4028 20.8485L13.6321 20.9784C12.6157 21.1479 11.7192 20.3005 11.8291 19.2764L11.9153 18.4814C11.9414 18.2434 12.0014 18.0108 12.0919 17.7908C12.2006 17.5258 12.3538 17.2806 12.5463 17.0643L12.5494 17.0607L15.4854 13.8174L15.4904 13.8137ZM13.4031 19.6118L14.1738 19.4838C14.3357 19.4567 14.4894 19.3954 14.625 19.3053C14.7053 19.2512 14.7787 19.1863 14.8441 19.1142L14.8458 19.1106L17.7453 15.9087L17.7498 15.9051C17.8865 15.7572 17.8774 15.5247 17.7295 15.3894L17.0214 14.7331C16.8737 14.5962 16.6429 14.6052 16.5122 14.7476L13.5785 17.9874C13.4179 18.1676 13.3179 18.393 13.2922 18.631L13.2057 19.4261C13.1935 19.5397 13.2922 19.6316 13.4031 19.6118Z" fill="currentColor"/>
</svg>
