<svg width="24" height="24" viewBox="0 0 24 24" fill="none" xmlns="http://www.w3.org/2000/svg">
<path d="M14.9775 7.11156C14.7939 7.11156 14.6177 7.03862 14.488 6.90879C14.3581 6.77896 14.2852 6.60286 14.2852 6.41925V3.6851C14.2852 3.50149 14.3581 3.32539 14.488 3.19556C14.6177 3.06573 14.7939 2.99279 14.9775 2.99279C15.1611 2.99279 15.3372 3.06573 15.467 3.19556C15.5969 3.32539 15.6698 3.50149 15.6698 3.6851V6.41925C15.6698 6.60286 15.5969 6.77896 15.467 6.90879C15.3372 7.03862 15.1611 7.11156 14.9775 7.11156Z" fill="currentColor"/>
<path d="M8.26531 7.11156C8.08171 7.11156 7.90564 7.03862 7.77581 6.90879C7.64598 6.77896 7.57301 6.60286 7.57301 6.41925V3.6851C7.57301 3.50149 7.64598 3.32539 7.77581 3.19556C7.90564 3.06573 8.08171 2.99279 8.26531 2.99279C8.44892 2.99279 8.62502 3.06573 8.75486 3.19556C8.88469 3.32539 8.95762 3.50149 8.95762 3.6851V6.41925C8.95762 6.60286 8.88469 6.77896 8.75486 6.90879C8.62502 7.03862 8.44892 7.11156 8.26531 7.11156Z" fill="currentColor"/>
<path d="M10.1576 20.9913H8.10929C7.488 21.0442 6.86263 20.9615 6.27648 20.7488C5.69034 20.5362 5.15743 20.1987 4.7146 19.7598C4.27176 19.3207 3.9296 18.7908 3.71182 18.2065C3.49404 17.6223 3.40582 16.9976 3.45328 16.3759V8.85379C3.45328 6.04764 5.23759 4.30395 8.10929 4.30395H15.1422C15.7706 4.27261 16.3988 4.36702 16.9902 4.58164C17.5816 4.79625 18.1242 5.12677 18.5862 5.55379C18.9961 5.99645 19.3134 6.51656 19.5196 7.08358C19.7256 7.6506 19.8162 8.25308 19.7862 8.85564V11.6461C19.7862 11.8297 19.7132 12.0058 19.5834 12.1356C19.4536 12.2655 19.2775 12.3384 19.0939 12.3384C18.9102 12.3384 18.7342 12.2655 18.6043 12.1356C18.4745 12.0058 18.4016 11.8297 18.4016 11.6461V8.85379C18.4305 8.43281 18.3746 8.01029 18.2371 7.61134C18.0997 7.21239 17.8834 6.84512 17.6013 6.53133C17.2665 6.23534 16.8764 6.0085 16.4537 5.86386C16.0308 5.71923 15.5836 5.65964 15.1376 5.68856H8.10281C5.99358 5.68856 4.83144 6.81287 4.83144 8.85379V16.3722C4.78375 16.8117 4.83591 17.2563 4.98407 17.6728C5.13223 18.0893 5.37253 18.4669 5.68705 18.7775C6.00158 19.0881 6.3822 19.3237 6.8005 19.4667C7.2188 19.6096 7.66397 19.6562 8.10281 19.603H10.1576C10.3412 19.603 10.5173 19.6759 10.6471 19.8058C10.7769 19.9356 10.8499 20.1117 10.8499 20.2953C10.8499 20.4789 10.7769 20.655 10.6471 20.7848C10.5173 20.9147 10.3412 20.9876 10.1576 20.9876V20.9913Z" fill="currentColor"/>
<path d="M15.5381 10.747H7.692C7.50839 10.747 7.33232 10.6741 7.20248 10.5442C7.07265 10.4144 6.99969 10.2383 6.99969 10.0547C6.99969 9.87108 7.07265 9.69498 7.20248 9.56514C7.33232 9.43531 7.50839 9.36238 7.692 9.36238H15.5381C15.7217 9.36238 15.8979 9.43531 16.0277 9.56514C16.1575 9.69498 16.2305 9.87108 16.2305 10.0547C16.2305 10.2383 16.1575 10.4144 16.0277 10.5442C15.8979 10.6741 15.7217 10.747 15.5381 10.747Z" fill="currentColor"/>
<path d="M15.3436 20.3783C14.6882 20.3783 14.0476 20.184 13.5026 19.8198C12.9577 19.4558 12.5329 18.9383 12.2821 18.3328C12.0313 17.7273 11.9656 17.061 12.0933 16.4183C12.2212 15.7755 12.5367 15.185 13.0001 14.7215C13.4633 14.258 14.0537 13.9423 14.6965 13.8144C15.3393 13.6865 16.0056 13.7519 16.6111 14.0026C17.2167 14.2532 17.7342 14.6778 18.0985 15.2227C18.4627 15.7675 18.6572 16.4082 18.6574 17.0635C18.6565 17.9422 18.307 18.7846 17.6858 19.406C17.0645 20.0274 16.2222 20.3771 15.3436 20.3783ZM15.3436 15.1343C14.9621 15.1343 14.589 15.2475 14.2718 15.4594C13.9545 15.6714 13.7072 15.9727 13.5612 16.3253C13.4152 16.6778 13.3769 17.0657 13.4514 17.4399C13.5258 17.8141 13.7096 18.1578 13.9794 18.4277C14.2493 18.6975 14.593 18.8813 14.9672 18.9557C15.3414 19.0302 15.7293 18.9919 16.0818 18.8459C16.4344 18.6999 16.7357 18.4526 16.9477 18.1353C17.1596 17.8181 17.2728 17.445 17.2728 17.0635C17.2731 16.5514 17.07 16.0602 16.7082 15.6978C16.3465 15.3354 15.8557 15.1314 15.3436 15.1306V15.1343Z" fill="currentColor"/>
<path d="M18.4503 20.9933C18.3593 20.9934 18.2693 20.9756 18.1853 20.9407C18.1013 20.9059 18.025 20.8547 17.961 20.7902L16.6419 19.4693C16.5739 19.4058 16.5194 19.3294 16.4815 19.2445C16.4437 19.1596 16.4233 19.0679 16.4217 18.975C16.4201 18.882 16.4371 18.7897 16.4719 18.7035C16.5068 18.6173 16.5586 18.539 16.6243 18.4732C16.6901 18.4074 16.7684 18.3557 16.8545 18.3209C16.9408 18.286 17.0332 18.2689 17.1261 18.2706C17.2191 18.2722 17.3107 18.2925 17.3957 18.3304C17.4806 18.3682 17.557 18.4228 17.6203 18.4908L18.9395 19.808C19.0366 19.9047 19.1028 20.028 19.1297 20.1624C19.1567 20.2967 19.143 20.4361 19.0906 20.5626C19.0383 20.6893 18.9494 20.7975 18.8353 20.8734C18.7213 20.9494 18.5873 20.9898 18.4503 20.9896V20.9933Z" fill="currentColor"/>
</svg>
