<svg width="24" height="24" viewBox="0 0 24 24" fill="none" xmlns="http://www.w3.org/2000/svg">
<path fill-rule="evenodd" clip-rule="evenodd" d="M12.7103 17.1942C12.7103 15.4322 14.1391 14.0021 15.9025 14.0021C17.6661 14.0021 19.0937 15.4326 19.0937 17.1942C19.0937 17.8274 18.9098 18.4134 18.5952 18.9089L19.5043 19.8179C19.7747 20.0883 19.7747 20.5266 19.5043 20.797C19.234 21.0674 18.7956 21.0674 18.5252 20.797L17.6173 19.889C17.1223 20.2031 16.5339 20.3864 15.9025 20.3864C14.1391 20.3864 12.7103 18.9563 12.7103 17.1942ZM17.1807 18.4768C17.5112 18.1377 17.7091 17.6902 17.7091 17.1942C17.7091 16.1962 16.9004 15.3867 15.9025 15.3867C14.9042 15.3867 14.0949 16.1966 14.0949 17.1942C14.0949 18.1919 14.9042 19.0018 15.9025 19.0018C16.402 19.0018 16.8528 18.801 17.1807 18.4768Z" fill="currentColor"/>
<path fill-rule="evenodd" clip-rule="evenodd" d="M3.55708 5.79447C3.93943 5.79447 4.24939 6.10443 4.24939 6.48678V11.8272C4.24985 11.8306 4.25056 11.8352 4.25162 11.841C4.25665 11.8689 4.26951 11.9244 4.30099 11.9992C4.36207 12.1443 4.50258 12.3848 4.83351 12.6469C5.50552 13.179 7.01636 13.8382 10.3301 13.8382C10.7125 13.8382 11.0225 14.1481 11.0225 14.5305C11.0225 14.9129 10.7125 15.2228 10.3301 15.2228C6.87088 15.2228 4.99518 14.541 3.97393 13.7323C3.45821 13.324 3.1754 12.8941 3.02483 12.5363C2.95048 12.3597 2.91042 12.2057 2.889 12.0869C2.8783 12.0276 2.87224 11.9771 2.86887 11.937C2.86718 11.9168 2.86615 11.8994 2.86555 11.8846L2.86493 11.8646L2.86481 11.8561L2.86479 11.8523L2.86478 11.8505C2.86478 11.8505 2.86478 11.8487 3.55708 11.8487H2.86478V6.48678C2.86478 6.10443 3.17473 5.79447 3.55708 5.79447Z" fill="currentColor"/>
<path fill-rule="evenodd" clip-rule="evenodd" d="M17.104 5.79447C17.4863 5.79447 17.7963 6.10443 17.7963 6.48678V10.9553C17.7963 11.3377 17.4863 11.6476 17.104 11.6476C16.7216 11.6476 16.4117 11.3377 16.4117 10.9553V6.48678C16.4117 6.10443 16.7216 5.79447 17.104 5.79447Z" fill="currentColor"/>
<path fill-rule="evenodd" clip-rule="evenodd" d="M3.55708 11.1562C3.93943 11.1562 4.24939 11.4662 4.24939 11.8485V17.1898C4.24985 17.1931 4.25056 17.1978 4.25162 17.2036C4.25664 17.2314 4.26949 17.2868 4.30096 17.3616C4.36203 17.5066 4.50251 17.747 4.83342 18.009C5.50544 18.541 7.01632 19.1999 10.3301 19.1999C10.7125 19.1999 11.0225 19.5099 11.0225 19.8922C11.0225 20.2746 10.7125 20.5845 10.3301 20.5845C6.8709 20.5845 4.99525 19.9031 3.974 19.0946C3.45829 18.6863 3.17546 18.2565 3.02486 17.8989C2.9505 17.7222 2.91043 17.5682 2.88901 17.4495C2.8783 17.3901 2.87224 17.3396 2.86887 17.2996C2.86718 17.2794 2.86615 17.262 2.86555 17.2472L2.86493 17.2271L2.86481 17.2187L2.86479 17.2149L2.86478 17.2131C2.86478 17.2131 2.86478 17.2113 3.55708 17.2113H2.86478V11.8487C2.86478 11.4664 3.17473 11.1562 3.55708 11.1562Z" fill="currentColor"/>
<path fill-rule="evenodd" clip-rule="evenodd" d="M4.56641 5.85971C4.31044 6.10385 4.24939 6.29353 4.24939 6.42077C4.24939 6.548 4.31044 6.73769 4.56641 6.98182C4.82408 7.22757 5.23376 7.48079 5.7971 7.70804C6.92011 8.16107 8.51913 8.45692 10.3207 8.45692C12.1223 8.45692 13.7213 8.16107 14.8444 7.70804C15.4077 7.48079 15.8174 7.22757 16.075 6.98182C16.331 6.73769 16.3921 6.548 16.3921 6.42077C16.3921 6.29353 16.331 6.10385 16.075 5.85971C15.8174 5.61396 15.4077 5.36074 14.8444 5.13349C13.7213 4.68046 12.1223 4.38462 10.3207 4.38462C8.51913 4.38462 6.92011 4.68046 5.7971 5.13349C5.23376 5.36074 4.82408 5.61396 4.56641 5.85971ZM5.2791 3.84942C6.60404 3.31494 8.38684 3 10.3207 3C12.2546 3 14.0374 3.31494 15.3623 3.84942C16.0229 4.11592 16.6038 4.45063 17.0307 4.85775C17.4592 5.26646 17.7767 5.79456 17.7767 6.42077C17.7767 7.04697 17.4592 7.57507 17.0307 7.98379C16.6038 8.3909 16.0229 8.72562 15.3623 8.99212C14.0374 9.5266 12.2546 9.84153 10.3207 9.84153C8.38684 9.84153 6.60404 9.5266 5.2791 8.99212C4.61848 8.72562 4.03764 8.3909 3.61079 7.98379C3.18225 7.57507 2.86478 7.04697 2.86478 6.42077C2.86478 5.79456 3.18225 5.26646 3.61079 4.85775C4.03764 4.45063 4.61848 4.11592 5.2791 3.84942Z" fill="currentColor"/>
</svg>
