<svg width="24" height="24" viewBox="0 0 24 24" fill="none" xmlns="http://www.w3.org/2000/svg">
<path fill-rule="evenodd" clip-rule="evenodd" d="M10.9684 4.38462C7.05926 4.38462 3.89062 7.55324 3.89062 11.4623C3.89062 15.3715 7.05936 18.5409 10.9684 18.5409C12.8132 18.5409 14.4932 17.835 15.753 16.6783C15.7572 16.674 15.7614 16.6697 15.7657 16.6653C15.7827 16.6483 15.8003 16.6325 15.8185 16.6176C17.1898 15.3266 18.0461 13.4944 18.0461 11.4623C18.0461 7.55324 14.8774 4.38462 10.9684 4.38462ZM17.2335 17.1515C18.5987 15.6486 19.4307 13.6526 19.4307 11.4623C19.4307 6.78855 15.6421 3 10.9684 3C6.29455 3 2.506 6.78855 2.506 11.4623C2.506 16.136 6.29445 19.9255 10.9684 19.9255C12.9532 19.9255 14.7784 19.2421 16.2215 18.0978L18.9285 20.7978C19.1993 21.0678 19.6375 21.0673 19.9076 20.7966C20.1776 20.5259 20.1771 20.0875 19.9063 19.8175L17.2335 17.1515Z" fill="currentColor"/>
</svg>
