<svg width="24" height="24" viewBox="0 0 24 24" fill="none" xmlns="http://www.w3.org/2000/svg">
<path fill-rule="evenodd" clip-rule="evenodd" d="M12.2672 2.00052C12.9832 2.00052 13.6792 2.29452 14.1782 2.80552C14.6762 3.31952 14.9512 4.02452 14.9302 4.73952C14.9322 4.90052 14.9852 5.08652 15.0812 5.24952C15.2402 5.51952 15.4912 5.70952 15.7892 5.78752C16.0872 5.86152 16.3992 5.82152 16.6642 5.66452C17.9442 4.93352 19.5732 5.37152 20.3042 6.64152L20.9272 7.72052C20.9432 7.74952 20.9572 7.77752 20.9692 7.80652C21.6312 9.05752 21.1892 10.6325 19.9592 11.3515C19.7802 11.4545 19.6352 11.5985 19.5352 11.7725C19.3802 12.0415 19.3372 12.3615 19.4152 12.6555C19.4952 12.9555 19.6862 13.2045 19.9552 13.3585C20.5622 13.7075 21.0152 14.2955 21.1962 14.9745C21.3772 15.6525 21.2782 16.3885 20.9252 16.9955L20.2612 18.1015C19.5302 19.3575 17.9012 19.7925 16.6342 19.0605C16.4652 18.9635 16.2702 18.9105 16.0762 18.9055H16.0702C15.7812 18.9055 15.4842 19.0285 15.2682 19.2435C15.0492 19.4625 14.9292 19.7545 14.9312 20.0645C14.9242 21.5335 13.7292 22.7215 12.2672 22.7215H11.0142C9.5452 22.7215 8.3502 21.5275 8.3502 20.0585C8.3482 19.8775 8.2962 19.6895 8.1992 19.5265C8.0422 19.2525 7.7882 19.0565 7.4952 18.9785C7.2042 18.9005 6.8852 18.9435 6.6232 19.0955C5.9952 19.4455 5.2562 19.5305 4.5802 19.3405C3.9052 19.1495 3.3222 18.6855 2.9802 18.0705L2.3552 16.9935C1.6242 15.7255 2.0592 14.1005 3.3252 13.3685C3.6842 13.1615 3.9072 12.7755 3.9072 12.3615C3.9072 11.9475 3.6842 11.5605 3.3252 11.3535C2.0582 10.6175 1.6242 8.98852 2.3542 7.72052L3.0322 6.60752C3.7532 5.35352 5.3832 4.91152 6.6542 5.64152C6.8272 5.74452 7.0152 5.79652 7.2062 5.79852C7.8292 5.79852 8.3502 5.28452 8.3602 4.65252C8.3562 3.95552 8.6312 3.28652 9.1322 2.78152C9.6352 2.27752 10.3032 2.00052 11.0142 2.00052H12.2672ZM12.2672 3.50052H11.0142C10.7042 3.50052 10.4142 3.62152 10.1952 3.83952C9.9772 4.05852 9.8582 4.34952 9.8602 4.65952C9.8392 6.12152 8.6442 7.29852 7.1972 7.29852C6.7332 7.29352 6.2862 7.16852 5.8982 6.93652C5.3532 6.62652 4.6412 6.81752 4.3222 7.37252L3.6452 8.48552C3.3352 9.02352 3.5252 9.73452 4.0772 10.0555C4.8962 10.5295 5.4072 11.4135 5.4072 12.3615C5.4072 13.3095 4.8962 14.1925 4.0752 14.6675C3.5262 14.9855 3.3362 15.6925 3.6542 16.2425L4.2852 17.3305C4.4412 17.6115 4.6962 17.8145 4.9912 17.8975C5.2852 17.9795 5.6092 17.9445 5.8792 17.7945C6.2762 17.5615 6.7382 17.4405 7.2022 17.4405C7.4312 17.4405 7.6602 17.4695 7.8842 17.5295C8.5602 17.7115 9.1472 18.1635 9.4952 18.7705C9.7212 19.1515 9.8462 19.5965 9.8502 20.0505C9.8502 20.7005 10.3722 21.2215 11.0142 21.2215H12.2672C12.9062 21.2215 13.4282 20.7035 13.4312 20.0645C13.4272 19.3585 13.7032 18.6875 14.2082 18.1825C14.7062 17.6845 15.4022 17.3855 16.0982 17.4055C16.5542 17.4165 16.9932 17.5395 17.3802 17.7595C17.9372 18.0785 18.6482 17.8885 18.9702 17.3385L19.6342 16.2315C19.7822 15.9765 19.8252 15.6565 19.7462 15.3615C19.6682 15.0665 19.4722 14.8105 19.2082 14.6595C18.5902 14.3035 18.1492 13.7295 17.9662 13.0415C17.7852 12.3665 17.8842 11.6295 18.2372 11.0225C18.4672 10.6225 18.8042 10.2855 19.2082 10.0535C19.7502 9.73652 19.9402 9.02752 19.6252 8.47552C19.6122 8.45352 19.6002 8.43052 19.5902 8.40652L19.0042 7.39052C18.6852 6.83552 17.9752 6.64452 17.4182 6.96152C16.8162 7.31752 16.1002 7.41952 15.4122 7.23852C14.7252 7.06052 14.1492 6.62552 13.7902 6.01152C13.5602 5.62752 13.4352 5.18052 13.4312 4.72552C13.4402 4.38352 13.3202 4.07652 13.1022 3.85152C12.8852 3.62752 12.5802 3.50052 12.2672 3.50052ZM11.6451 8.97462C13.5121 8.97462 15.0311 10.4946 15.0311 12.3616C15.0311 14.2286 13.5121 15.7466 11.6451 15.7466C9.7781 15.7466 8.2591 14.2286 8.2591 12.3616C8.2591 10.4946 9.7781 8.97462 11.6451 8.97462ZM11.6451 10.4746C10.6051 10.4746 9.7591 11.3216 9.7591 12.3616C9.7591 13.4016 10.6051 14.2466 11.6451 14.2466C12.6851 14.2466 13.5311 13.4016 13.5311 12.3616C13.5311 11.3216 12.6851 10.4746 11.6451 10.4746Z" fill="currentColor"/>
</svg>
