<svg width="24" height="24" viewBox="0 0 24 24" fill="none" xmlns="http://www.w3.org/2000/svg">
<path fill-rule="evenodd" clip-rule="evenodd" d="M3 14.5673C3.38235 14.5673 3.69231 14.8772 3.69231 15.2596V16.7151C3.69231 18.3175 4.99084 19.6161 6.59335 19.6161H7.75327C8.13562 19.6161 8.44558 19.9261 8.44558 20.3084C8.44558 20.6908 8.13562 21.0007 7.75327 21.0007H6.59335C4.22614 21.0007 2.30769 19.0823 2.30769 16.7151V15.2596C2.30769 14.8772 2.61765 14.5673 3 14.5673Z" fill="currentColor"/>
<path fill-rule="evenodd" clip-rule="evenodd" d="M7.5649 9.80769C7.94726 9.80769 8.25721 10.1177 8.25721 10.5V13.5004C8.25721 13.8827 7.94726 14.1927 7.5649 14.1927C7.18255 14.1927 6.87259 13.8827 6.87259 13.5004V10.5C6.87259 10.1177 7.18255 9.80769 7.5649 9.80769Z" fill="currentColor"/>
<path fill-rule="evenodd" clip-rule="evenodd" d="M15.0505 9.80769C15.4328 9.80769 15.7428 10.1177 15.7428 10.5V13.5004C15.7428 13.8827 15.4328 14.1927 15.0505 14.1927C14.6682 14.1927 14.3582 13.8827 14.3582 13.5004V10.5C14.3582 10.1177 14.6682 9.80769 15.0505 9.80769Z" fill="currentColor"/>
<path fill-rule="evenodd" clip-rule="evenodd" d="M11.3077 7.06911C11.69 7.06911 12 7.37907 12 7.76142V16.238C12 16.6204 11.69 16.9303 11.3077 16.9303C10.9254 16.9303 10.6154 16.6204 10.6154 16.238V7.76142C10.6154 7.37907 10.9254 7.06911 11.3077 7.06911Z" fill="currentColor"/>
<path fill-rule="evenodd" clip-rule="evenodd" d="M6.59335 4.38462C4.99084 4.38462 3.69231 5.68314 3.69231 7.28566V8.74109C3.69231 9.12344 3.38235 9.4334 3 9.4334C2.61765 9.4334 2.30769 9.12344 2.30769 8.74109V7.28566C2.30769 4.91845 4.22614 3 6.59335 3H7.78312C8.16547 3 8.47543 3.30996 8.47543 3.69231C8.47543 4.07466 8.16547 4.38462 7.78312 4.38462H6.59335Z" fill="currentColor"/>
<path fill-rule="evenodd" clip-rule="evenodd" d="M19.6136 14.5673C19.996 14.5673 20.3059 14.8772 20.3059 15.2596V16.7151C20.3059 19.0823 18.3875 21.0007 16.0203 21.0007H14.8305C14.4482 21.0007 14.1382 20.6908 14.1382 20.3084C14.1382 19.9261 14.4482 19.6161 14.8305 19.6161H16.0203C17.6228 19.6161 18.9213 18.3175 18.9213 16.7151V15.2596C18.9213 14.8772 19.2313 14.5673 19.6136 14.5673Z" fill="currentColor"/>
<path fill-rule="evenodd" clip-rule="evenodd" d="M14.1689 3.69231C14.1689 3.30996 14.4788 3 14.8612 3H16.0211C18.3883 3 20.3068 4.91845 20.3068 7.28566V8.74109C20.3068 9.12344 19.9968 9.4334 19.6145 9.4334C19.2321 9.4334 18.9222 9.12344 18.9222 8.74109V7.28566C18.9222 5.68314 17.6236 4.38462 16.0211 4.38462H14.8612C14.4788 4.38462 14.1689 4.07466 14.1689 3.69231Z" fill="currentColor"/>
</svg>
