<svg width="24" height="24" viewBox="0 0 24 24" fill="none" xmlns="http://www.w3.org/2000/svg">
<path d="M7.69694 16.2426C6.8535 16.1928 6.04315 15.8969 5.3661 15.3914C4.68905 14.8859 4.17496 14.1931 3.88739 13.3986C3.57534 12.5642 3.53365 11.6527 3.76823 10.7933C4.0028 9.93384 4.50176 9.16994 5.19448 8.60973C6.08525 8.00788 13.0905 3.69341 13.3887 3.51064C13.466 3.46022 13.5528 3.42579 13.6437 3.4094C13.7346 3.39302 13.828 3.39501 13.9182 3.41525C14.0083 3.4355 14.0935 3.47358 14.1688 3.52727C14.2439 3.58095 14.3076 3.64916 14.3561 3.72785C14.4045 3.80655 14.4367 3.89415 14.4508 3.98548C14.4648 4.07681 14.4605 4.17003 14.4378 4.25965C14.4153 4.34926 14.3751 4.43345 14.3195 4.50726C14.2638 4.58107 14.1941 4.643 14.1141 4.68941C14.0412 4.73464 6.83663 9.17095 5.96986 9.75711C5.53998 10.1483 5.23615 10.6585 5.09704 11.2228C4.95792 11.7871 4.98979 12.3801 5.18861 12.9262C5.38742 13.4724 5.74419 13.9471 6.21353 14.29C6.68286 14.6328 7.24356 14.8283 7.82431 14.8516C8.8637 14.7426 17.2766 13.5057 17.3615 13.4928C17.5432 13.466 17.7281 13.5125 17.8755 13.6219C18.0229 13.7314 18.1207 13.895 18.1475 14.0766C18.1744 14.2583 18.1279 14.4432 18.0184 14.5906C17.9089 14.7379 17.7453 14.8359 17.5637 14.8626C17.2157 14.9143 9.03631 16.1171 7.96371 16.2288C7.87507 16.238 7.78604 16.2426 7.69694 16.2426Z" fill="currentColor"/>
<path d="M11.3096 21.2287C10.7682 21.2273 10.2403 21.0597 9.79699 20.749C9.35372 20.4382 9.0163 19.999 8.83024 19.4906L7.46778 15.7466C7.41529 15.5768 7.43011 15.3933 7.5092 15.2341C7.58829 15.075 7.72557 14.9523 7.89261 14.8915C8.05965 14.8308 8.24367 14.8366 8.40653 14.9078C8.56938 14.979 8.69862 15.1101 8.76747 15.274L10.1309 19.018C10.2446 19.331 10.4779 19.586 10.7797 19.7269C11.0814 19.8678 11.4268 19.8831 11.7398 19.7694C12.0528 19.6556 12.3078 19.4223 12.4487 19.1205C12.5896 18.8188 12.6049 18.4734 12.4912 18.1604L11.4296 15.2435C11.3969 15.1578 11.3814 15.0664 11.3843 14.9746C11.3873 14.8829 11.4083 14.7926 11.4464 14.709C11.4846 14.6255 11.5389 14.5505 11.6063 14.4881C11.6737 14.4258 11.7528 14.3775 11.839 14.346C11.9253 14.3145 12.017 14.3006 12.1086 14.3048C12.2003 14.3092 12.2903 14.3316 12.3732 14.371C12.4562 14.4103 12.5304 14.4658 12.5917 14.5342C12.653 14.6025 12.7001 14.6824 12.7302 14.769L13.7918 17.686C13.9364 18.0851 13.9829 18.5131 13.9271 18.934C13.8714 19.3548 13.7152 19.7561 13.4716 20.1037C13.2281 20.4514 12.9043 20.7354 12.5278 20.9315C12.1514 21.1277 11.7332 21.2302 11.3087 21.2306L11.3096 21.2287Z" fill="currentColor"/>
<path d="M17.281 14.8798C15.7293 14.8798 13.9376 12.9875 12.8936 10.1213C11.7075 6.86194 12.0712 3.94594 13.7392 3.33763C14.6198 3.01825 15.6416 3.39671 16.6219 4.40379C18.4879 6.5276 19.4882 9.2749 19.4244 12.1014C19.3219 13.5035 18.7782 14.4515 17.9013 14.7718C17.7025 14.8439 17.4925 14.8805 17.281 14.8798ZM14.3733 4.6124C14.3186 4.61197 14.2643 4.62103 14.2127 4.63918C13.5509 4.8801 13.2139 6.94686 14.1942 9.64686C15.1746 12.3469 16.7632 13.7195 17.425 13.4703C17.7472 13.353 17.9789 12.79 18.0407 12.0007C18.0758 9.56887 17.2168 7.20879 15.6269 5.3684C15.3124 4.97509 14.8679 4.70698 14.3733 4.6124Z" fill="currentColor"/>
</svg>
