<svg viewBox="0 0 24 24" fill="currentColor" xmlns="http://www.w3.org/2000/svg">
<path fill-rule="evenodd" clip-rule="evenodd" d="M7.2234 16.9822C6.44216 17.69 6.1298 18.5905 6.1298 19.3837C6.1298 19.7661 5.81985 20.076 5.43749 20.076C5.05515 20.076 4.74519 19.7661 4.74519 19.3837C4.74519 18.2305 5.20069 16.9464 6.29377 15.9561C7.38855 14.9643 9.06013 14.3221 11.3991 14.3221C13.7367 14.3221 15.4079 14.9592 16.503 15.9463C17.5971 16.9325 18.0529 18.213 18.0529 19.3671C18.0529 19.7494 17.7429 20.0594 17.3606 20.0594C16.9782 20.0594 16.6683 19.7494 16.6683 19.3671C16.6683 18.574 16.3563 17.6781 15.576 16.9747C14.7967 16.2724 13.4873 15.7067 11.3991 15.7067C9.31209 15.7067 8.00293 16.276 7.2234 16.9822Z" fill="currentColor"/>
<path fill-rule="evenodd" clip-rule="evenodd" d="M11.4451 5.3077C9.72471 5.3077 8.32933 6.70306 8.32933 8.42347C8.32933 10.1439 9.72471 11.5392 11.4451 11.5392C13.1655 11.5392 14.5609 10.1439 14.5609 8.42347C14.5609 6.70306 13.1655 5.3077 11.4451 5.3077ZM6.94471 8.42347C6.94471 5.93836 8.95998 3.92308 11.4451 3.92308C13.9302 3.92308 15.9455 5.93836 15.9455 8.42347C15.9455 10.9086 13.9302 12.9238 11.4451 12.9238C8.95998 12.9238 6.94471 10.9086 6.94471 8.42347Z" fill="currentColor"/>
<path fill-rule="evenodd" clip-rule="evenodd" d="M17.342 5.52743C17.6608 5.31632 18.0904 5.40362 18.3015 5.72242C18.8139 6.49617 19.1122 7.42453 19.1122 8.42041C19.1122 9.41629 18.8139 10.3446 18.3015 11.1184C18.0904 11.4372 17.6608 11.5245 17.342 11.3134C17.0232 11.1023 16.9359 10.6727 17.147 10.354C17.5139 9.79982 17.7276 9.13604 17.7276 8.42041C17.7276 7.7048 17.5139 7.04101 17.147 6.48688C16.9359 6.16809 17.0232 5.73852 17.342 5.52743Z" fill="currentColor" />
<path fill-rule="evenodd" clip-rule="evenodd" d="M5.55102 5.52743C5.23224 5.31632 4.80268 5.40362 4.59157 5.72242C4.0792 6.49617 3.78077 7.42453 3.78077 8.42041C3.78077 9.41629 4.0792 10.3446 4.59157 11.1184C4.80268 11.4372 5.23224 11.5245 5.55102 11.3134C5.86982 11.1023 5.95712 10.6727 5.74602 10.354C5.37907 9.79982 5.16538 9.13604 5.16538 8.42041C5.16538 7.7048 5.37907 7.04101 5.74602 6.48688C5.95712 6.16809 5.86982 5.73852 5.55102 5.52743Z" fill="currentColor" />
</svg>
