<svg width="24" height="24" viewBox="0 0 24 24" fill="none" xmlns="http://www.w3.org/2000/svg">
<path fill-rule="evenodd" clip-rule="evenodd" d="M19.6985 9.11569L15.7625 8.54833C15.5398 8.52049 15.3459 8.38129 15.2432 8.17585L13.4883 4.66225C13.4854 4.65841 13.4835 4.65457 13.4816 4.64977C13.3203 4.35121 13.0697 4.10065 12.7673 3.94033C11.9542 3.52657 10.9452 3.84529 10.5161 4.66225L8.75936 8.17489C8.65568 8.38033 8.45984 8.52049 8.22848 8.54929L4.30112 9.11569C3.92096 9.17233 3.58784 9.34129 3.34016 9.60239C3.03488 9.91823 2.87168 10.3349 2.88032 10.7746C2.88896 11.2142 3.06848 11.6222 3.38336 11.9237L6.23168 14.6654C6.39008 14.8133 6.464 15.0389 6.4256 15.2587L5.75264 19.116C5.69504 19.476 5.75648 19.8475 5.92352 20.1547C6.1328 20.5483 6.48128 20.8354 6.9056 20.9659C7.06592 21.0149 7.23008 21.0389 7.39232 21.0389C7.6592 21.0389 7.9232 20.9736 8.16224 20.8459L11.6758 19.0296C11.8793 18.9211 12.1241 18.9211 12.3324 19.0315L15.8288 20.8402C16.1427 21.013 16.5008 21.0754 16.878 21.0178C17.7795 20.8699 18.3968 20.0155 18.2499 19.1083L17.5779 15.2587C17.5385 15.0322 17.6115 14.8104 17.7776 14.651L20.6172 11.9237C20.8832 11.6674 21.0579 11.3246 21.1059 10.9589C21.224 10.0642 20.5913 9.23665 19.6985 9.11569Z" fill="currentColor"/>
</svg>
