<svg width="24" height="24" viewBox="0 0 24 24" fill="none" xmlns="http://www.w3.org/2000/svg">
<path fill-rule="evenodd" clip-rule="evenodd" d="M12.51 5.52753C11.9108 5.23432 11.2101 5.23432 10.6109 5.52753L4.57784 8.47622C4.57779 8.47624 4.57788 8.47619 4.57784 8.47622C3.74576 8.88325 3.74541 10.0702 4.57857 10.4773L10.7714 13.5042C11.3342 13.7232 11.9655 13.6989 12.513 13.4313L18.5504 10.4809C19.3834 10.0738 19.3834 8.88613 18.5504 8.47901L12.51 5.52753ZM10.2091 14.7704L10.2864 14.8083C10.351 14.8398 10.4181 14.8604 10.4856 14.8708C11.3502 15.1446 12.2941 15.0795 13.1209 14.6754L15.8152 13.3587V16.7784C15.8152 17.2966 15.508 17.7635 15.0509 17.955C12.6841 18.9463 10.3247 18.9359 7.92924 17.9473C7.46807 17.7566 7.15841 17.2885 7.15841 16.7676V13.2879L9.99721 14.6754C10.067 14.7095 10.1377 14.7412 10.2091 14.7704ZM5.77379 12.6027V16.7676C5.77379 17.8273 6.40165 18.8142 7.40072 19.227C10.1283 20.3527 12.8708 20.3694 15.5858 19.2321C16.5783 18.8164 17.1998 17.8319 17.1998 16.7784V12.6821L19.1584 11.7249C19.1624 11.7229 19.1666 11.7209 19.1707 11.7188L19.1539 14.4632C19.1516 14.8456 19.4597 15.1574 19.842 15.1597C20.2243 15.1621 20.5362 14.8541 20.5385 14.4716L20.569 9.47433C20.5693 9.4262 20.5647 9.37919 20.5556 9.33377C20.5075 8.48956 20.0417 7.66668 19.1584 7.23498L13.1185 4.28376C13.1184 4.28372 13.1186 4.28382 13.1185 4.28376C12.1354 3.80294 10.9857 3.8028 10.0027 4.28365L3.96969 7.2323C2.10206 8.14562 2.10217 10.8082 3.97059 11.7213C3.97058 11.7213 3.9706 11.7213 3.97059 11.7213L5.77379 12.6027Z" fill="currentColor"/>
</svg>
