<svg width="24" height="24" viewBox="0 0 24 24" fill="none" xmlns="http://www.w3.org/2000/svg">
<path fill-rule="evenodd" clip-rule="evenodd" d="M4.42071 5.49521C5.269 4.68858 6.44971 4.3125 7.79458 4.3125H14.8288C16.1767 4.3125 17.358 4.68829 18.2051 5.49583C19.0572 6.30825 19.4811 7.47193 19.4773 8.86301V14.4038C19.4773 15.1034 19.207 15.7754 18.7223 16.2805L14.9905 20.1678C14.4796 20.6992 13.7739 21.0013 13.0351 21.0013H7.79458C6.44554 21.0013 5.26334 20.6149 4.41586 19.7933C3.56498 18.9683 3.13882 17.7892 3.13882 16.3806V8.86228C3.13882 7.47014 3.56711 6.30689 4.42071 5.49521ZM5.37484 6.4986C4.85677 6.99123 4.52344 7.75672 4.52344 8.86228V16.3806C4.52344 17.5091 4.8589 18.2942 5.37969 18.7992C5.90387 19.3074 6.7034 19.6167 7.79458 19.6167H13.0351C13.3958 19.6167 13.7412 19.4694 13.992 19.2085L17.7232 15.322C17.9606 15.0745 18.0927 14.7458 18.0927 14.4038V8.86028C18.0959 7.75423 17.7654 6.98963 17.2496 6.49798C16.7286 6.00122 15.9283 5.69712 14.8288 5.69712H7.79458C6.69924 5.69712 5.89822 6.00092 5.37484 6.4986Z" fill="currentColor"/>
<path fill-rule="evenodd" clip-rule="evenodd" d="M16.0229 14.1887H18.7208C19.1033 14.1887 19.4131 14.4987 19.4131 14.881C19.4131 15.2634 19.1033 15.5733 18.7208 15.5733H16.0256C15.0179 15.5764 14.2025 16.3939 14.2031 17.4017V20.2492C14.2031 20.6315 13.8931 20.9415 13.5108 20.9415C13.1285 20.9415 12.8185 20.6315 12.8185 20.2492V17.4023C12.8176 15.6299 14.2523 14.1933 16.0229 14.1887Z" fill="currentColor"/>
<path fill-rule="evenodd" clip-rule="evenodd" d="M7.95613 3C8.33848 3 8.64844 3.30996 8.64844 3.69231V6.42622C8.64844 6.80857 8.33848 7.11853 7.95613 7.11853C7.57378 7.11853 7.26382 6.80857 7.26382 6.42622V3.69231C7.26382 3.30996 7.57378 3 7.95613 3ZM14.668 3C15.0503 3 15.3603 3.30996 15.3603 3.69231V6.42622C15.3603 6.80857 15.0503 7.11853 14.668 7.11853C14.2856 7.11853 13.9757 6.80857 13.9757 6.42622V3.69231C13.9757 3.30996 14.2856 3 14.668 3Z" fill="currentColor"/>
<path fill-rule="evenodd" clip-rule="evenodd" d="M7.72897 10.4531C7.72897 10.0708 8.03892 9.76082 8.42128 9.76082H14.1954C14.5777 9.76082 14.8877 10.0708 14.8877 10.4531C14.8877 10.8354 14.5777 11.1454 14.1954 11.1454H8.42128C8.03892 11.1454 7.72897 10.8354 7.72897 10.4531Z" fill="currentColor"/>
</svg>
