<svg width="24" height="24" viewBox="0 0 24 24" fill="none" xmlns="http://www.w3.org/2000/svg">
<path d="M5.0173 11.535C4.66831 11.5762 4.31457 11.5467 3.97723 11.4482C3.63989 11.3497 3.32586 11.1843 3.0539 10.9617C2.52498 10.4457 2.3099 9.61676 2.3099 8.10015L2.31176 8.0023C2.29565 7.59948 2.36505 7.19782 2.51541 6.82376C2.66576 6.44971 2.89363 6.11176 3.18405 5.83215C4.48928 4.51123 7.22253 3.84107 11.3071 3.84015C15.3917 3.84015 18.124 4.5103 19.4302 5.82938C19.7209 6.10887 19.949 6.44678 20.0994 6.82085C20.25 7.19491 20.3195 7.59663 20.3034 7.99952C20.3034 8.02352 20.3034 8.07153 20.3034 8.09184C20.3034 9.61307 20.0884 10.443 19.5594 10.959C18.9327 11.5691 18.0604 11.5496 16.9748 11.5182C16.6903 11.4925 16.4043 11.4882 16.1191 11.5054C15.5881 11.5333 15.0635 11.3779 14.6332 11.0654C14.2029 10.7529 13.8929 10.3021 13.7551 9.78846C13.4099 9.00015 13.1367 8.37615 11.3062 8.37615C9.47574 8.37615 9.20344 9.00014 8.85913 9.78937C8.72179 10.3028 8.41236 10.7536 7.98257 11.0662C7.55278 11.3789 7.02868 11.5346 6.49789 11.5073C6.19328 11.5073 5.91266 11.5146 5.6542 11.5201C5.43359 11.5275 5.2176 11.535 5.0173 11.535ZM11.3099 5.22107C6.69913 5.22107 4.88251 6.08137 4.17082 6.80137C4.01001 6.95125 3.88428 7.13479 3.80257 7.33887C3.72088 7.54295 3.68525 7.76255 3.69821 7.98199C3.69821 8.06599 3.6982 8.1306 3.69266 8.17214C3.61648 8.79061 3.73183 9.41757 4.02312 9.96845C4.23266 10.1733 4.8456 10.1576 5.62191 10.1374C5.89145 10.1309 6.18407 10.1235 6.50068 10.1235C7.20684 10.1235 7.31206 9.88168 7.5936 9.23645C7.98406 8.34291 8.57298 6.99337 11.3099 6.99245C14.0468 6.99245 14.6376 8.34199 15.0271 9.2346C15.3114 9.88075 15.4167 10.1364 16.1348 10.1217C16.4524 10.1217 16.7468 10.1291 17.0182 10.1355C17.789 10.1549 18.3973 10.1706 18.605 9.96845C18.9036 9.39149 19.0177 8.7367 18.9317 8.09275V8.10199C18.9317 8.10199 18.9317 8.04753 18.9317 7.98015C18.9448 7.76075 18.909 7.54119 18.8272 7.33722C18.7454 7.13325 18.6193 6.94995 18.4582 6.80046C17.7382 6.07953 15.9207 5.22107 11.3099 5.22107Z" fill="currentColor"/>
<path d="M14.4668 20.1581H8.14466C7.51515 20.1726 6.88977 20.0526 6.31023 19.8065C5.7307 19.5602 5.21029 19.1933 4.78372 18.7301C4.41767 18.3059 4.14791 17.8074 3.99301 17.2689C3.83812 16.7305 3.80179 16.1648 3.88651 15.611L4.56867 10.9836C4.59548 10.8019 4.69333 10.6384 4.84074 10.5289C4.98815 10.4194 5.17299 10.373 5.35464 10.3998C5.5363 10.4266 5.69988 10.5245 5.80937 10.6719C5.91886 10.8193 5.96531 11.0041 5.9385 11.1858L5.25726 15.8011C5.19926 16.1581 5.22004 16.5234 5.31811 16.8715C5.41618 17.2196 5.58916 17.5421 5.82497 17.8162C6.1218 18.1308 6.48213 18.3787 6.88205 18.5434C7.28198 18.7081 7.71238 18.7859 8.14466 18.7716H14.4668C14.9274 18.7864 15.3856 18.7007 15.8098 18.5205C16.234 18.3404 16.6139 18.0702 16.9231 17.7285C17.1382 17.4678 17.2908 17.1613 17.3692 16.8325C17.4476 16.5037 17.4497 16.1614 17.3754 15.8316L16.6804 11.1848C16.6537 11.0033 16.7001 10.8185 16.8094 10.671C16.9188 10.5235 17.0822 10.4255 17.2637 10.3984C17.445 10.3734 17.6289 10.4203 17.7761 10.5292C17.9233 10.638 18.022 10.8002 18.0511 10.9808L18.7407 15.5962C18.8483 16.1224 18.8368 16.666 18.7072 17.1871C18.5775 17.7083 18.3328 18.1939 17.9911 18.6082C17.5518 19.1074 17.0089 19.5047 16.4001 19.7724C15.7914 20.0401 15.1316 20.1717 14.4668 20.1581Z" fill="currentColor"/>
<path d="M11.3105 16.5815C10.7692 16.5815 10.2399 16.421 9.78968 16.1202C9.33949 15.8194 8.98857 15.3919 8.78129 14.8918C8.57401 14.3916 8.51968 13.8412 8.62517 13.3102C8.73066 12.7792 8.99123 12.2913 9.37392 11.9083C9.75663 11.5254 10.2443 11.2645 10.7752 11.1586C11.3063 11.0527 11.8567 11.1067 12.357 11.3137C12.8573 11.5206 13.285 11.8712 13.5861 12.3212C13.8871 12.7712 14.048 13.3003 14.0484 13.8418C14.0479 14.5679 13.7594 15.2642 13.246 15.7779C12.7327 16.2915 12.0367 16.5805 11.3105 16.5815ZM11.3105 12.4895C11.0428 12.4895 10.7812 12.5689 10.5586 12.7176C10.336 12.8663 10.1626 13.0777 10.0602 13.3251C9.95786 13.5724 9.93109 13.8445 9.98343 14.107C10.0357 14.3695 10.1646 14.6106 10.354 14.7999C10.5434 14.9891 10.7846 15.118 11.0471 15.17C11.3096 15.2222 11.5817 15.1952 11.829 15.0927C12.0763 14.9901 12.2876 14.8165 12.4361 14.5938C12.5848 14.3712 12.664 14.1094 12.6638 13.8418C12.6628 13.4833 12.5199 13.1397 12.2663 12.8863C12.0127 12.6329 11.6691 12.4902 11.3105 12.4895Z" fill="currentColor"/>
</svg>
