<svg width="24" height="24" viewBox="0 0 24 24" fill="none" xmlns="http://www.w3.org/2000/svg">
<path fill-rule="evenodd" clip-rule="evenodd" d="M16.1213 10.604C16.4356 10.8475 16.493 11.2998 16.2495 11.6141L13.9399 14.5951C13.8225 14.7467 13.6494 14.8452 13.4591 14.8687C13.2687 14.8922 13.0769 14.8388 12.9261 14.7205L10.8058 13.0556L8.88906 15.5461C8.64654 15.8612 8.19448 15.9201 7.87936 15.6776C7.56423 15.435 7.50538 14.9829 7.7479 14.6678L10.108 11.6012C10.2253 11.449 10.3984 11.3498 10.5891 11.326C10.7798 11.3021 10.972 11.3554 11.1232 11.474L13.2454 13.1403L15.1111 10.7322C15.3546 10.4178 15.8069 10.3604 16.1213 10.604Z" fill="currentColor"/>
<path fill-rule="evenodd" clip-rule="evenodd" d="M19.2038 7.81688C18.8061 7.81688 18.4838 8.13923 18.4838 8.53688V16.8649C18.4838 18.0916 17.4891 19.0862 16.2624 19.0862H7.73825C6.51158 19.0862 5.51691 18.0916 5.51691 16.8649V8.53688C5.51691 8.13923 5.19455 7.81688 4.79691 7.81688C4.39927 7.81688 4.07691 8.13923 4.07691 8.53688V16.8649C4.07691 18.8869 5.71628 20.5262 7.73825 20.5262H16.2624C18.2844 20.5262 19.9238 18.8869 19.9238 16.8649V8.53688C19.9238 8.13923 19.6014 7.81688 19.2038 7.81688Z" fill="currentColor"/>
<path fill-rule="evenodd" clip-rule="evenodd" d="M13.8615 3.38634C12.7704 2.52373 11.2295 2.52373 10.1384 3.38634L2.9131 9.10583C2.60131 9.35264 2.54865 9.80544 2.79545 10.1173C3.04225 10.4291 3.49508 10.4817 3.80686 10.2349L11.0314 4.51598C11.599 4.0675 12.4008 4.06727 12.9685 4.51588L20.1931 10.2349C20.5048 10.4817 20.9577 10.4291 21.2045 10.1173C21.4513 9.80544 21.3986 9.35264 21.0869 9.10583L13.8615 3.38634Z" fill="currentColor"/>
</svg>
