<svg width="24" height="24" viewBox="0 0 24 24" fill="none" xmlns="http://www.w3.org/2000/svg">
<path fill-rule="evenodd" clip-rule="evenodd" d="M11.76 4.09314C7.38556 4.09314 3.84 7.63871 3.84 12.0132C3.84 16.3876 7.38556 19.9332 11.76 19.9332C16.1344 19.9332 19.68 16.3876 19.68 12.0132C19.68 7.63871 16.1344 4.09314 11.76 4.09314ZM2.4 12.0132C2.4 6.84341 6.59028 2.65314 11.76 2.65314C16.9297 2.65314 21.12 6.84341 21.12 12.0132C21.12 17.1829 16.9297 21.3732 11.76 21.3732C6.59028 21.3732 2.4 17.1829 2.4 12.0132Z" fill="black"/>
<path fill-rule="evenodd" clip-rule="evenodd" d="M11.714 7.93315C11.9987 7.93165 12.2575 8.09803 12.3743 8.35763L15.3989 15.0776C15.5621 15.4403 15.4004 15.8665 15.0378 16.0297C14.6752 16.1929 14.249 16.0312 14.0858 15.6687L11.7271 10.4281L9.4374 15.6617C9.27801 16.0261 8.85348 16.1921 8.48918 16.0328C8.12486 15.8734 7.95875 15.4488 8.11813 15.0846L11.0581 8.36455C11.1722 8.10374 11.4293 7.93464 11.714 7.93315Z" fill="black"/>
<path fill-rule="evenodd" clip-rule="evenodd" d="M13.9543 14.3643H9.56532V12.9243H13.9543V14.3643Z" fill="black"/>
</svg>
