<svg width="24" height="24" viewBox="0 0 24 24" fill="none" xmlns="http://www.w3.org/2000/svg">
<path fill-rule="evenodd" clip-rule="evenodd" d="M15.2076 6.92109C15.2076 6.52345 15.53 6.20109 15.9276 6.20109H20.6399C21.0375 6.20109 21.3599 6.52344 21.3599 6.92108V11.6334C21.3599 12.031 21.0376 12.3534 20.6399 12.3534C20.2423 12.3534 19.9199 12.031 19.9199 11.6334V7.64109H15.9276C15.53 7.64109 15.2076 7.31874 15.2076 6.92109Z" fill="currentColor"/>
<path fill-rule="evenodd" clip-rule="evenodd" d="M21.1491 6.41105C21.4302 6.69222 21.4302 7.14809 21.1491 7.42928L13.6869 14.8914C13.5518 15.0264 13.3688 15.1023 13.1777 15.1022C12.9868 15.1022 12.8036 15.0264 12.6686 14.8913L9.25099 11.4729L3.86911 16.8548C3.58794 17.1359 3.13205 17.1359 2.85088 16.8548C2.56971 16.5736 2.56971 16.1177 2.85088 15.8365L8.74193 9.94551C8.87697 9.81043 9.06012 9.73459 9.25109 9.73459C9.44207 9.73459 9.62524 9.81053 9.76022 9.94551L13.1778 13.364L20.1308 6.41105C20.412 6.12986 20.8679 6.12986 21.1491 6.41105Z" fill="currentColor"/>
</svg>
