<svg width="24" height="24" viewBox="0 0 24 24" fill="none" xmlns="http://www.w3.org/2000/svg">
<path fill-rule="evenodd" clip-rule="evenodd" d="M20.6391 10.9143C21.0368 10.9143 21.3592 11.2366 21.3592 11.6342L21.3601 16.3467C21.3601 16.5376 21.2843 16.7208 21.1493 16.8559C21.0142 16.9909 20.831 17.0668 20.6401 17.0668L15.927 17.0667C15.5292 17.0667 15.207 16.7443 15.207 16.3467C15.207 15.9491 15.5293 15.6267 15.927 15.6267L19.92 15.6268L19.9192 11.6345C19.9192 11.2369 20.2415 10.9144 20.6391 10.9143Z" fill="currentColor"/>
<path fill-rule="evenodd" clip-rule="evenodd" d="M2.85088 6.41105C3.13205 6.12986 3.58794 6.12986 3.86911 6.41105L9.25108 11.793L12.6687 8.37536C12.9499 8.09419 13.4057 8.09417 13.6869 8.37532L21.1491 15.8365C21.4303 16.1177 21.4303 16.5736 21.1492 16.8548C20.868 17.136 20.4121 17.136 20.1309 16.8548L13.1779 9.90269L9.76022 13.3204C9.47902 13.6016 9.02313 13.6016 8.74196 13.3204L2.85088 7.42928C2.56971 7.14809 2.56971 6.69222 2.85088 6.41105Z" fill="currentColor"/>
</svg>
