<svg width="24" height="24" viewBox="0 0 24 24" fill="none" xmlns="http://www.w3.org/2000/svg">
<path fill-rule="evenodd" clip-rule="evenodd" d="M4.59214 6.43157C5.34312 4.64521 6.9914 3.53365 9.14829 3.53365H16.3674C17.8666 3.53365 19.1349 4.06722 20.0249 5.02291C20.9096 5.97303 21.369 7.28397 21.369 8.75366V14.917C21.369 16.3866 20.9097 17.6978 20.0248 18.6482C19.1346 19.6041 17.8662 20.138 16.3664 20.138H13.1321C12.7497 20.138 12.4398 19.8281 12.4398 19.4457C12.4398 19.0633 12.7497 18.7534 13.1321 18.7534H16.3664C17.5242 18.7534 18.4109 18.3497 19.0114 17.7046C19.6172 17.054 19.9843 16.1009 19.9843 14.917V8.75366C19.9843 7.56979 19.6172 6.61688 19.0116 5.96653C18.4111 5.32177 17.5248 4.91826 16.3674 4.91826H9.14829C7.52096 4.91826 6.39295 5.72078 5.86855 6.96818C5.72037 7.32064 5.31452 7.48625 4.96205 7.33808C4.60958 7.1899 4.44397 6.78405 4.59214 6.43157Z" fill="currentColor"/>
<path fill-rule="evenodd" clip-rule="evenodd" d="M13.9561 16.3341C13.9561 15.9518 14.2661 15.6418 14.6484 15.6418H16.807C17.1894 15.6418 17.4993 15.9518 17.4993 16.3341C17.4993 16.7165 17.1894 17.0264 16.807 17.0264H14.6484C14.2661 17.0264 13.9561 16.7165 13.9561 16.3341Z" fill="currentColor"/>
<path fill-rule="evenodd" clip-rule="evenodd" d="M3.54659 18.3742C3.08816 18.7897 2.90805 19.314 2.90805 19.7716C2.90805 20.1539 2.59809 20.4639 2.21575 20.4639C1.8334 20.4639 1.52344 20.1539 1.52344 19.7716C1.52344 18.9538 1.84679 18.0461 2.61684 17.3482C3.38864 16.6488 4.54656 16.2151 6.12271 16.2151C7.69794 16.2151 8.85561 16.645 9.62769 17.3412C10.3986 18.0364 10.722 18.9421 10.722 19.7606C10.722 20.1429 10.412 20.4529 10.0297 20.4529C9.64736 20.4529 9.33739 20.1429 9.33739 19.7606C9.33739 19.3027 9.15773 18.7818 8.70048 18.3695C8.24433 17.9583 7.44853 17.5998 6.12271 17.5998C4.79883 17.5998 4.00326 17.9604 3.54659 18.3742Z" fill="currentColor"/>
<path fill-rule="evenodd" clip-rule="evenodd" d="M6.12328 10.2476C5.1271 10.2476 4.31971 11.0547 4.31971 12.0501C4.31971 13.0459 5.12746 13.8537 6.12328 13.8537C7.11909 13.8537 7.92684 13.0459 7.92684 12.0501C7.92684 11.0547 7.11945 10.2476 6.12328 10.2476ZM2.9351 12.0501C2.9351 10.2893 4.36312 8.86297 6.12328 8.86297C7.88343 8.86297 9.31145 10.2893 9.31145 12.0501C9.31145 13.8107 7.88379 15.2383 6.12328 15.2383C4.36276 15.2383 2.9351 13.8107 2.9351 12.0501Z" fill="currentColor"/>
</svg>
