<svg width="24" height="24" viewBox="0 0 24 24" fill="none" xmlns="http://www.w3.org/2000/svg">
<path fill-rule="evenodd" clip-rule="evenodd" d="M11.7599 7.10403C9.0559 7.10403 6.8639 9.29604 6.8639 12C6.8639 14.7039 9.0559 16.896 11.7599 16.896C14.4638 16.896 16.6558 14.7039 16.6558 12C16.6558 9.29604 14.4638 7.10403 11.7599 7.10403ZM5.4239 12C5.4239 8.50075 8.26062 5.66403 11.7599 5.66403C15.2591 5.66403 18.0958 8.50075 18.0958 12C18.0958 15.4992 15.2591 18.336 11.7599 18.336C8.26062 18.336 5.4239 15.4992 5.4239 12Z" fill="black"/>
<path fill-rule="evenodd" clip-rule="evenodd" d="M11.6541 8.76444C12.0096 8.94265 12.1532 9.37529 11.975 9.73075L11.1983 11.2801H13.4879C13.7376 11.2801 13.9695 11.4094 14.1007 11.6219C14.2318 11.8345 14.2434 12.0997 14.1315 12.3229L12.8312 14.9149C12.6529 15.2703 12.2202 15.4139 11.8647 15.2356C11.5093 15.0573 11.3657 14.6246 11.5441 14.2692L12.3212 12.7201H10.032C9.7823 12.7201 9.55043 12.5907 9.41928 12.3782C9.28813 12.1658 9.27641 11.9005 9.38831 11.6773L10.6878 9.08541C10.866 8.72993 11.2986 8.58623 11.6541 8.76444Z" fill="black"/>
<path fill-rule="evenodd" clip-rule="evenodd" d="M6.09549 5.43809C6.37935 5.71656 6.38372 6.17241 6.10524 6.45627C3.08492 9.53503 3.08492 14.465 6.10524 17.5438C6.38372 17.8277 6.37935 18.2835 6.09549 18.562C5.81163 18.8405 5.35577 18.836 5.0773 18.5522C1.50756 14.9134 1.50756 9.08664 5.0773 5.44784C5.35577 5.16398 5.81163 5.15961 6.09549 5.43809Z" fill="black"/>
<path fill-rule="evenodd" clip-rule="evenodd" d="M17.4246 5.43809C17.7083 5.15961 18.1643 5.16398 18.4427 5.44784C22.0124 9.08664 22.0124 14.9134 18.4427 18.5522C18.1643 18.836 17.7083 18.8405 17.4246 18.562C17.1407 18.2835 17.1363 17.8277 17.4148 17.5438C20.4351 14.465 20.4351 9.53503 17.4148 6.45627C17.1363 6.17241 17.1407 5.71656 17.4246 5.43809Z" fill="black"/>
</svg>
