<svg width="24" height="24" viewBox="0 0 24 24" fill="none" xmlns="http://www.w3.org/2000/svg">
<path fill-rule="evenodd" clip-rule="evenodd" d="M3.7829 4.50932C4.68554 3.54134 5.97072 3 7.48749 3H15.2088C16.7291 3 18.0147 3.54105 18.9167 4.50966C19.8136 5.47271 20.2795 6.80202 20.2795 8.29347V12.0054C20.2795 12.3878 19.9696 12.6978 19.5872 12.6978C19.2049 12.6978 18.8949 12.3878 18.8949 12.0054V10.3273H3.80138V15.5683C3.80138 16.7735 4.17516 17.7449 4.79287 18.4083C5.40539 19.0661 6.30905 19.4772 7.48749 19.4772H9.08977C9.47215 19.4772 9.78212 19.7872 9.78212 20.1695C9.78212 20.5518 9.47215 20.8618 9.08977 20.8618H7.48749C5.96704 20.8618 4.68149 20.3205 3.77952 19.3518C2.88275 18.3887 2.41676 17.0594 2.41676 15.5683V8.29347C2.41676 6.80115 2.88526 5.47195 3.7829 4.50932ZM3.80138 8.9427H18.8949V8.29347C18.8949 7.08781 18.5211 6.11654 17.9034 5.45328C17.291 4.7956 16.3873 4.38462 15.2088 4.38462H7.48749C6.31345 4.38462 5.40943 4.79531 4.79556 5.45361C4.17668 6.1173 3.80138 7.08869 3.80138 8.29347V8.9427ZM5.42765 6.94192C5.42765 6.55957 5.73761 6.24961 6.11995 6.24961H6.17115C6.5535 6.24961 6.86346 6.55957 6.86346 6.94192C6.86346 7.32426 6.5535 7.63422 6.17115 7.63422H6.11995C5.73761 7.63422 5.42765 7.32426 5.42765 6.94192ZM7.70281 6.94192C7.70281 6.55957 8.01277 6.24961 8.39512 6.24961H8.44631C8.82867 6.24961 9.13862 6.55957 9.13862 6.94192C9.13862 7.32426 8.82867 7.63422 8.44631 7.63422H8.39512C8.01277 7.63422 7.70281 7.32426 7.70281 6.94192ZM9.978 6.94192C9.978 6.55957 10.288 6.24961 10.6703 6.24961H10.7214C11.1038 6.24961 11.4138 6.55957 11.4138 6.94192C11.4138 7.32426 11.1038 7.63422 10.7214 7.63422H10.6703C10.288 7.63422 9.978 7.32426 9.978 6.94192ZM11.7648 16.9767C11.7648 14.7549 13.5666 12.9532 15.7883 12.9532C16.9139 12.9532 17.932 13.4158 18.6613 14.1602C19.3723 14.8854 19.8114 15.8802 19.8114 16.9765C19.8114 19.1992 18.0105 21 15.7878 21C14.6629 21 13.6444 20.5371 12.915 19.7925C12.2044 19.0676 11.7648 18.0732 11.7648 16.9767ZM14.454 19.2537C14.8455 19.4838 15.3011 19.6154 15.7878 19.6154C17.2458 19.6154 18.4267 18.4344 18.4267 16.9765C18.4267 16.5081 18.3054 16.0691 18.0918 15.6882L14.454 19.2537ZM17.1226 14.6993L13.4848 18.2649C13.271 17.884 13.1494 17.445 13.1494 16.9767C13.1494 15.5197 14.3312 14.3378 15.7883 14.3378C16.2756 14.3378 16.7312 14.4692 17.1226 14.6993Z" fill="currentColor"/>
</svg>
