<svg width="24" height="24" viewBox="0 0 24 24" fill="none" xmlns="http://www.w3.org/2000/svg">
<path fill-rule="evenodd" clip-rule="evenodd" d="M3.51611 4.52058C4.42507 3.54568 5.71942 3 7.24753 3H15.0334C16.5652 3 17.8597 3.54541 18.7678 4.52098C19.6707 5.49095 20.1401 6.82984 20.1401 8.33204V15.6679C20.1401 17.1702 19.6707 18.5091 18.7676 19.479C17.8594 20.4546 16.5646 21 15.0325 21H7.24753C5.71583 21 4.4211 20.4546 3.51277 19.4791C2.60961 18.5092 2.14002 17.1702 2.14002 15.6679V8.33204C2.14002 6.82888 2.61215 5.49009 3.51611 4.52058ZM3.52464 10.3769V15.6679C3.52464 16.8843 3.90198 17.8652 4.5261 18.5356C5.14502 19.2003 6.0579 19.6154 7.24753 19.6154H15.0325C16.2226 19.6154 17.1354 19.2002 17.7543 18.5356C18.3783 17.8653 18.7554 16.8844 18.7554 15.6679V10.3769H3.52464ZM18.7554 8.9922H3.52464V8.33204C3.52464 7.11657 3.90349 6.13549 4.52882 5.4648C5.14914 4.79948 6.06239 4.38462 7.24753 4.38462H15.0334C16.223 4.38462 17.1356 4.79975 17.7544 5.46439C18.3782 6.13463 18.7554 7.1156 18.7554 8.33204V8.9922ZM5.17543 6.96907C5.17543 6.58673 5.48539 6.27677 5.86774 6.27677H5.91893C6.30128 6.27677 6.61124 6.58673 6.61124 6.96907C6.61124 7.35143 6.30128 7.66138 5.91893 7.66138H5.86774C5.48539 7.66138 5.17543 7.35143 5.17543 6.96907ZM7.47075 6.96907C7.47075 6.58673 7.7807 6.27677 8.16305 6.27677H8.21425C8.59659 6.27677 8.90655 6.58673 8.90655 6.96907C8.90655 7.35143 8.59659 7.66138 8.21425 7.66138H8.16305C7.7807 7.66138 7.47075 7.35143 7.47075 6.96907ZM9.76606 6.96907C9.76606 6.58673 10.076 6.27677 10.4584 6.27677H10.5096C10.8919 6.27677 11.2019 6.58673 11.2019 6.96907C11.2019 7.35143 10.8919 7.66138 10.5096 7.66138H10.4584C10.076 7.66138 9.76606 7.35143 9.76606 6.96907ZM6.40175 13.1512C6.40175 12.7688 6.71171 12.4589 7.09406 12.4589H10.5285C10.9109 12.4589 11.2208 12.7688 11.2208 13.1512C11.2208 13.5335 10.9109 13.8435 10.5285 13.8435H7.09406C6.71171 13.8435 6.40175 13.5335 6.40175 13.1512ZM6.40175 16.3314C6.40175 15.9491 6.71171 15.6391 7.09406 15.6391H13.3908C13.7732 15.6391 14.0831 15.9491 14.0831 16.3314C14.0831 16.7138 13.7732 17.0238 13.3908 17.0238H7.09406C6.71171 17.0238 6.40175 16.7138 6.40175 16.3314Z" fill="currentColor"/>
</svg>
