<svg width="24" height="24" viewBox="0 0 24 24" fill="none" xmlns="http://www.w3.org/2000/svg">
<path fill-rule="evenodd" clip-rule="evenodd" d="M3.47236 7.03245C3.47236 4.80546 5.27757 3 7.50391 3H12.5954C14.8216 3 16.6268 4.80524 16.6269 7.03136L16.6278 10.3212C16.6279 10.7035 16.3181 11.0136 15.9357 11.0137C15.5534 11.0138 15.2433 10.7039 15.2432 10.3216L15.2423 7.03174C15.2423 5.57023 14.0569 4.38462 12.5954 4.38462H7.50391C6.04255 4.38462 4.85701 5.56989 4.85697 7.03239L4.85787 16.9684C4.85787 18.4299 6.0433 19.6154 7.50481 19.6154H9.27231C9.65465 19.6154 9.96462 19.9254 9.96462 20.3077C9.96462 20.69 9.65465 21 9.27231 21H7.50481C5.27862 21 3.47329 19.1947 3.47325 16.9686L3.47236 7.03245Z" fill="currentColor"/>
<path fill-rule="evenodd" clip-rule="evenodd" d="M8.07332 7.09706C8.07332 6.7147 8.38328 6.40475 8.76562 6.40475H11.3352C11.7175 6.40475 12.0275 6.7147 12.0275 7.09706C12.0275 7.47941 11.7175 7.78937 11.3352 7.78937H8.76562C8.38328 7.78937 8.07332 7.47941 8.07332 7.09706Z" fill="currentColor"/>
<path d="M15.2409 19.905C15.1037 19.9053 14.9695 19.8648 14.8553 19.7886C14.7412 19.7124 14.6523 19.604 14.5999 19.4773C14.5474 19.3505 14.5339 19.2109 14.5609 19.0764C14.5879 18.9418 14.6543 18.8184 14.7516 18.7217L16.6338 16.8487L14.7535 14.974C14.6873 14.9102 14.6344 14.8338 14.598 14.7495C14.5617 14.6651 14.5425 14.5743 14.5415 14.4823C14.5406 14.3904 14.558 14.2992 14.5927 14.2141C14.6274 14.129 14.6786 14.0516 14.7435 13.9866C14.8084 13.9214 14.8857 13.8699 14.9707 13.835C15.0557 13.8001 15.1469 13.7824 15.2388 13.7831C15.3307 13.7838 15.4216 13.8027 15.5061 13.8389C15.5906 13.875 15.667 13.9277 15.731 13.9937L18.1042 16.3577C18.1689 16.422 18.2201 16.4984 18.2551 16.5826C18.2901 16.6668 18.3082 16.7571 18.3082 16.8483C18.3082 16.9395 18.2901 17.0298 18.2551 17.1139C18.2201 17.1981 18.1689 17.2746 18.1042 17.3389L15.731 19.7029C15.6667 19.7673 15.5902 19.8183 15.5062 19.853C15.4221 19.8877 15.3319 19.9053 15.2409 19.905Z" fill="currentColor"/>
<path d="M12.3546 17.5421C12.171 17.5421 11.9949 17.4691 11.8651 17.3393C11.7352 17.2095 11.6623 17.0334 11.6623 16.8498C11.6623 16.6662 11.7352 16.49 11.8651 16.3602C11.9949 16.2304 12.171 16.1574 12.3546 16.1574H17.6161C17.7997 16.1574 17.9758 16.2304 18.1056 16.3602C18.2355 16.49 18.3084 16.6662 18.3084 16.8498C18.3084 17.0334 18.2355 17.2095 18.1056 17.3393C17.9758 17.4691 17.7997 17.5421 17.6161 17.5421H12.3546Z" fill="currentColor"/>
</svg>
